BasicallyASansSerif-Black.ufo
<glyph name="exclamation" format="2">
  <advance width="488.5714285714285"/>
  <unicode hex="0021"/>
  <outline>
    <contour>
      <point x="115.7142857142857" y="355.2857142857143" type="line"/>
      <point x="372.85714285714283" y="355.2857142857143" type="line"/>
      <point x="372.85714285714283" y="1095.0" type="line"/>
      <point x="115.7142857142857" y="1095.0" type="line"/>
    </contour>
    <contour>
      <point x="403.71428571428567" y="144.42857142857142" type="curve" smooth="yes"/>
      <point x="403.71428571428567" y="232.41959461714288"/>
      <point x="332.2767374742857" y="303.85714285714283"/>
      <point x="244.28571428571428" y="303.85714285714283" type="curve" smooth="yes"/>
      <point x="156.29469109714285" y="303.85714285714283"/>
      <point x="84.85714285714285" y="232.41959461714288"/>
      <point x="84.85714285714285" y="144.42857142857142" type="curve" smooth="yes"/>
      <point x="84.85714285714285" y="56.43754824000002"/>
      <point x="156.29469109714282" y="-15.0"/>
      <point x="244.28571428571422" y="-15.0" type="curve" smooth="yes"/>
      <point x="332.27673747428565" y="-15.000000000000023"/>
      <point x="403.71428571428567" y="56.43754823999997"/>
    </contour>
  </outline>
</glyph>
<glyph name="quotedbl" format="2">
  <advance width="786.8571428571429"/>
  <unicode hex="0022"/>
  <outline>
    <contour>
      <point x="444.85714285714283" y="784.2857142857142" type="line"/>
      <point x="702.0" y="784.2857142857142" type="line"/>
      <point x="702.0" y="1118.5714285714284" type="line"/>
      <point x="444.85714285714283" y="1118.5714285714284" type="line"/>
    </contour>
    <contour>
      <point x="84.85714285714285" y="784.2857142857142" type="line"/>
      <point x="341.99999999999994" y="784.2857142857142" type="line"/>
      <point x="341.99999999999994" y="1118.5714285714284" type="line"/>
      <point x="84.85714285714285" y="1118.5714285714284" type="line"/>
    </contour>
  </outline>
</glyph>
<glyph name="numbersign" format="2">
  <advance width="976.352366358526"/>
  <unicode hex="0023"/>
  <outline>
    <contour>
      <point x="77.37581634521484" y="0" type="line"/>
      <point x="339.33153533935547" y="0" type="line"/>
      <point x="375.9861068725586" y="188.57142639160156" type="line"/>
      <point x="463.74466705322266" y="188.57142639160156" type="line"/>
      <point x="427.09009552001953" y="0" type="line"/>
      <point x="689.0458221435547" y="0" type="line"/>
      <point x="725.7003936767578" y="188.57142639160156" type="line"/>
      <point x="882" y="188.57142639160156" type="line"/>
      <point x="882" y="445.7142868041992" type="line"/>
      <point x="775.6838989257812" y="445.7142868041992" type="line"/>
      <point x="812.3384780883789" y="634.2857131958008" type="line"/>
      <point x="968.6380844116211" y="634.2857131958008" type="line"/>
      <point x="968.6380844116211" y="891.4285736083984" type="line"/>
      <point x="862.3219833374023" y="891.4285736083984" type="line"/>
      <point x="898.9765548706055" y="1080" type="line"/>
      <point x="637.0208358764648" y="1080" type="line"/>
      <point x="600.3662643432617" y="891.4285736083984" type="line"/>
      <point x="512.6076965332031" y="891.4285736083984" type="line"/>
      <point x="549.2622680664062" y="1080" type="line"/>
      <point x="287.3065490722656" y="1080" type="line"/>
      <point x="250.6519775390625" y="891.4285736083984" type="line"/>
      <point x="94.35236358642578" y="891.4285736083984" type="line"/>
      <point x="94.35236358642578" y="634.2857131958008" type="line"/>
      <point x="200.66847229003906" y="634.2857131958008" type="line"/>
      <point x="164.0138931274414" y="445.7142868041992" type="line"/>
      <point x="7.714286804199219" y="445.7142868041992" type="line"/>
      <point x="7.714286804199219" y="188.57142639160156" type="line"/>
      <point x="114.03038787841797" y="188.57142639160156" type="line"/>
    </contour>
    <contour>
      <point x="425.96961212158203" y="445.7142868041992" type="line"/>
      <point x="462.6241912841797" y="634.2857131958008" type="line"/>
      <point x="550.3827514648438" y="634.2857131958008" type="line"/>
      <point x="513.7281799316406" y="445.7142868041992" type="line"/>
    </contour>
  </outline>
</glyph>
<glyph name="dollar" format="2">
  <advance width="936.8571428571428"/>
  <unicode hex="0024"/>
  <outline>
    <contour>
      <point x="333.4285699999999" y="762.85714" type="curve"/>
      <point x="333.42857" y="781.37039962387"/>
      <point x="345.5287796439324" y="798.3259606407825"/>
      <point x="365.57142639160156" y="811.3935699462891" type="curve"/>
      <point x="365.57142639160156" y="714.3349380493164" type="line"/>
      <point x="345.5285165787417" y="727.3845901059939"/>
      <point x="333.4285699999999" y="744.34362136067"/>
    </contour>
    <contour>
      <point x="50.57142639160156" y="330" type="line"/>
      <point x="50.57143" y="168.88952502771997"/>
      <point x="184.61721611690842" y="33.424304852336036"/>
      <point x="365.57142639160156" y="-4.4452056884765625" type="curve"/>
      <point x="365.57142639160156" y="-102.85713958740234" type="line"/>
      <point x="571.2857131958008" y="-102.85713958740234" type="line"/>
      <point x="571.2857131958008" y="-4.442802429199219" type="line"/>
      <point x="752.2399238830916" y="33.42430485233605"/>
      <point x="886.28571" y="168.88952502772003"/>
      <point x="886.2857099999999" y="330.00000000000006" type="curve"/>
      <point x="886.28571" y="491.11039978020005"/>
      <point x="752.235954191699" y="626.5535276939073"/>
      <point x="571.2857131958008" y="664.4436874389648" type="curve"/>
      <point x="571.2857131958008" y="811.3804779052734" type="line"/>
      <point x="591.3283603560676" y="798.3259606407826"/>
      <point x="603.42857" y="781.3703996238701"/>
      <point x="603.42857" y="762.85714" type="curve"/>
      <point x="860.5714263916016" y="762.8571395874023" type="line"/>
      <point x="860.57143" y="916.03007864762"/>
      <point x="737.8912103135535" y="1045.1251677194869"/>
      <point x="571.2857131958008" y="1083.4301452636719" type="curve"/>
      <point x="571.2857131958008" y="1182.8571395874023" type="line"/>
      <point x="365.57142639160156" y="1182.8571395874023" type="line"/>
      <point x="365.57142639160156" y="1083.4288177490234" type="line"/>
      <point x="198.96592968644651" y="1045.1251677194869"/>
      <point x="76.28571000000001" y="916.03007864762"/>
      <point x="76.28571" y="762.8571400000001" type="curve"/>
      <point x="76.28571" y="609.68412921874"/>
      <point x="198.96984869004535" y="480.60950035154474"/>
      <point x="365.57142639160156" y="442.2908020019531" type="curve"/>
      <point x="365.57142639160156" y="262.53485107421875" type="line"/>
      <point x="330.22258194338616" y="278.6332439206609"/>
      <point x="307.71429" y="302.8910200714399"/>
      <point x="307.71428999999995" y="329.99999999999994" type="curve"/>
    </contour>
    <contour>
      <point x="629.14286" y="330.0" type="curve"/>
      <point x="629.14286" y="302.89102007144"/>
      <point x="606.6345649310547" y="278.63324392066096"/>
      <point x="571.2857131958008" y="262.51331329345703" type="curve"/>
      <point x="571.2857131958008" y="397.4806365966797" type="line"/>
      <point x="606.636466429565" y="381.3844711837602"/>
      <point x="629.14286" y="357.10967262240007"/>
    </contour>
  </outline>
</glyph>
<glyph name="percent" format="2">
  <advance width="1271.1428571428567"/>
  <unicode hex="0025"/>
  <outline>
    <contour>
      <point x="624.8571428571428" y="799.2857142857142" type="curve" smooth="yes"/>
      <point x="624.8571428571428" y="962.4948702"/>
      <point x="492.3520130571428" y="1095.0"/>
      <point x="329.1428571428571" y="1095.0" type="curve" smooth="yes"/>
      <point x="165.9337012285714" y="1095.0"/>
      <point x="33.428571428571416" y="962.4948702"/>
      <point x="33.428571428571416" y="799.2857142857142" type="curve" smooth="yes"/>
      <point x="33.428571428571416" y="636.0765583714285"/>
      <point x="165.93370122857135" y="503.57142857142856"/>
      <point x="329.14285714285705" y="503.57142857142856" type="curve" smooth="yes"/>
      <point x="492.3520130571428" y="503.57142857142856"/>
      <point x="624.8571428571427" y="636.0765583714284"/>
    </contour>
    <contour>
      <point x="99.8611452484221" y="0.0" type="line"/>
      <point x="357.44333778341706" y="0.0" type="line"/>
      <point x="1171.281711894435" y="1080.0" type="line"/>
      <point x="913.6995193594399" y="1080.0" type="line"/>
    </contour>
    <contour>
      <point x="367.71428571428567" y="799.2857142857142" type="curve" smooth="yes"/>
      <point x="367.71428571428567" y="777.9975635142856"/>
      <point x="350.4310079142857" y="760.7142857142857"/>
      <point x="329.1428571428571" y="760.7142857142857" type="curve" smooth="yes"/>
      <point x="307.8547063714285" y="760.7142857142857"/>
      <point x="290.57142857142856" y="777.9975635142857"/>
      <point x="290.57142857142856" y="799.2857142857142" type="curve" smooth="yes"/>
      <point x="290.57142857142856" y="820.5738650571428"/>
      <point x="307.8547063714285" y="837.8571428571428"/>
      <point x="329.1428571428571" y="837.8571428571428" type="curve" smooth="yes"/>
      <point x="350.4310079142857" y="837.8571428571428"/>
      <point x="367.71428571428567" y="820.5738650571427"/>
    </contour>
    <contour>
      <point x="1237.7142857142856" y="280.7142857142857" type="curve" smooth="yes"/>
      <point x="1237.7142857142856" y="443.92344162857137"/>
      <point x="1105.2091559142857" y="576.4285714285714"/>
      <point x="941.9999999999999" y="576.4285714285714" type="curve" smooth="yes"/>
      <point x="778.7908440857142" y="576.4285714285714"/>
      <point x="646.2857142857142" y="443.9234416285715"/>
      <point x="646.2857142857142" y="280.7142857142857" type="curve" smooth="yes"/>
      <point x="646.2857142857142" y="117.5051298"/>
      <point x="778.7908440857142" y="-15.0"/>
      <point x="941.9999999999999" y="-15.0" type="curve" smooth="yes"/>
      <point x="1105.2091559142857" y="-15.000000000000048"/>
      <point x="1237.7142857142856" y="117.50512979999993"/>
    </contour>
    <contour>
      <point x="980.5714285714283" y="280.7142857142857" type="curve" smooth="yes"/>
      <point x="980.5714285714283" y="259.4261349428571"/>
      <point x="963.2881507714284" y="242.14285714285714"/>
      <point x="941.9999999999999" y="242.14285714285714" type="curve" smooth="yes"/>
      <point x="920.7118492285713" y="242.14285714285714"/>
      <point x="903.4285714285713" y="259.4261349428571"/>
      <point x="903.4285714285713" y="280.7142857142857" type="curve" smooth="yes"/>
      <point x="903.4285714285713" y="302.00243648571427"/>
      <point x="920.7118492285714" y="319.2857142857143"/>
      <point x="941.9999999999999" y="319.2857142857143" type="curve" smooth="yes"/>
      <point x="963.2881507714285" y="319.2857142857143"/>
      <point x="980.5714285714283" y="302.00243648571427"/>
    </contour>
  </outline>
</glyph>
<glyph name="ampersand" format="2">
  <advance width="1030.557571954337"/>
  <unicode hex="0026"/>
  <outline>
    <contour>
      <point x="409.34163665771484" y="776.6651611328125" type="line"/>
      <point x="404.0329782066417" y="783.3390588261897"/>
      <point x="401.1428571428571" y="791.6150945679685"/>
      <point x="401.1428571428571" y="800.1428571428571" type="curve"/>
      <point x="401.1428571428571" y="820.9579378971429"/>
      <point x="418.04206210285713" y="837.8571428571428"/>
      <point x="438.85714285714283" y="837.8571428571428" type="curve" smooth="yes"/>
      <point x="459.67222361142854" y="837.8571428571428"/>
      <point x="476.57142857142856" y="820.9579378971429"/>
      <point x="476.57142857142856" y="800.1428571428571" type="curve"/>
      <point x="476.57142857142856" y="786.7905448461631"/>
      <point x="469.58497323695633" y="775.1008771671319"/>
      <point x="459.1370544433593" y="768.418219430106" type="curve"/>
      <point x="430.48099517822266" y="750.0893402099609" type="line"/>
    </contour>
    <contour>
      <point x="333.6807992117745" y="383.14320373535156" type="curve"/>
      <point x="373.54236602783203" y="408.59983825683594" type="line"/>
      <point x="504.0564880371094" y="244.52108764648438" type="line"/>
      <point x="493.1177860635347" y="242.94914634698506"/>
      <point x="481.9380237943251" y="242.1428571428571"/>
      <point x="470.57142857142856" y="242.14285714285714" type="curve"/>
      <point x="378.3227752285714" y="242.14285714285714"/>
      <point x="303.4285714285714" y="282.47050534285717"/>
      <point x="303.4285714285714" y="332.1428571428571" type="curve"/>
      <point x="303.4285714285714" y="352.929104279598"/>
      <point x="315.3037023020403" y="371.4071116369439"/>
    </contour>
    <contour>
      <point x="46.285714285714285" y="332.1428571428571" type="curve"/>
      <point x="46.2857142857143" y="140.54950020000004"/>
      <point x="236.40177008571425" y="-14.99999999999995"/>
      <point x="470.5714285714285" y="-15.0" type="curve"/>
      <point x="543.5438742722649" y="-15.0"/>
      <point x="612.8335436375115" y="0.8932497827908872"/>
      <point x="675.1650695800781" y="29.408111572265625" type="curve"/>
      <point x="698.5573425292969" y="0" type="line"/>
      <point x="1027.1289978027344" y="0" type="line"/>
      <point x="873.1332550048828" y="193.59918212890625" type="line"/>
      <point x="929.9993879440482" y="273.94010331777923"/>
      <point x="963.4285714285714" y="372.0255257808236"/>
      <point x="963.4285714285716" y="477.8571428571429" type="curve"/>
      <point x="706.2857131958008" y="477.85713958740234" type="line"/>
      <point x="706.2857142857143" y="455.822298370656"/>
      <point x="703.255662609686" y="434.4895760278841"/>
      <point x="697.5898742675781" y="414.28746032714844" type="curve"/>
      <point x="591.4300918579102" y="547.7486038208008" type="line"/>
      <point x="597.5004806518555" y="551.6253128051758" type="line"/>
      <point x="679.4365474269797" y="603.9518180958752"/>
      <point x="733.7142857142858" y="695.7907831026026"/>
      <point x="733.7142857142858" y="800.1428571428571" type="curve"/>
      <point x="733.7142857142858" y="962.87894304"/>
      <point x="601.5932287542857" y="1095.0"/>
      <point x="438.85714285714283" y="1095.0" type="curve" smooth="yes"/>
      <point x="276.12105696000003" y="1095.0"/>
      <point x="144.0" y="962.87894304"/>
      <point x="144.0" y="800.1428571428571" type="curve"/>
      <point x="144.0" y="733.4712588300922"/>
      <point x="166.5954919532252" y="668.7677066670936"/>
      <point x="208.09953775094542" y="616.5899699971362" type="curve"/>
      <point x="212.70701599121094" y="610.7975845336914" type="line"/>
      <point x="195.51085662841797" y="599.7986450195312" type="line"/>
      <point x="105.53024088337415" y="542.2455858956738"/>
      <point x="46.285714285714285" y="443.7598248600728"/>
    </contour>
  </outline>
</glyph>
<glyph name="quotesingle" format="2">
  <advance width="426.8571428571428"/>
  <unicode hex="0027"/>
  <outline>
    <contour>
      <point x="84.85714285714285" y="784.2857142857142" type="line"/>
      <point x="341.99999999999994" y="784.2857142857142" type="line"/>
      <point x="341.99999999999994" y="1118.5714285714284" type="line"/>
      <point x="84.85714285714285" y="1118.5714285714284" type="line"/>
    </contour>
  </outline>
</glyph>
<glyph name="parenleft" format="2">
  <advance width="694.6608319963728"/>
  <unicode hex="0028"/>
  <outline>
    <contour>
      <point x="669.80368913923" y="-257.1428571428571" type="line"/>
      <point x="272.7321036394037" y="219.57564774627244"/>
      <point x="272.73210363940353" y="911.8529236822983"/>
      <point x="669.803689081789" y="1388.5714285714284" type="curve"/>
      <point x="352.4859204973494" y="1388.5714285714284" type="line"/>
      <point x="35.64768327991069" y="886.7537269489749"/>
      <point x="35.647550310463075" y="244.67522880593037"/>
      <point x="352.4855215890068" y="-257.1428571428571" type="curve"/>
    </contour>
  </outline>
</glyph>
<glyph name="parenright" format="2">
  <advance width="694.660831996373"/>
  <unicode hex="0029"/>
  <outline>
    <contour>
      <point x="24.85714" y="-257.14286" type="curve"/>
      <point x="342.17531" y="-257.14286" type="line"/>
      <point x="659.01328" y="244.67523"/>
      <point x="659.01315" y="886.75373"/>
      <point x="342.17491" y="1388.57143" type="curve"/>
      <point x="24.85714" y="1388.57143" type="line"/>
      <point x="421.92873" y="911.85292"/>
      <point x="421.92873" y="219.57565"/>
    </contour>
  </outline>
</glyph>
<glyph name="asterisk" format="2">
  <advance width="870.3954335819385"/>
  <unicode hex="002A"/>
  <outline>
    <contour>
      <point x="306.6262893676758" y="360" type="line"/>
      <point x="563.7691421508789" y="360" type="line"/>
      <point x="563.7691421508789" y="497.30775451660156" type="line"/>
      <point x="682.6811447143555" y="428.6538772583008" type="line"/>
      <point x="811.2525787353516" y="651.3461227416992" type="line"/>
      <point x="692.340576171875" y="720" type="line"/>
      <point x="811.2525787353516" y="788.6538772583008" type="line"/>
      <point x="682.6811447143555" y="1011.3461227416992" type="line"/>
      <point x="563.7691421508789" y="942.6922454833984" type="line"/>
      <point x="563.7691421508789" y="1080" type="line"/>
      <point x="306.6262893676758" y="1080" type="line"/>
      <point x="306.6262893676758" y="942.6922454833984" type="line"/>
      <point x="187.71428680419922" y="1011.3461227416992" type="line"/>
      <point x="59.142860412597656" y="788.6538772583008" type="line"/>
      <point x="178.05486297607422" y="720" type="line"/>
      <point x="59.142860412597656" y="651.3461227416992" type="line"/>
      <point x="187.71428680419922" y="428.6538772583008" type="line"/>
      <point x="306.6262893676758" y="497.30775451660156" type="line"/>
    </contour>
  </outline>
</glyph>
<glyph name="comma" format="2">
  <advance width="463.9533851603735"/>
  <unicode hex="002C"/>
  <outline>
    <contour>
      <point x="277.5493927001953" y="-263.57142639160156" type="line"/>
      <point x="332.84344" y="-167.79933"/>
      <point x="361.95339" y="-59.15953"/>
      <point x="361.95339" y="51.42857" type="curve"/>
      <point x="361.9533920288086" y="231.42857360839844" type="line"/>
      <point x="104.81053161621094" y="231.42857360839844" type="line"/>
      <point x="104.81053161621094" y="51.42857360839844" type="line"/>
      <point x="104.81053" y="-14.02153"/>
      <point x="87.58219" y="-78.31855"/>
      <point x="54.85714" y="-135.0" type="curve"/>
    </contour>
  </outline>
</glyph>
<glyph name="hyphen" format="2">
  <advance width="864.0"/>
  <unicode hex="002D"/>
  <outline>
    <contour>
      <point x="84.85714285714285" y="368.57142857142856" type="line"/>
      <point x="779.1428571428571" y="368.57142857142856" type="line"/>
      <point x="779.1428571428571" y="625.7142857142857" type="line"/>
      <point x="84.85714285714285" y="625.7142857142857" type="line"/>
    </contour>
  </outline>
</glyph>
<glyph name="slash" format="2">
  <advance width="928.9057074085662"/>
  <unicode hex="002F"/>
  <outline>
    <contour>
      <point x="84.85714285714285" y="-51.42857142857142" type="line"/>
      <point x="358.50285577952025" y="-51.42857142857142" type="line"/>
      <point x="882.6199931228518" y="1388.5714285714284" type="line"/>
      <point x="608.9742802004745" y="1388.5714285714284" type="line"/>
    </contour>
  </outline>
</glyph>
<glyph name="zero" format="2">
  <advance width="928.2857142857142"/>
  <unicode hex="0030"/>
  <outline>
    <contour>
      <point x="599.1428604125977" y="377.14286041259766" type="line"/>
      <point x="599.1428571428571" y="302.6343294428571"/>
      <point x="538.6513848428572" y="242.14285714285714"/>
      <point x="464.1428571428571" y="242.14285714285714" type="curve" smooth="yes"/>
      <point x="389.6343294428571" y="242.14285714285714"/>
      <point x="329.1428571428571" y="302.63432944285717"/>
      <point x="329.1428571428571" y="377.1428571428571" type="curve"/>
      <point x="329.14286041259766" y="702.8571395874023" type="line"/>
      <point x="329.1428571428571" y="777.3656705571428"/>
      <point x="389.63432944285717" y="837.8571428571428"/>
      <point x="464.1428571428571" y="837.8571428571428" type="curve" smooth="yes"/>
      <point x="538.6513848428572" y="837.8571428571428"/>
      <point x="599.1428571428571" y="777.3656705571428"/>
      <point x="599.1428571428571" y="702.8571428571428" type="curve"/>
    </contour>
    <contour>
      <point x="72" y="377.14286041259766" type="line"/>
      <point x="71.99999999999996" y="160.71332430000004"/>
      <point x="247.71332429999993" y="-14.99999999999995"/>
      <point x="464.14285714285705" y="-15.0" type="curve" smooth="yes"/>
      <point x="680.5723899857143" y="-15.000000000000048"/>
      <point x="856.2857142857142" y="160.7133242999999"/>
      <point x="856.2857142857142" y="377.14285714285705" type="curve"/>
      <point x="856.2857131958008" y="702.8571395874023" type="line"/>
      <point x="856.2857142857142" y="919.2866756999999"/>
      <point x="680.5723899857143" y="1095.0"/>
      <point x="464.1428571428571" y="1095.0" type="curve" smooth="yes"/>
      <point x="247.7133243" y="1095.0"/>
      <point x="72.0" y="919.2866756999999"/>
      <point x="72.0" y="702.8571428571428" type="curve"/>
    </contour>
  </outline>
</glyph>
<glyph name="one" format="2">
  <advance width="705.4285714285713"/>
  <unicode hex="0031"/>
  <outline>
    <contour>
      <point x="312" y="0" type="line"/>
      <point x="569.1428604125977" y="0" type="line"/>
      <point x="569.1428604125977" y="1080" type="line"/>
      <point x="312" y="1080" type="line"/>
      <point x="80.57142639160156" y="946.384651184082" type="line"/>
      <point x="80.57142639160156" y="649.4616622924805" type="line"/>
      <point x="312" y="783.0770034790039" type="line"/>
    </contour>
  </outline>
</glyph>
<glyph name="two" format="2">
  <advance width="915.4285714285713"/>
  <unicode hex="0032"/>
  <outline>
    <contour>
      <point x="106.28571319580078" y="0" type="line"/>
      <point x="839.1428604125977" y="0" type="line"/>
      <point x="839.1428604125977" y="257.14286041259766" type="line"/>
      <point x="504.7601089477539" y="257.14286041259766" type="line"/>
      <point x="704.6171875" y="425.9727325439453" type="line"/>
      <point x="789.92757" y="498.03893"/>
      <point x="839.14286" y="604.03887"/>
      <point x="839.14286" y="715.71429" type="curve"/>
      <point x="839.14286" y="925.04777"/>
      <point x="669.19063" y="1095.0"/>
      <point x="459.85714" y="1095.0" type="curve" smooth="yes"/>
      <point x="250.52366" y="1095.0"/>
      <point x="80.57143" y="925.04777"/>
      <point x="80.57143" y="715.71429" type="curve"/>
      <point x="337.7142868041992" y="715.7142868041992" type="line"/>
      <point x="337.71429" y="783.12676"/>
      <point x="392.44467" y="837.85714"/>
      <point x="459.85714" y="837.85714" type="curve" smooth="yes"/>
      <point x="527.26962" y="837.85714"/>
      <point x="582.0" y="783.12676"/>
      <point x="582.0" y="715.71429" type="curve"/>
      <point x="582.0" y="679.75102"/>
      <point x="566.15101" y="645.61544"/>
      <point x="538.67818" y="622.40768" type="curve"/>
      <point x="106.28571319580078" y="257.14286041259766" type="line"/>
    </contour>
  </outline>
</glyph>
<glyph name="three" format="2">
  <advance width="923.9999999999999"/>
  <unicode hex="0033"/>
  <outline>
    <contour>
      <point x="72" y="333.9525833129883" type="line"/>
      <point x="72.0" y="141.36041029285715"/>
      <point x="247.71332429999993" y="-14.99999999999995"/>
      <point x="464.14285714285705" y="-15.0" type="curve" smooth="yes"/>
      <point x="680.5723899857143" y="-15.000000000000048"/>
      <point x="856.2857142857142" y="141.36041029285704"/>
      <point x="856.2857142857142" y="333.95258103241287" type="curve"/>
      <point x="856.2857142857142" y="419.7281264833718"/>
      <point x="821.4315707260033" y="498.3168124001372"/>
      <point x="763.649543762207" y="559.1013412475586" type="curve"/>
      <point x="811.0343183155896" y="615.1238825631615"/>
      <point x="839.1428571428571" y="684.8465547768483"/>
      <point x="839.1428571428571" y="760.3811524609841" type="curve"/>
      <point x="839.1428571428571" y="945.0623203928569"/>
      <point x="671.1109896428571" y="1095.0"/>
      <point x="464.1428571428571" y="1095.0" type="curve" smooth="yes"/>
      <point x="257.17472464285714" y="1095.0"/>
      <point x="89.14285714285714" y="945.0623203928569"/>
      <point x="89.14285714285714" y="760.3811524609843" type="curve"/>
      <point x="346.2857131958008" y="760.3811492919922" type="line"/>
      <point x="346.2857142857143" y="803.1413152499999"/>
      <point x="399.09572978571424" y="837.8571428571428"/>
      <point x="464.1428571428571" y="837.8571428571428" type="curve" smooth="yes"/>
      <point x="529.1899845" y="837.8571428571428"/>
      <point x="582.0" y="803.1413152499999"/>
      <point x="582.0" y="760.3811524609843" type="curve"/>
      <point x="582.0" y="717.6209896719687"/>
      <point x="529.1899845" y="682.9051620648257"/>
      <point x="464.1428571428571" y="682.9051620648257" type="curve"/>
      <point x="335.57142639160156" y="682.905158996582" type="line"/>
      <point x="335.57142639160156" y="425.7623062133789" type="line"/>
      <point x="464.14286041259766" y="425.7623062133789" type="line"/>
      <point x="538.6513848428572" y="425.76230492196873"/>
      <point x="599.1428571428571" y="384.62374662911157"/>
      <point x="599.1428571428571" y="333.9525810324129" type="curve"/>
      <point x="599.1428571428571" y="283.2814154357142"/>
      <point x="538.6513848428572" y="242.14285714285714"/>
      <point x="464.1428571428571" y="242.14285714285714" type="curve" smooth="yes"/>
      <point x="389.6343294428571" y="242.14285714285714"/>
      <point x="329.1428571428571" y="283.2814154357143"/>
      <point x="329.1428571428571" y="333.9525810324129" type="curve"/>
    </contour>
  </outline>
</glyph>
<glyph name="four" format="2">
  <advance width="1018.2857142857142"/>
  <unicode hex="0034"/>
  <outline>
    <contour>
      <point x="385.40135955810547" y="393.06121826171875" type="line"/>
      <point x="566.0816268920898" y="642.1070098876953" type="line"/>
      <point x="566.0816268920898" y="393.06121826171875" type="line"/>
    </contour>
    <contour>
      <point x="67.71428680419922" y="135.91837310791016" type="line"/>
      <point x="566.0816268920898" y="135.91837310791016" type="line"/>
      <point x="566.0816268920898" y="0" type="line"/>
      <point x="823.2244873046875" y="0" type="line"/>
      <point x="823.2244873046875" y="135.91837310791016" type="line"/>
      <point x="976.2857131958008" y="135.91837310791016" type="line"/>
      <point x="976.2857131958008" y="393.06121826171875" type="line"/>
      <point x="823.2244873046875" y="393.06121826171875" type="line"/>
      <point x="823.2244873046875" y="1080" type="line"/>
      <point x="566.0816268920898" y="1080" type="line"/>
      <point x="67.71428680419922" y="393.06121826171875" type="line"/>
    </contour>
  </outline>
</glyph>
<glyph name="five" format="2">
  <advance width="932.2821480887276"/>
  <unicode hex="0035"/>
  <outline>
    <contour>
      <point x="860.28215" y="377.14286" type="curve" smooth="yes"/>
      <point x="860.28215" y="593.57239"/>
      <point x="684.56882" y="769.28571"/>
      <point x="468.13929" y="769.28571" type="curve" smooth="yes"/>
      <point x="436.835446965" y="769.28571"/>
      <point x="406.38338825261553" y="765.6097822995781"/>
      <point x="377.20899200439453" y="758.6577377319336" type="curve"/>
      <point x="383.9566192626953" y="822.8571395874023" type="line"/>
      <point x="801.8548431396484" y="822.8571395874023" type="line"/>
      <point x="801.8548431396484" y="1080" type="line"/>
      <point x="152.4241485595703" y="1080" type="line"/>
      <point x="84.85713958740234" y="437.14286041259766" type="line"/>
      <point x="347.2127914428711" y="437.14286041259766" type="line"/>
      <point x="369.32714" y="481.59849"/>
      <point x="415.19435" y="512.14286"/>
      <point x="468.13929" y="512.14286" type="curve" smooth="yes"/>
      <point x="542.64782" y="512.14286"/>
      <point x="603.13929" y="451.65138"/>
      <point x="603.13929" y="377.14286" type="curve" smooth="yes"/>
      <point x="603.13929" y="302.63433"/>
      <point x="542.64782" y="242.14286"/>
      <point x="468.13929" y="242.14286" type="curve" smooth="yes"/>
      <point x="415.18601" y="242.14286"/>
      <point x="369.31268" y="272.69685"/>
      <point x="347.20233" y="317.14286" type="curve"/>
      <point x="80.57142639160156" y="317.14286041259766" type="line"/>
      <point x="109.50019" y="129.13441"/>
      <point x="272.12036" y="-15.0"/>
      <point x="468.13929" y="-15.0" type="curve" smooth="yes"/>
      <point x="684.56882" y="-15.0"/>
      <point x="860.28215" y="160.71332"/>
    </contour>
  </outline>
</glyph>
<glyph name="six" format="2">
  <advance width="894.0"/>
  <unicode hex="0036"/>
  <outline>
    <contour>
      <point x="839.1428571428571" y="377.1428571428571" type="curve" smooth="yes"/>
      <point x="839.1428571428571" y="568.3014284423838"/>
      <point x="702.0675577568935" y="727.696976088994"/>
      <point x="520.9328689575195" y="762.3043594360352" type="curve"/>
      <point x="711.8236694335938" y="1080" type="line"/>
      <point x="411.8322219848633" y="1080" type="line"/>
      <point x="110.86796569824219" y="579.1113586425781" type="line"/>
      <point x="110.8779296875" y="579.1053695678711" type="line"/>
      <point x="75.31887425249695" y="520.113331993089"/>
      <point x="54.85714285714282" y="450.99878593688356"/>
      <point x="54.85714285714282" y="377.14285714285705" type="curve" smooth="yes"/>
      <point x="54.857142857142804" y="160.71332430000004"/>
      <point x="230.5704671571428" y="-14.99999999999995"/>
      <point x="446.9999999999999" y="-15.0" type="curve" smooth="yes"/>
      <point x="663.4295328428572" y="-15.000000000000048"/>
      <point x="839.1428571428571" y="160.7133242999999"/>
    </contour>
    <contour>
      <point x="582.0" y="377.1428571428571" type="curve" smooth="yes"/>
      <point x="582.0" y="302.6343294428571"/>
      <point x="521.5085277000001" y="242.14285714285714"/>
      <point x="446.99999999999994" y="242.14285714285714" type="curve" smooth="yes"/>
      <point x="372.49147229999994" y="242.14285714285714"/>
      <point x="311.99999999999994" y="302.63432944285717"/>
      <point x="311.99999999999994" y="377.1428571428571" type="curve" smooth="yes"/>
      <point x="311.99999999999994" y="451.65138484285717"/>
      <point x="372.4914723" y="512.1428571428571"/>
      <point x="446.99999999999994" y="512.1428571428571" type="curve" smooth="yes"/>
      <point x="521.5085277000001" y="512.1428571428571"/>
      <point x="582.0" y="451.65138484285717"/>
    </contour>
  </outline>
</glyph>
<glyph name="seven" format="2">
  <advance width="889.7142857143435"/>
  <unicode hex="0037"/>
  <outline>
    <contour>
      <point x="144.85713958740234" y="0" type="line"/>
      <point x="430.7481231689453" y="0" type="line"/>
      <point x="830.5714263916016" y="822.8571395874023" type="line"/>
      <point x="830.5714263916016" y="1080" type="line"/>
      <point x="59.142860412597656" y="1080" type="line"/>
      <point x="59.142860412597656" y="822.8571395874023" type="line"/>
      <point x="544.6804580688477" y="822.8571395874023" type="line"/>
    </contour>
  </outline>
</glyph>
<glyph name="eight" format="2">
  <advance width="932.5714285714284"/>
  <unicode hex="0038"/>
  <outline>
    <contour>
      <point x="864.85714" y="337.44643" type="curve" smooth="yes"/>
      <point x="864.85714" y="425.78421010288"/>
      <point x="828.0248394425818" y="506.57491858612684"/>
      <point x="767.2111358642578" y="568.4421768188477" type="curve"/>
      <point x="812.4302319650798" y="623.221286044827"/>
      <point x="839.14286" y="690.79962415326"/>
      <point x="839.14286" y="763.8749999999999" type="curve" smooth="yes"/>
      <point x="839.14286" y="946.62786"/>
      <point x="672.07117" y="1095.0"/>
      <point x="466.28571" y="1095.0" type="curve" smooth="yes"/>
      <point x="260.50026" y="1095.0"/>
      <point x="93.42857" y="946.62786"/>
      <point x="93.42857" y="763.875" type="curve" smooth="yes"/>
      <point x="93.42857" y="690.80072067042"/>
      <point x="120.14039637950815" y="623.223314111101"/>
      <point x="165.3580322265625" y="568.442985534668" type="curve"/>
      <point x="104.54561730369426" y="506.5727837635755"/>
      <point x="67.71429000000003" y="425.78304298"/>
      <point x="67.71429000000006" y="337.44643000000013" type="curve" smooth="yes"/>
      <point x="67.71429" y="142.92595"/>
      <point x="246.30816" y="-15.0"/>
      <point x="466.28571" y="-15.0" type="curve" smooth="yes"/>
      <point x="686.26327" y="-15.0"/>
      <point x="864.85714" y="142.92595"/>
    </contour>
    <contour>
      <point x="582.0" y="763.875" type="curve" smooth="yes"/>
      <point x="582.0" y="723.04314"/>
      <point x="530.15017" y="689.89286"/>
      <point x="466.28571" y="689.89286" type="curve" smooth="yes"/>
      <point x="402.42126" y="689.89286"/>
      <point x="350.57143" y="723.04314"/>
      <point x="350.57143" y="763.875" type="curve" smooth="yes"/>
      <point x="350.57143" y="804.70686"/>
      <point x="402.42126" y="837.85714"/>
      <point x="466.28571" y="837.85714" type="curve" smooth="yes"/>
      <point x="530.15017" y="837.85714"/>
      <point x="582.0" y="804.70686"/>
    </contour>
    <contour>
      <point x="607.71429" y="337.44643" type="curve" smooth="yes"/>
      <point x="607.71429" y="284.84696"/>
      <point x="544.34227" y="242.14286"/>
      <point x="466.28571" y="242.14286" type="curve" smooth="yes"/>
      <point x="388.22916" y="242.14286"/>
      <point x="324.85714" y="284.84696"/>
      <point x="324.85714" y="337.44643" type="curve" smooth="yes"/>
      <point x="324.85714" y="390.0459"/>
      <point x="388.22916" y="432.75"/>
      <point x="466.28571" y="432.75" type="curve" smooth="yes"/>
      <point x="544.34227" y="432.75"/>
      <point x="607.71429" y="390.0459"/>
    </contour>
  </outline>
</glyph>
<glyph name="nine" format="2">
  <advance width="894.0"/>
  <unicode hex="0039"/>
  <outline>
    <contour>
      <point x="839.14286" y="702.85714" type="curve" smooth="yes"/>
      <point x="839.14286" y="919.28668"/>
      <point x="663.42953" y="1095.0"/>
      <point x="447.0" y="1095.0" type="curve" smooth="yes"/>
      <point x="230.57047" y="1095.0"/>
      <point x="54.85714" y="919.28668"/>
      <point x="54.85714" y="702.85714" type="curve" smooth="yes"/>
      <point x="54.85714" y="511.69857121139"/>
      <point x="191.9324438325769" y="352.3030272124246"/>
      <point x="373.067138671875" y="317.6956481933594" type="curve"/>
      <point x="182.17633056640625" y="0" type="line"/>
      <point x="482.1677780151367" y="0" type="line"/>
      <point x="783.1320266723633" y="500.8886413574219" type="line"/>
      <point x="783.1220703125" y="500.8946228027344" type="line"/>
      <point x="818.6811279408837" y="559.8866672596846"/>
      <point x="839.14286" y="629.00121217609"/>
    </contour>
    <contour>
      <point x="582.0" y="702.85714" type="curve" smooth="yes"/>
      <point x="582.0" y="628.34862"/>
      <point x="521.50853" y="567.85714"/>
      <point x="447.0" y="567.85714" type="curve" smooth="yes"/>
      <point x="372.49147" y="567.85714"/>
      <point x="312.0" y="628.34862"/>
      <point x="312.0" y="702.85714" type="curve" smooth="yes"/>
      <point x="312.0" y="777.36567"/>
      <point x="372.49147" y="837.85714"/>
      <point x="447.0" y="837.85714" type="curve" smooth="yes"/>
      <point x="521.50853" y="837.85714"/>
      <point x="582.0" y="777.36567"/>
    </contour>
  </outline>
</glyph>
<glyph name="colon" format="2">
  <advance width="462.85714285714283"/>
  <unicode hex="003A"/>
  <outline>
    <contour>
      <point x="390.85714" y="678.42857" type="curve" smooth="yes"/>
      <point x="390.85714" y="766.41959"/>
      <point x="319.41959" y="837.85714"/>
      <point x="231.42857" y="837.85714" type="curve" smooth="yes"/>
      <point x="143.43755" y="837.85714"/>
      <point x="72.0" y="766.41959"/>
      <point x="72.0" y="678.42857" type="curve" smooth="yes"/>
      <point x="72.0" y="590.43755"/>
      <point x="143.43755" y="519.0"/>
      <point x="231.42857" y="519.0" type="curve" smooth="yes"/>
      <point x="319.41959" y="519.0"/>
      <point x="390.85714" y="590.43755"/>
    </contour>
    <contour>
      <point x="390.85714" y="144.42857" type="curve" smooth="yes"/>
      <point x="390.85714" y="232.41959"/>
      <point x="319.41959" y="303.85714"/>
      <point x="231.42857" y="303.85714" type="curve" smooth="yes"/>
      <point x="143.43755" y="303.85714"/>
      <point x="72.0" y="232.41959"/>
      <point x="72.0" y="144.42857" type="curve" smooth="yes"/>
      <point x="72.0" y="56.43755"/>
      <point x="143.43755" y="-15.0"/>
      <point x="231.42857" y="-15.0" type="curve" smooth="yes"/>
      <point x="319.41959" y="-15.0"/>
      <point x="390.85714" y="56.43755"/>
    </contour>
  </outline>
</glyph>
<glyph name="semicolon" format="2">
  <advance width="459.6429364492019"/>
  <unicode hex="003B"/>
  <outline>
    <contour>
      <point x="387.6429364492019" y="678.4285714285714" type="curve" smooth="yes"/>
      <point x="387.6429364492019" y="766.4195946171428"/>
      <point x="316.20538820920194" y="837.8571428571428"/>
      <point x="228.2143650206305" y="837.8571428571428" type="curve" smooth="yes"/>
      <point x="140.22334183205908" y="837.8571428571428"/>
      <point x="68.78579359205906" y="766.4195946171428"/>
      <point x="68.78579359205906" y="678.4285714285714" type="curve" smooth="yes"/>
      <point x="68.78579359205906" y="590.4375482400001"/>
      <point x="140.22334183205905" y="519.0"/>
      <point x="228.21436502063048" y="519.0" type="curve" smooth="yes"/>
      <point x="316.2053882092019" y="519.0"/>
      <point x="387.6429364492019" y="590.43754824"/>
    </contour>
    <contour>
      <point x="277.5493927001953" y="-244.28571319580078" type="line"/>
      <point x="329.4580885933145" y="-154.37721017848625"/>
      <point x="356.785793592059" y="-52.38882666891784"/>
      <point x="356.785793592059" y="51.42857142857142" type="curve"/>
      <point x="356.7857971191406" y="231.42857360839844" type="line"/>
      <point x="99.64293670654297" y="231.42857360839844" type="line"/>
      <point x="99.64293670654297" y="51.42857360839844" type="line"/>
      <point x="99.64293644920193" y="-7.25082749609643"/>
      <point x="84.19684231947679" y="-64.89643556672205"/>
      <point x="54.857142857142854" y="-115.71428571428568" type="curve"/>
    </contour>
  </outline>
</glyph>
<glyph name="less" format="2">
  <advance width="992.5714285714287"/>
  <unicode hex="003C"/>
  <outline>
    <contour>
      <point x="84.85713958740234" y="636.7955856323242" type="line"/>
      <point x="84.85713958740234" y="357.49012756347656" type="line"/>
      <point x="907.7142868041992" y="8.571426391601562" type="line"/>
      <point x="907.7142868041992" y="287.8768844604492" type="line"/>
      <point x="414.20104217529297" y="497.14286041259766" type="line"/>
      <point x="907.7142868041992" y="706.4088287353516" type="line"/>
      <point x="907.7142868041992" y="985.7142868041992" type="line"/>
    </contour>
  </outline>
</glyph>
<glyph name="equal" format="2">
  <advance width="992.5714285714286"/>
  <unicode hex="003D"/>
  <outline>
    <contour>
      <point x="84.85714285714285" y="574.2857142857142" type="line"/>
      <point x="907.7142857142857" y="574.2857142857142" type="line"/>
      <point x="907.7142857142857" y="831.4285714285713" type="line"/>
      <point x="84.85714285714285" y="831.4285714285713" type="line"/>
    </contour>
    <contour>
      <point x="84.85714285714285" y="162.85714285714286" type="line"/>
      <point x="907.7142857142857" y="162.85714285714286" type="line"/>
      <point x="907.7142857142857" y="420.0" type="line"/>
      <point x="84.85714285714285" y="420.0" type="line"/>
    </contour>
  </outline>
</glyph>
<glyph name="greater" format="2">
  <advance width="992.5714285714287"/>
  <unicode hex="003E"/>
  <outline>
    <contour>
      <point x="907.7142868041992" y="636.7955780029297" type="line"/>
      <point x="84.85713958740234" y="985.7142868041992" type="line"/>
      <point x="84.85713958740234" y="706.4088287353516" type="line"/>
      <point x="578.3703918457031" y="497.1428527832031" type="line"/>
      <point x="84.85713958740234" y="287.8768768310547" type="line"/>
      <point x="84.85713958740234" y="8.571426391601562" type="line"/>
      <point x="907.7142868041992" y="357.49012756347656" type="line"/>
    </contour>
  </outline>
</glyph>
<glyph name="question" format="2">
  <advance width="838.2857142857142"/>
  <unicode hex="003F"/>
  <outline>
    <contour>
      <point x="290.57142639160156" y="355.2857131958008" type="line"/>
      <point x="547.7142868041992" y="355.2857131958008" type="line"/>
      <point x="547.7142868041992" y="398.68353271484375" type="line"/>
      <point x="682.9881349909112" y="450.4786524773723"/>
      <point x="779.1428571428571" y="581.598862830132"/>
      <point x="779.1428571428571" y="735.0" type="curve"/>
      <point x="779.1428571428571" y="933.6894072"/>
      <point x="617.8322643428571" y="1095.0"/>
      <point x="419.1428571428571" y="1095.0" type="curve" smooth="yes"/>
      <point x="220.45344994285713" y="1095.0"/>
      <point x="59.14285714285714" y="933.6894072"/>
      <point x="59.14285714285714" y="735.0" type="curve"/>
      <point x="316.2857131958008" y="735" type="line"/>
      <point x="316.2857142857142" y="791.7684020571428"/>
      <point x="362.3744550857143" y="837.8571428571428"/>
      <point x="419.1428571428571" y="837.8571428571428" type="curve" smooth="yes"/>
      <point x="475.9112592" y="837.8571428571428"/>
      <point x="522.0" y="791.7684020571428"/>
      <point x="522.0" y="735.0" type="curve"/>
      <point x="522.0" y="678.2315979428571"/>
      <point x="475.9112592" y="632.1428571428571"/>
      <point x="419.1428571428571" y="632.1428571428571" type="curve"/>
      <point x="290.57142639160156" y="632.1428604125977" type="line"/>
    </contour>
    <contour>
      <point x="578.5714285714286" y="144.42857142857142" type="curve" smooth="yes"/>
      <point x="578.5714285714286" y="232.41959461714288"/>
      <point x="507.1338803314286" y="303.85714285714283"/>
      <point x="419.1428571428571" y="303.85714285714283" type="curve" smooth="yes"/>
      <point x="331.15183395428573" y="303.85714285714283"/>
      <point x="259.71428571428567" y="232.41959461714288"/>
      <point x="259.71428571428567" y="144.42857142857142" type="curve" smooth="yes"/>
      <point x="259.71428571428567" y="56.43754824000002"/>
      <point x="331.1518339542856" y="-15.0"/>
      <point x="419.1428571428571" y="-15.0" type="curve" smooth="yes"/>
      <point x="507.1338803314285" y="-15.000000000000023"/>
      <point x="578.5714285714286" y="56.43754823999997"/>
    </contour>
  </outline>
</glyph>
<glyph name="at" format="2">
  <advance width="1348.2857142857142"/>
  <unicode hex="0040"/>
  <outline>
    <contour>
      <point x="1129.9591836734692" y="479.9999999999999" type="curve" smooth="yes"/>
      <point x="1129.9591836734694" y="394.3743268971428"/>
      <point x="1101.8464234741837" y="324.8571428571427"/>
      <point x="1067.2193877551022" y="324.8571428571427" type="curve"/>
      <point x="1041.59757771949" y="324.8571428571427"/>
      <point x="1020.795918367347" y="359.492282892857"/>
      <point x="1020.795918367347" y="402.1530612244897" type="curve"/>
      <point x="1020.7959213256836" y="775.8409805297852" type="line"/>
      <point x="1088.8478339451226" y="696.2081363726663"/>
      <point x="1129.9591836734692" y="592.867219460393"/>
    </contour>
    <contour>
      <point x="800.3877551020407" y="474.85714285714283" type="curve" smooth="yes"/>
      <point x="800.3877551020407" y="401.869197355102"/>
      <point x="741.1308026448979" y="342.6122448979591"/>
      <point x="668.1428571428571" y="342.6122448979591" type="curve" smooth="yes"/>
      <point x="595.1549116408163" y="342.6122448979591"/>
      <point x="535.8979591836734" y="401.869197355102"/>
      <point x="535.8979591836734" y="474.85714285714283" type="curve" smooth="yes"/>
      <point x="535.8979591836734" y="547.8450883591837"/>
      <point x="595.1549116408163" y="607.1020408163265"/>
      <point x="668.1428571428571" y="607.1020408163265" type="curve" smooth="yes"/>
      <point x="741.1308026448979" y="607.1020408163265"/>
      <point x="800.3877551020407" y="547.8450883591837"/>
    </contour>
    <contour>
      <point x="674.1428571428571" y="1095.0" type="curve" smooth="yes"/>
      <point x="334.7151198428571" y="1095.0"/>
      <point x="59.14285714285714" y="819.4277373"/>
      <point x="59.14285714285714" y="480.0" type="curve" smooth="yes"/>
      <point x="59.14285714285714" y="140.5722627000001"/>
      <point x="334.715119842857" y="-135.0"/>
      <point x="674.142857142857" y="-135.0" type="curve" smooth="yes"/>
      <point x="876.7296232948873" y="-135.00000000000003"/>
      <point x="1056.5693111272637" y="-36.833572115347096"/>
      <point x="1168.6480342320033" y="114.4897940499442" type="curve"/>
      <point x="946.385139465332" y="114.48979187011719" type="line"/>
      <point x="870.3972076470955" y="57.77178055504869"/>
      <point x="776.1615425525231" y="24.183673469387784"/>
      <point x="674.142857142857" y="24.183673469387784" type="curve" smooth="yes"/>
      <point x="422.57098016938767" y="24.18367346938781"/>
      <point x="218.32653061224494" y="228.42812302653067"/>
      <point x="218.32653061224494" y="480.0" type="curve" smooth="yes"/>
      <point x="218.32653061224494" y="731.5718769734693"/>
      <point x="422.5709801693878" y="935.8163265306122"/>
      <point x="674.1428571428571" y="935.8163265306122" type="curve" smooth="yes"/>
      <point x="794.6228931723443" y="935.8163265306122"/>
      <point x="904.248202446551" y="888.972079711047"/>
      <point x="985.7828369140625" y="812.5102005004883" type="curve"/>
      <point x="800.3877563476562" y="812.5102005004883" type="line"/>
      <point x="800.3877563476562" y="801.827392578125" type="line"/>
      <point x="759.5412326547591" y="818.3914140216023"/>
      <point x="714.8985457624217" y="827.5102040816328"/>
      <point x="668.1428571428571" y="827.5102040816328" type="curve" smooth="yes"/>
      <point x="473.50833580408164" y="827.5102040816328"/>
      <point x="315.48979591836735" y="669.4916641959184"/>
      <point x="315.48979591836735" y="474.85714285714283" type="curve" smooth="yes"/>
      <point x="315.48979591836735" y="280.22262151836736"/>
      <point x="473.5083358040815" y="122.20408163265304"/>
      <point x="668.1428571428571" y="122.20408163265304" type="curve" smooth="yes"/>
      <point x="752.6516092319828" y="122.20408163265301"/>
      <point x="830.257417895719" y="151.99416229434524"/>
      <point x="891.0227813720703" y="201.6478042602539" type="curve"/>
      <point x="938.0372700479842" y="160.20478879993368"/>
      <point x="999.7180394801967" y="135.06122448979582"/>
      <point x="1067.2193877551024" y="135.06122448979582" type="curve"/>
      <point x="1189.7022838007142" y="135.06122448979585"/>
      <point x="1289.142857142857" y="289.6231088155102"/>
      <point x="1289.142857142857" y="480.0" type="curve"/>
      <point x="1289.142857142857" y="819.4277373"/>
      <point x="1013.5705944428571" y="1095.0"/>
    </contour>
  </outline>
</glyph>
<glyph name="B" format="2">
  <advance width="979.7142857142858"/>
  <unicode hex="0042"/>
  <outline>
    <contour>
      <point x="84.85713958740234" y="0" type="line"/>
      <point x="599.1428604125977" y="0" type="line"/>
      <point x="783.6401638285714" y="0.0"/>
      <point x="933.4285714285714" y="149.7884076"/>
      <point x="933.4285714285714" y="334.2857142857143" type="curve" smooth="yes"/>
      <point x="933.4285714285714" y="423.4611959911075"/>
      <point x="898.4349353941213" y="504.527968877021"/>
      <point x="841.4422302246094" y="564.4836044311523" type="curve"/>
      <point x="875.2331505746065" y="616.7021026575718"/>
      <point x="894.8571428571428" y="678.9345630728578"/>
      <point x="894.8571428571429" y="745.7142857142857" type="curve" smooth="yes"/>
      <point x="894.8571428571429" y="930.2115924"/>
      <point x="745.0687352571429" y="1080.0"/>
      <point x="560.5714285714286" y="1080.0" type="curve"/>
      <point x="84.85713958740234" y="1080" type="line"/>
    </contour>
    <contour>
      <point x="560.5714263916016" y="822.8571395874023" type="line"/>
      <point x="603.1477301142858" y="822.8571428571428"/>
      <point x="637.7142857142857" y="788.2905872571428"/>
      <point x="637.7142857142857" y="745.7142857142857" type="curve" smooth="yes"/>
      <point x="637.7142857142857" y="703.1379841714286"/>
      <point x="603.1477301142858" y="668.5714285714286"/>
      <point x="560.5714285714286" y="668.5714285714286" type="curve"/>
      <point x="342" y="668.5714263916016" type="line"/>
      <point x="342" y="822.8571395874023" type="line"/>
    </contour>
    <contour>
      <point x="599.1428604125977" y="411.42857360839844" type="line"/>
      <point x="641.7191586857143" y="411.4285714285714"/>
      <point x="676.2857142857143" y="376.86201582857143"/>
      <point x="676.2857142857143" y="334.2857142857143" type="curve" smooth="yes"/>
      <point x="676.2857142857143" y="291.7094127428571"/>
      <point x="641.7191586857143" y="257.1428571428571"/>
      <point x="599.1428571428571" y="257.1428571428571" type="curve"/>
      <point x="342" y="257.14286041259766" type="line"/>
      <point x="342" y="411.42857360839844" type="line"/>
    </contour>
  </outline>
</glyph>
<glyph name="D" format="2">
  <advance width="1091.142857142857"/>
  <unicode hex="0044"/>
  <outline>
    <contour>
      <point x="84.85713958740234" y="0" type="line"/>
      <point x="496.2857131958008" y="0" type="line"/>
      <point x="794.31983" y="0.0"/>
      <point x="1036.28571" y="241.96589"/>
      <point x="1036.28571" y="540.0" type="curve" smooth="yes"/>
      <point x="1036.28571" y="838.03411"/>
      <point x="794.31983" y="1080.0"/>
      <point x="496.28571" y="1080.0" type="curve"/>
      <point x="84.85713958740234" y="1080" type="line"/>
    </contour>
    <contour>
      <point x="496.2857131958008" y="822.8571395874023" type="line"/>
      <point x="652.39882" y="822.85714"/>
      <point x="779.14286" y="696.11311"/>
      <point x="779.14286" y="540.0" type="curve" smooth="yes"/>
      <point x="779.14286" y="383.88689"/>
      <point x="652.39882" y="257.14286"/>
      <point x="496.28571" y="257.14286" type="curve"/>
      <point x="342" y="257.14286041259766" type="line"/>
      <point x="342" y="822.8571395874023" type="line"/>
    </contour>
  </outline>
</glyph>
<glyph name="G" format="2">
  <advance width="1219.7142857142858"/>
  <unicode hex="0047"/>
  <outline>
    <contour>
      <point x="609.8571395874023" y="372.85713958740234" type="line"/>
      <point x="856.3614349365234" y="372.85713958740234" type="line"/>
      <point x="802.7540921732008" y="293.98370253389146"/>
      <point x="712.3118856237178" y="242.14285714285708"/>
      <point x="609.8571428571428" y="242.14285714285705" type="curve" smooth="yes"/>
      <point x="445.4653118999999" y="242.14285714285714"/>
      <point x="311.99999999999994" y="375.6081690428571"/>
      <point x="311.99999999999994" y="540.0" type="curve" smooth="yes"/>
      <point x="311.99999999999994" y="704.3918309571428"/>
      <point x="445.46531189999996" y="837.8571428571428"/>
      <point x="609.8571428571429" y="837.8571428571428" type="curve" smooth="yes"/>
      <point x="694.4952633764136" y="837.8571428571428"/>
      <point x="770.9354842587678" y="802.4785983159896"/>
      <point x="825.1837790352957" y="745.7142857142857" type="curve"/>
      <point x="1125.4182815551758" y="745.7142868041992" type="line"/>
      <point x="1043.61724684886" y="950.312727964536"/>
      <point x="843.500628033615" y="1095.0"/>
      <point x="609.8571428571429" y="1095.0" type="curve" smooth="yes"/>
      <point x="303.54430675714286" y="1095.0"/>
      <point x="54.857142857142854" y="846.3128361"/>
      <point x="54.857142857142854" y="540.0" type="curve" smooth="yes"/>
      <point x="54.857142857142854" y="233.6871639"/>
      <point x="303.54430675714275" y="-15.0"/>
      <point x="609.8571428571428" y="-15.0" type="curve" smooth="yes"/>
      <point x="916.1699789571428" y="-15.000000000000096"/>
      <point x="1164.857142857143" y="233.68716389999986"/>
      <point x="1164.857142857143" y="540.0" type="curve" smooth="yes"/>
      <point x="1164.857142857143" y="570.646599251805"/>
      <point x="1162.367783724786" y="600.7163653808238"/>
      <point x="1157.5804661342077" y="630.0" type="curve"/>
      <point x="609.8571395874023" y="630" type="line"/>
    </contour>
  </outline>
</glyph>
<glyph name="I" format="2">
  <advance width="426.8571428571428"/>
  <unicode hex="0049"/>
  <outline>
    <contour>
      <point x="84.85714285714285" y="0.0" type="line"/>
      <point x="341.99999999999994" y="0.0" type="line"/>
      <point x="341.99999999999994" y="1080.0" type="line"/>
      <point x="84.85714285714285" y="1080.0" type="line"/>
    </contour>
  </outline>
</glyph>
<glyph name="J" format="2">
  <advance width="889.7142857142857"/>
  <unicode hex="004A"/>
  <outline>
    <contour>
      <point x="46.28571319580078" y="385.7142868041992" type="line"/>
      <point x="46.285714285714334" y="172.83277799999993"/>
      <point x="219.11849228571432" y="-4.872293045212115e-14"/>
      <point x="432.0" y="0.0" type="curve" smooth="yes"/>
      <point x="644.8815077142857" y="4.872293045212115e-14"/>
      <point x="817.7142857142857" y="172.83277800000002"/>
      <point x="817.7142857142857" y="385.71428571428567" type="curve"/>
      <point x="817.7142868041992" y="1080" type="line"/>
      <point x="560.5714263916016" y="1080" type="line"/>
      <point x="560.5714263916016" y="385.7142868041992" type="line"/>
      <point x="560.5714285714286" y="314.7537831428571"/>
      <point x="502.9605025714285" y="257.1428571428571"/>
      <point x="431.99999999999994" y="257.1428571428571" type="curve" smooth="yes"/>
      <point x="361.03949742857145" y="257.1428571428571"/>
      <point x="303.4285714285714" y="314.7537831428571"/>
      <point x="303.4285714285714" y="385.71428571428567" type="curve"/>
    </contour>
  </outline>
</glyph>
<glyph name="K" format="2">
  <advance width="1069.7142857143024"/>
  <unicode hex="004B"/>
  <outline>
    <contour>
      <point x="84.85713958740234" y="0" type="line"/>
      <point x="342" y="0" type="line"/>
      <point x="342" y="411.42857360839844" type="line"/>
      <point x="696.7529754638672" y="0" type="line"/>
      <point x="1036.2857131958008" y="0" type="line"/>
      <point x="570.6724319458008" y="540" type="line"/>
      <point x="1036.2857131958008" y="1080" type="line"/>
      <point x="696.7529754638672" y="1080" type="line"/>
      <point x="342" y="668.5714263916016" type="line"/>
      <point x="342" y="1080" type="line"/>
      <point x="84.85713958740234" y="1080" type="line"/>
    </contour>
  </outline>
</glyph>
<glyph name="M" format="2">
  <advance width="1219.7142857142858"/>
  <unicode hex="004D"/>
  <outline>
    <contour>
      <point x="84.85713958740234" y="0" type="line"/>
      <point x="342" y="0" type="line"/>
      <point x="342" y="529.5752868652344" type="line"/>
      <point x="481.2857131958008" y="231.42857360839844" type="line"/>
      <point x="738.4285736083984" y="231.42857360839844" type="line"/>
      <point x="877.7142868041992" y="529.5752944946289" type="line"/>
      <point x="877.7142868041992" y="0" type="line"/>
      <point x="1134.8571395874023" y="0" type="line"/>
      <point x="1134.8571395874023" y="1080" type="line"/>
      <point x="851.0374221801758" y="1080" type="line"/>
      <point x="609.8571395874023" y="563.7438430786133" type="line"/>
      <point x="368.6768569946289" y="1080" type="line"/>
      <point x="84.85713958740234" y="1080" type="line"/>
    </contour>
  </outline>
</glyph>
<glyph name="O" format="2">
  <advance width="1219.7142857142858"/>
  <unicode hex="004F"/>
  <outline>
    <contour>
      <point x="1164.85714" y="540.0" type="curve" smooth="yes"/>
      <point x="1164.85714" y="846.31284"/>
      <point x="916.16998" y="1095.0"/>
      <point x="609.85714" y="1095.0" type="curve" smooth="yes"/>
      <point x="303.54431" y="1095.0"/>
      <point x="54.85714" y="846.31284"/>
      <point x="54.85714" y="540.0" type="curve" smooth="yes"/>
      <point x="54.85714" y="233.68716"/>
      <point x="303.54431" y="-15.0"/>
      <point x="609.85714" y="-15.0" type="curve" smooth="yes"/>
      <point x="916.16998" y="-15.0"/>
      <point x="1164.85714" y="233.68716"/>
    </contour>
    <contour>
      <point x="907.71429" y="540.0" type="curve" smooth="yes"/>
      <point x="907.71429" y="375.60817"/>
      <point x="774.24897" y="242.14286"/>
      <point x="609.85714" y="242.14286" type="curve" smooth="yes"/>
      <point x="445.46531" y="242.14286"/>
      <point x="312.0" y="375.60817"/>
      <point x="312.0" y="540.0" type="curve" smooth="yes"/>
      <point x="312.0" y="704.39183"/>
      <point x="445.46531" y="837.85714"/>
      <point x="609.85714" y="837.85714" type="curve" smooth="yes"/>
      <point x="774.24897" y="837.85714"/>
      <point x="907.71429" y="704.39183"/>
    </contour>
  </outline>
</glyph>
<glyph name="P" format="2">
  <advance width="979.7142857142857"/>
  <unicode hex="0050"/>
  <outline>
    <contour>
      <point x="84.85713958740234" y="0" type="line"/>
      <point x="342" y="0" type="line"/>
      <point x="342" y="330.61224365234375" type="line"/>
      <point x="545.8775482177734" y="330.61224365234375" type="line"/>
      <point x="752.6767299428573" y="330.61224489795916"/>
      <point x="920.5714285714286" y="498.5069435265307"/>
      <point x="920.5714285714286" y="705.3061224489796" type="curve" smooth="yes"/>
      <point x="920.5714285714286" y="912.1053013714286"/>
      <point x="752.6767299428573" y="1080.0"/>
      <point x="545.8775510204082" y="1080.0" type="curve"/>
      <point x="84.85713958740234" y="1080" type="line"/>
    </contour>
    <contour>
      <point x="545.8775482177734" y="822.8571395874023" type="line"/>
      <point x="610.7557248" y="822.8571428571428"/>
      <point x="663.4285714285714" y="770.1842962285714"/>
      <point x="663.4285714285714" y="705.3061224489796" type="curve" smooth="yes"/>
      <point x="663.4285714285714" y="640.4279486693878"/>
      <point x="610.7557248" y="587.7551020408164"/>
      <point x="545.8775510204082" y="587.7551020408164" type="curve"/>
      <point x="342" y="587.7551040649414" type="line"/>
      <point x="342" y="822.8571395874023" type="line"/>
    </contour>
  </outline>
</glyph>
<glyph name="Q" format="2">
  <advance width="1234.591309820407"/>
  <unicode hex="0051"/>
  <outline>
    <contour>
      <point x="1244.0198822021484" y="0" type="line"/>
      <point x="1055.522689819336" y="209.34734344482422" type="line"/>
      <point x="1124.2028893771517" y="301.7229576187779"/>
      <point x="1164.8571400000003" y="416.15128621836"/>
      <point x="1164.85714" y="540.0" type="curve" smooth="yes"/>
      <point x="1164.85714" y="846.31284"/>
      <point x="916.16998" y="1095.0"/>
      <point x="609.85714" y="1095.0" type="curve" smooth="yes"/>
      <point x="303.54431" y="1095.0"/>
      <point x="54.85714" y="846.31284"/>
      <point x="54.85714" y="540.0" type="curve" smooth="yes"/>
      <point x="54.85714" y="233.68716"/>
      <point x="303.54431" y="-15.0"/>
      <point x="609.85714" y="-15.0" type="curve" smooth="yes"/>
      <point x="699.2514792256" y="-15.0"/>
      <point x="783.7378055400018" y="6.1808310484008935"/>
      <point x="858.5671691894531" y="43.79463195800781" type="curve"/>
      <point x="898.0000381469727" y="0" type="line"/>
    </contour>
    <contour>
      <point x="907.71429" y="540.0" type="curve" smooth="yes"/>
      <point x="907.71429" y="492.53547570776"/>
      <point x="896.5881060177309" y="447.6491054367393"/>
      <point x="876.8038024902344" y="407.83477783203125" type="curve"/>
      <point x="848.7423095703125" y="439.0002212524414" type="line"/>
      <point x="502.7224578857422" y="439.0002212524414" type="line"/>
      <point x="673.7639007568359" y="249.03945922851562" type="line"/>
      <point x="653.1745389720535" y="244.51884022905713"/>
      <point x="631.7911199177498" y="242.14286"/>
      <point x="609.8571399999998" y="242.14286" type="curve" smooth="yes"/>
      <point x="445.46531" y="242.14286"/>
      <point x="312.0" y="375.60817"/>
      <point x="312.0" y="540.0" type="curve" smooth="yes"/>
      <point x="312.0" y="704.39183"/>
      <point x="445.46531" y="837.85714"/>
      <point x="609.85714" y="837.85714" type="curve" smooth="yes"/>
      <point x="774.24897" y="837.85714"/>
      <point x="907.71429" y="704.39183"/>
    </contour>
  </outline>
</glyph>
<glyph name="R" format="2">
  <advance width="993.5727910507003"/>
  <unicode hex="0052"/>
  <outline>
    <contour>
      <point x="84.85713958740234" y="0" type="line"/>
      <point x="342" y="0" type="line"/>
      <point x="342" y="330.61224365234375" type="line"/>
      <point x="472.7702865600586" y="330.61224365234375" type="line"/>
      <point x="669.4938812255859" y="0" type="line"/>
      <point x="968.7156448364258" y="0" type="line"/>
      <point x="739.8036804199219" y="384.7077865600586" type="line"/>
      <point x="848.129409015343" y="450.4136540925015"/>
      <point x="920.5714285714286" y="569.4667729869063"/>
      <point x="920.5714285714284" y="705.3061224489796" type="curve" smooth="yes"/>
      <point x="920.5714285714286" y="912.1053013714286"/>
      <point x="752.6767299428573" y="1080.0"/>
      <point x="545.8775510204082" y="1080.0" type="curve"/>
      <point x="84.85713958740234" y="1080" type="line"/>
    </contour>
    <contour>
      <point x="545.8775482177734" y="822.8571395874023" type="line"/>
      <point x="610.7557248" y="822.8571428571428"/>
      <point x="663.4285714285714" y="770.1842962285714"/>
      <point x="663.4285714285714" y="705.3061224489796" type="curve" smooth="yes"/>
      <point x="663.4285714285714" y="640.4279486693878"/>
      <point x="610.7557248" y="587.7551020408164"/>
      <point x="545.8775510204082" y="587.7551020408164" type="curve"/>
      <point x="342" y="587.7551040649414" type="line"/>
      <point x="342" y="822.8571395874023" type="line"/>
    </contour>
  </outline>
</glyph>
<glyph name="S" format="2">
  <advance width="975.4285714285714"/>
  <unicode hex="0053"/>
  <outline>
    <contour>
      <point x="50.57142639160156" y="329.35713958740234" type="line"/>
      <point x="50.57142857142857" y="139.30126347000004"/>
      <point x="246.4485769714285" y="-14.99999999999995"/>
      <point x="487.7142857142856" y="-15.0" type="curve" smooth="yes"/>
      <point x="728.9799944571428" y="-15.000000000000048"/>
      <point x="924.8571428571428" y="139.3012634699999"/>
      <point x="924.8571428571428" y="329.3571428571427" type="curve"/>
      <point x="924.8571428571429" y="496.6135388412454"/>
      <point x="773.081501470566" y="635.6964807430109"/>
      <point x="572.3233533586775" y="667.2527160644531" type="curve"/>
      <point x="441.84153747558594" y="687.7625427246094" type="line"/>
      <point x="382.31411349606134" y="697.1193807191368"/>
      <point x="339.4285714285715" y="726.7748618095701"/>
      <point x="339.4285714285715" y="760.9285714285713" type="curve"/>
      <point x="339.4285714285714" y="803.3866054671429"/>
      <point x="405.8731727485714" y="837.8571428571428"/>
      <point x="487.71428571428567" y="837.8571428571428" type="curve" smooth="yes"/>
      <point x="569.55539868" y="837.8571428571428"/>
      <point x="636.0" y="803.3866054671429"/>
      <point x="636.0" y="760.9285714285713" type="curve"/>
      <point x="899.1428604125977" y="760.9285736083984" type="line"/>
      <point x="899.1428571428571" y="945.30761061"/>
      <point x="714.7878939428572" y="1095.0"/>
      <point x="487.71428571428567" y="1095.0" type="curve" smooth="yes"/>
      <point x="260.64067748571426" y="1095.0"/>
      <point x="76.28571428571428" y="945.30761061"/>
      <point x="76.28571428571428" y="760.9285714285713" type="curve"/>
      <point x="76.28571428571428" y="597.8543458455176"/>
      <point x="220.57022174050718" y="462.38020817209963"/>
      <point x="410.92973327636724" y="432.6775360107422" type="curve"/>
      <point x="542.2805252075195" y="412.18226623535156" type="line"/>
      <point x="611.7229699287204" y="401.3468416189403"/>
      <point x="661.7142857142858" y="367.9404696005122"/>
      <point x="661.7142857142858" y="329.35714285714283" type="curve"/>
      <point x="661.7142857142857" y="281.2222686128571"/>
      <point x="583.7474991942856" y="242.14285714285714"/>
      <point x="487.71428571428567" y="242.14285714285714" type="curve" smooth="yes"/>
      <point x="391.6810722342857" y="242.14285714285714"/>
      <point x="313.71428571428567" y="281.22226861285714"/>
      <point x="313.71428571428567" y="329.35714285714283" type="curve"/>
    </contour>
  </outline>
</glyph>
<glyph name="U" format="2">
  <advance width="1035.4285714285713"/>
  <unicode hex="0055"/>
  <outline>
    <contour>
      <point x="72" y="430.7142868041992" type="line"/>
      <point x="72.0" y="184.7178768"/>
      <point x="271.7178767999999" y="-15.0"/>
      <point x="517.7142857142856" y="-15.0" type="curve" smooth="yes"/>
      <point x="763.7106946285713" y="-15.0"/>
      <point x="963.4285714285713" y="184.71787679999986"/>
      <point x="963.4285714285713" y="430.7142857142856" type="curve"/>
      <point x="963.4285736083984" y="1080" type="line"/>
      <point x="706.2857131958008" y="1080" type="line"/>
      <point x="706.2857131958008" y="430.7142868041992" type="line"/>
      <point x="706.2857142857142" y="326.6388819428571"/>
      <point x="621.7896894857142" y="242.14285714285714"/>
      <point x="517.7142857142857" y="242.14285714285714" type="curve" smooth="yes"/>
      <point x="413.6388819428571" y="242.14285714285714"/>
      <point x="329.1428571428571" y="326.63888194285715"/>
      <point x="329.1428571428571" y="430.71428571428567" type="curve"/>
      <point x="329.14286041259766" y="1080" type="line"/>
      <point x="72" y="1080" type="line"/>
    </contour>
  </outline>
</glyph>
<glyph name="Z" format="2">
  <advance width="941.1428571428705"/>
  <unicode hex="005A"/>
  <outline>
    <contour>
      <point x="59.142860412597656" y="0" type="line"/>
      <point x="882" y="0" type="line"/>
      <point x="882" y="257.14286041259766" type="line"/>
      <point x="397.65614318847656" y="257.14286041259766" type="line"/>
      <point x="882" y="822.8571395874023" type="line"/>
      <point x="882" y="1080" type="line"/>
      <point x="59.142860412597656" y="1080" type="line"/>
      <point x="59.142860412597656" y="822.8571395874023" type="line"/>
      <point x="543.4867172241211" y="822.8571395874023" type="line"/>
      <point x="59.142860412597656" y="257.14286041259766" type="line"/>
    </contour>
  </outline>
</glyph>
<glyph name="backslash" format="2">
  <advance width="928.9057074085662"/>
  <unicode hex="005C"/>
  <outline>
    <contour>
      <point x="844.04856" y="-51.42857" type="line"/>
      <point x="319.93143" y="1388.57143" type="line"/>
      <point x="46.28571" y="1388.57143" type="line"/>
      <point x="570.40285" y="-51.42857" type="line"/>
    </contour>
  </outline>
</glyph>
<glyph name="underscore" format="2">
  <advance width="822.8571428571428"/>
  <unicode hex="005F"/>
  <outline>
    <contour>
      <point x="0.0" y="-180.0" type="line"/>
      <point x="822.8571428571428" y="-180.0" type="line"/>
      <point x="822.8571428571428" y="25.71428571428571" type="line"/>
      <point x="0.0" y="25.71428571428571" type="line"/>
    </contour>
  </outline>
</glyph>
<glyph name="grave" format="2">
  <advance width="546.2581166558718"/>
  <unicode hex="0060"/>
  <outline>
    <contour>
      <point x="461.400973798729" y="882.8571428571428" type="line"/>
      <point x="291.66914034239795" y="1182.857142857143" type="line"/>
      <point x="84.85714285714285" y="1182.857142857143" type="line"/>
      <point x="254.58897631347395" y="882.8571428571428" type="line"/>
    </contour>
  </outline>
</glyph>
<glyph name="b" format="2">
  <advance width="992.5714285714286"/>
  <unicode hex="0062"/>
  <outline>
    <contour>
      <point x="84.85713958740234" y="0" type="line"/>
      <point x="342" y="0" type="line"/>
      <point x="342" y="19.975448608398438" type="line"/>
      <point x="393.90519856719106" y="-2.5252259319857693"/>
      <point x="451.15013010471" y="-14.999999999999968"/>
      <point x="511.28571000000005" y="-14.999999999999957" type="curve" smooth="yes"/>
      <point x="746.63805" y="-15.0"/>
      <point x="937.71429" y="176.07624"/>
      <point x="937.71429" y="411.42857" type="curve" smooth="yes"/>
      <point x="937.71429" y="646.7809"/>
      <point x="746.63805" y="837.85714"/>
      <point x="511.28571" y="837.85714" type="curve" smooth="yes"/>
      <point x="451.15013010471" y="837.85714"/>
      <point x="393.905198567191" y="825.3823659319858"/>
      <point x="342" y="802.8749237060547" type="curve"/>
      <point x="342" y="1131.4285736083984" type="line"/>
      <point x="84.85713958740234" y="1131.4285736083984" type="line"/>
    </contour>
    <contour>
      <point x="680.57143" y="411.42857" type="curve" smooth="yes"/>
      <point x="680.57143" y="317.99724"/>
      <point x="604.71704" y="242.14286"/>
      <point x="511.28571" y="242.14286" type="curve" smooth="yes"/>
      <point x="417.85439" y="242.14286"/>
      <point x="342.0" y="317.99724"/>
      <point x="342.0" y="411.42857" type="curve" smooth="yes"/>
      <point x="342.0" y="504.8599"/>
      <point x="417.85439" y="580.71429"/>
      <point x="511.28571" y="580.71429" type="curve" smooth="yes"/>
      <point x="604.71704" y="580.71429"/>
      <point x="680.57143" y="504.8599"/>
    </contour>
  </outline>
</glyph>
<glyph name="c" format="2">
  <advance width="961.5713522774832"/>
  <unicode hex="0063"/>
  <outline>
    <contour>
      <point x="481.2857142857142" y="242.14285714285714" type="curve" smooth="yes"/>
      <point x="387.85438589999995" y="242.14285714285714"/>
      <point x="311.99999999999994" y="317.9972430428572"/>
      <point x="311.99999999999994" y="411.4285714285714" type="curve" smooth="yes"/>
      <point x="311.99999999999994" y="504.85989981428577"/>
      <point x="387.8543859" y="580.7142857142857"/>
      <point x="481.2857142857142" y="580.7142857142857" type="curve" smooth="yes"/>
      <point x="550.8056299543146" y="580.7142857142857"/>
      <point x="610.5941135014909" y="538.7176865845959"/>
      <point x="636.6434195382254" y="478.6944187709263" type="curve"/>
      <point x="902.4234270368304" y="478.6944187709263" type="line"/>
      <point x="870.1148013275606" y="682.1526069316265"/>
      <point x="693.740148580624" y="837.8571428571428"/>
      <point x="481.28571428571416" y="837.8571428571428" type="curve" smooth="yes"/>
      <point x="245.93338075714288" y="837.8571428571428"/>
      <point x="54.857142857142854" y="646.7809049571429"/>
      <point x="54.857142857142854" y="411.42857142857144" type="curve" smooth="yes"/>
      <point x="54.857142857142804" y="176.07623790000002"/>
      <point x="245.9333807571428" y="-14.99999999999995"/>
      <point x="481.28571428571416" y="-15.0" type="curve" smooth="yes"/>
      <point x="693.7512101402997" y="-15.000000000000043"/>
      <point x="870.1331673208475" y="140.72075003616854"/>
      <point x="902.4284951346261" y="344.1627240862165" type="curve"/>
      <point x="636.6571328299386" y="344.1627240862165" type="line"/>
      <point x="610.6150049233161" y="284.15413230605503"/>
      <point x="550.8177760270047" y="242.14285714285714"/>
    </contour>
  </outline>
</glyph>
<glyph name="f" format="2">
  <advance width="658.6153846153845"/>
  <unicode hex="0066"/>
  <outline>
    <contour>
      <point x="128.04395294189453" y="0" type="line"/>
      <point x="385.1868133544922" y="0" type="line"/>
      <point x="385.1868133544922" y="565.7142868041992" type="line"/>
      <point x="612.3296737670898" y="565.7142868041992" type="line"/>
      <point x="612.3296737670898" y="822.8571395874023" type="line"/>
      <point x="385.1868133544922" y="822.8571395874023" type="line"/>
      <point x="385.1868133544922" y="844.8979568481445" type="line"/>
      <point x="385.18681318681314" y="861.1175026285714"/>
      <point x="398.355024843956" y="874.2857142857142"/>
      <point x="414.574568288854" y="874.2857142857142" type="curve"/>
      <point x="612.3296737670898" y="874.2857131958008" type="line"/>
      <point x="612.3296737670898" y="1131.4285736083984" type="line"/>
      <point x="414.57456970214844" y="1131.4285736083984" type="line"/>
      <point x="256.4340197010989" y="1131.4285714285713"/>
      <point x="128.04395604395603" y="1003.0385077714287"/>
      <point x="128.04395604395603" y="844.8979591836735" type="curve"/>
      <point x="128.04395294189453" y="822.8571395874023" type="line"/>
      <point x="37.71428680419922" y="822.8571395874023" type="line"/>
      <point x="37.71428680419922" y="565.7142868041992" type="line"/>
      <point x="128.04395294189453" y="565.7142868041992" type="line"/>
    </contour>
  </outline>
</glyph>
<glyph name="h" format="2">
  <advance width="966.8571428571429"/>
  <unicode hex="0068"/>
  <outline>
    <contour>
      <point x="84.85713958740234" y="0" type="line"/>
      <point x="342" y="0" type="line"/>
      <point x="342" y="432.85713958740234" type="line"/>
      <point x="342.0" y="514.46172"/>
      <point x="408.25256" y="580.71429"/>
      <point x="489.85714" y="580.71429" type="curve" smooth="yes"/>
      <point x="571.46172" y="580.71429"/>
      <point x="637.71429" y="514.46172"/>
      <point x="637.71429" y="432.85714" type="curve"/>
      <point x="637.7142868041992" y="0" type="line"/>
      <point x="894.8571395874023" y="0" type="line"/>
      <point x="894.8571395874023" y="432.85713958740234" type="line"/>
      <point x="894.85714" y="656.38273"/>
      <point x="713.38273" y="837.85714"/>
      <point x="489.85714" y="837.85714" type="curve" smooth="yes"/>
      <point x="437.69029308844" y="837.85714"/>
      <point x="387.8138533494874" y="827.9727446513652"/>
      <point x="342" y="809.9756851196289" type="curve"/>
      <point x="342" y="1131.4285736083984" type="line"/>
      <point x="84.85713958740234" y="1131.4285736083984" type="line"/>
    </contour>
  </outline>
</glyph>
<glyph name="i" format="2">
  <advance width="440.9212827988338"/>
  <unicode hex="0069"/>
  <outline>
    <contour>
      <point x="398.2565597667638" y="1103.5102040816328" type="curve" smooth="yes"/>
      <point x="398.2565597667638" y="1201.6384419232652"/>
      <point x="318.58887924104954" y="1281.3061224489795"/>
      <point x="220.4606413994169" y="1281.3061224489795" type="curve" smooth="yes"/>
      <point x="122.33240355778425" y="1281.3061224489795"/>
      <point x="42.66472303206995" y="1201.6384419232652"/>
      <point x="42.66472303206995" y="1103.5102040816328" type="curve" smooth="yes"/>
      <point x="42.66472303206995" y="1005.38196624"/>
      <point x="122.3324035577842" y="925.7142857142857"/>
      <point x="220.46064139941686" y="925.7142857142857" type="curve" smooth="yes"/>
      <point x="318.58887924104954" y="925.7142857142857"/>
      <point x="398.2565597667638" y="1005.38196624"/>
    </contour>
    <contour>
      <point x="91.88921282798833" y="0.0" type="line"/>
      <point x="349.03206997084544" y="0.0" type="line"/>
      <point x="349.03206997084544" y="822.8571428571428" type="line"/>
      <point x="91.88921282798833" y="822.8571428571428" type="line"/>
    </contour>
  </outline>
</glyph>
<glyph name="j" format="2">
  <advance width="463.59183673469386"/>
  <unicode hex="006A"/>
  <outline>
    <contour>
      <point x="409.59183673469386" y="1103.5102040816328" type="curve" smooth="yes"/>
      <point x="409.59183673469386" y="1201.6384419232652"/>
      <point x="329.92415620897964" y="1281.3061224489795"/>
      <point x="231.79591836734696" y="1281.3061224489795" type="curve" smooth="yes"/>
      <point x="133.6676805257143" y="1281.3061224489795"/>
      <point x="54.00000000000002" y="1201.6384419232652"/>
      <point x="54.00000000000002" y="1103.5102040816328" type="curve" smooth="yes"/>
      <point x="54.00000000000002" y="1005.38196624"/>
      <point x="133.66768052571427" y="925.7142857142857"/>
      <point x="231.79591836734693" y="925.7142857142857" type="curve" smooth="yes"/>
      <point x="329.9241562089796" y="925.7142857142857"/>
      <point x="409.59183673469386" y="1005.38196624"/>
    </contour>
    <contour>
      <point x="-160.0408172607422" y="-437.14286041259766" type="line"/>
      <point x="-5.755104064941406" y="-437.14286041259766" type="line"/>
      <point x="196.31337671020412" y="-437.1428571428571"/>
      <point x="360.36734693877554" y="-273.0888869142857"/>
      <point x="360.36734693877554" y="-71.02040816326526" type="curve"/>
      <point x="360.36734771728516" y="822.8571395874023" type="line"/>
      <point x="103.2244873046875" y="822.8571395874023" type="line"/>
      <point x="103.2244873046875" y="-71.0204086303711" type="line"/>
      <point x="103.2244897959184" y="-131.16788177142857"/>
      <point x="54.392371567346984" y="-180.0"/>
      <point x="-5.755102040816297" y="-180.0" type="curve"/>
      <point x="-160.0408172607422" y="-180" type="line"/>
    </contour>
  </outline>
</glyph>
<glyph name="k" format="2">
  <advance width="949.7142857142469"/>
  <unicode hex="006B"/>
  <outline>
    <contour>
      <point x="84.85713958740234" y="0" type="line"/>
      <point x="342" y="0" type="line"/>
      <point x="342" y="282.85713958740234" type="line"/>
      <point x="574.7233963012695" y="0" type="line"/>
      <point x="907.7142868041992" y="0" type="line"/>
      <point x="569.20751953125" y="411.42857360839844" type="line"/>
      <point x="907.7142868041992" y="822.8571395874023" type="line"/>
      <point x="574.7233963012695" y="822.8571395874023" type="line"/>
      <point x="342" y="540" type="line"/>
      <point x="342" y="1131.4285736083984" type="line"/>
      <point x="84.85713958740234" y="1131.4285736083984" type="line"/>
    </contour>
  </outline>
</glyph>
<glyph name="l" format="2">
  <advance width="426.8571428571428"/>
  <unicode hex="006C"/>
  <outline>
    <contour>
      <point x="84.85714285714285" y="0.0" type="line"/>
      <point x="341.99999999999994" y="0.0" type="line"/>
      <point x="341.99999999999994" y="1131.4285714285713" type="line"/>
      <point x="84.85714285714285" y="1131.4285714285713" type="line"/>
    </contour>
  </outline>
</glyph>
<glyph name="m" format="2">
  <advance width="1416.857142857143"/>
  <unicode hex="006D"/>
  <outline>
    <contour>
      <point x="84.85713958740234" y="0" type="line"/>
      <point x="342" y="0" type="line"/>
      <point x="342" y="458.57142639160156" type="line"/>
      <point x="341.99999999999994" y="525.9839060142857"/>
      <point x="396.73037969999996" y="580.7142857142857"/>
      <point x="464.1428571428571" y="580.7142857142857" type="curve" smooth="yes"/>
      <point x="531.5553345857143" y="580.7142857142857"/>
      <point x="586.2857142857142" y="525.9839060142857"/>
      <point x="586.2857142857142" y="458.57142857142856" type="curve"/>
      <point x="586.2857131958008" y="0" type="line"/>
      <point x="843.4285736083984" y="0" type="line"/>
      <point x="843.4285736083984" y="458.57142639160156" type="line"/>
      <point x="843.4285714285714" y="525.9839060142857"/>
      <point x="898.1589511285714" y="580.7142857142857"/>
      <point x="965.5714285714286" y="580.7142857142857" type="curve" smooth="yes"/>
      <point x="1032.9839060142858" y="580.7142857142857"/>
      <point x="1087.7142857142856" y="525.9839060142857"/>
      <point x="1087.7142857142856" y="458.57142857142856" type="curve"/>
      <point x="1087.7142868041992" y="0" type="line"/>
      <point x="1344.8571395874023" y="0" type="line"/>
      <point x="1344.8571395874023" y="458.57142639160156" type="line"/>
      <point x="1344.857142857143" y="667.9049111571429"/>
      <point x="1174.9049111571428" y="837.8571428571428"/>
      <point x="965.5714285714286" y="837.8571428571428" type="curve" smooth="yes"/>
      <point x="869.4980360721976" y="837.8571428571428"/>
      <point x="781.7196812418464" y="802.0593931118931"/>
      <point x="714.8588714599609" y="743.07470703125" type="curve"/>
      <point x="647.9976646218688" y="802.0581451105076"/>
      <point x="560.2179243099488" y="837.8571428571428"/>
      <point x="464.14285714285705" y="837.8571428571427" type="curve" smooth="yes"/>
      <point x="421.41810268059544" y="837.8571428571428"/>
      <point x="380.33382942865506" y="830.777544406471"/>
      <point x="342" y="817.7255249023438" type="curve"/>
      <point x="342" y="822.8571395874023" type="line"/>
      <point x="84.85713958740234" y="822.8571395874023" type="line"/>
    </contour>
  </outline>
</glyph>
<glyph name="r" format="2">
  <advance width="696.8571428571429"/>
  <unicode hex="0072"/>
  <outline>
    <contour>
      <point x="84.85713958740234" y="0" type="line"/>
      <point x="342" y="0" type="line"/>
      <point x="342" y="334.2857131958008" type="line"/>
      <point x="341.99999999999994" y="462.0146189142857"/>
      <point x="445.69966679999993" y="565.7142857142857"/>
      <point x="573.4285714285714" y="565.7142857142857" type="curve"/>
      <point x="663.4285736083984" y="565.7142868041992" type="line"/>
      <point x="663.4285736083984" y="822.8571395874023" type="line"/>
      <point x="573.4285736083984" y="822.8571395874023" type="line"/>
      <point x="489.719801688678" y="822.8571428571428"/>
      <point x="410.8997213672636" y="801.759700341418"/>
      <point x="342" y="764.5938415527344" type="curve"/>
      <point x="342" y="822.8571395874023" type="line"/>
      <point x="84.85713958740234" y="822.8571395874023" type="line"/>
    </contour>
  </outline>
</glyph>
<glyph name="s" format="2">
  <advance width="885.4285714285713"/>
  <unicode hex="0073"/>
  <outline>
    <contour>
      <point x="59.142860412597656" y="256.82142639160156" type="line"/>
      <point x="59.14285714285714" y="99.7030491278572"/>
      <point x="231.0154530428571" y="-27.857142857142808"/>
      <point x="442.71428571428567" y="-27.857142857142854" type="curve" smooth="yes"/>
      <point x="654.4131183857141" y="-27.857142857142904"/>
      <point x="826.2857142857142" y="99.70304912785707"/>
      <point x="826.2857142857142" y="256.8214285714285" type="curve"/>
      <point x="826.2857142857142" y="399.13124363406394"/>
      <point x="685.0702326342777" y="515.3917903050007"/>
      <point x="501.4006347656249" y="538.1810171944754" type="curve"/>
      <point x="386.1302261352539" y="552.4834594726562" type="line"/>
      <point x="358.61556237697357" y="555.8974027523185"/>
      <point x="340.71428571428555" y="564.3848681569841"/>
      <point x="340.71428571428555" y="572.8928571428571" type="curve"/>
      <point x="340.71428571428567" y="586.4344863835714"/>
      <point x="386.4189536742857" y="597.4285714285714"/>
      <point x="442.71428571428567" y="597.4285714285714" type="curve" smooth="yes"/>
      <point x="499.0096177542857" y="597.4285714285714"/>
      <point x="544.7142857142857" y="586.4344863835714"/>
      <point x="544.7142857142857" y="572.8928571428571" type="curve"/>
      <point x="813.4285736083984" y="572.8928604125977" type="line"/>
      <point x="813.4285714285713" y="726.2266764492857"/>
      <point x="647.3170681285713" y="850.7142857142857"/>
      <point x="442.71428571428567" y="850.7142857142857" type="curve" smooth="yes"/>
      <point x="238.1115033" y="850.7142857142857"/>
      <point x="72.0" y="726.2266764492857"/>
      <point x="72.0" y="572.8928571428571" type="curve"/>
      <point x="72.0" y="434.11716397665805"/>
      <point x="208.25985962138236" y="320.5740968817758"/>
      <point x="385.5869881766182" y="298.3622523716518" type="curve"/>
      <point x="499.56957244873047" y="284.0848922729492" type="line"/>
      <point x="534.3513495822742" y="279.72815565383877"/>
      <point x="557.5714285714284" y="268.49583230041804"/>
      <point x="557.5714285714284" y="256.82142857142856" type="curve"/>
      <point x="557.5714285714286" y="239.49523919357136"/>
      <point x="506.1056680114285" y="225.42857142857142"/>
      <point x="442.71428571428567" y="225.42857142857142" type="curve" smooth="yes"/>
      <point x="379.3229034171428" y="225.42857142857142"/>
      <point x="327.8571428571429" y="239.49523919357142"/>
      <point x="327.8571428571429" y="256.82142857142856" type="curve"/>
    </contour>
  </outline>
</glyph>
<glyph name="t" format="2">
  <advance width="706.5"/>
  <unicode hex="0074"/>
  <outline>
    <contour>
      <point x="174.7040786743164" y="350.2040786743164" type="line"/>
      <point x="174.7040816326531" y="156.92118891428575"/>
      <point x="331.62527054693874" y="0.0"/>
      <point x="524.908163265306" y="0.0" type="curve"/>
      <point x="651.6428604125977" y="0" type="line"/>
      <point x="651.6428604125977" y="257.14286041259766" type="line"/>
      <point x="524.9081649780273" y="257.14286041259766" type="line"/>
      <point x="473.54627568979595" y="257.1428571428571"/>
      <point x="431.84693877551024" y="298.8421940571428"/>
      <point x="431.84693877551024" y="350.204081632653" type="curve"/>
      <point x="431.84693908691406" y="565.7142868041992" type="line"/>
      <point x="651.6428604125977" y="565.7142868041992" type="line"/>
      <point x="651.6428604125977" y="822.8571395874023" type="line"/>
      <point x="431.84693908691406" y="822.8571395874023" type="line"/>
      <point x="431.84693908691406" y="982.0408172607422" type="line"/>
      <point x="174.7040786743164" y="982.0408172607422" type="line"/>
      <point x="174.7040786743164" y="822.8571395874023" type="line"/>
      <point x="42" y="822.8571395874023" type="line"/>
      <point x="42" y="565.7142868041992" type="line"/>
      <point x="174.7040786743164" y="565.7142868041992" type="line"/>
    </contour>
  </outline>
</glyph>
<glyph name="v" format="2">
  <advance width="992.5714285713603"/>
  <unicode hex="0076"/>
  <outline>
    <contour>
      <point x="358.06974029541016" y="0" type="line"/>
      <point x="634.5016937255859" y="0" type="line"/>
      <point x="959.1428604125977" y="822.8571395874023" type="line"/>
      <point x="682.7108993530273" y="822.8571395874023" type="line"/>
      <point x="496.2857131958008" y="350.33142852783203" type="line"/>
      <point x="309.8605270385742" y="822.8571395874023" type="line"/>
      <point x="33.42857360839844" y="822.8571395874023" type="line"/>
    </contour>
  </outline>
</glyph>
<glyph name="w" format="2">
  <advance width="1403.9999999999511"/>
  <unicode hex="0077"/>
  <outline>
    <contour>
      <point x="306.7142868041992" y="0" type="line"/>
      <point x="576.4285736083984" y="0" type="line"/>
      <point x="702" y="396.75887298583984" type="line"/>
      <point x="827.5714263916016" y="0" type="line"/>
      <point x="1097.2857131958008" y="0" type="line"/>
      <point x="1357.7142868041992" y="822.8571395874023" type="line"/>
      <point x="1088.0000076293945" y="822.8571395874023" type="line"/>
      <point x="962.4285736083984" y="426.09825897216797" type="line"/>
      <point x="836.8571395874023" y="822.8571395874023" type="line"/>
      <point x="567.1428604125977" y="822.8571395874023" type="line"/>
      <point x="441.57142639160156" y="426.09825897216797" type="line"/>
      <point x="315.99999237060547" y="822.8571395874023" type="line"/>
      <point x="46.28571319580078" y="822.8571395874023" type="line"/>
    </contour>
  </outline>
</glyph>
<glyph name="x" format="2">
  <advance width="966.8571428572191"/>
  <unicode hex="0078"/>
  <outline>
    <contour>
      <point x="46.28571319580078" y="0" type="line"/>
      <point x="357.81388092041016" y="0" type="line"/>
      <point x="483.42857360839844" y="183.67224884033203" type="line"/>
      <point x="609.0432586669922" y="0" type="line"/>
      <point x="920.5714263916016" y="0" type="line"/>
      <point x="639.1926574707031" y="411.42857360839844" type="line"/>
      <point x="920.5714263916016" y="822.8571395874023" type="line"/>
      <point x="609.0432586669922" y="822.8571395874023" type="line"/>
      <point x="483.42857360839844" y="639.1848907470703" type="line"/>
      <point x="357.81388092041016" y="822.8571395874023" type="line"/>
      <point x="46.28571319580078" y="822.8571395874023" type="line"/>
      <point x="327.66448974609375" y="411.42857360839844" type="line"/>
    </contour>
  </outline>
</glyph>
<glyph name="z" format="2">
  <advance width="889.7142857143192"/>
  <unicode hex="007A"/>
  <outline>
    <contour>
      <point x="72" y="0" type="line"/>
      <point x="817.7142868041992" y="0" type="line"/>
      <point x="817.7142868041992" y="257.14286041259766" type="line"/>
      <point x="463.4847717285156" y="257.14286041259766" type="line"/>
      <point x="817.7142868041992" y="565.7142868041992" type="line"/>
      <point x="817.7142868041992" y="822.8571395874023" type="line"/>
      <point x="72" y="822.8571395874023" type="line"/>
      <point x="72" y="565.7142868041992" type="line"/>
      <point x="426.2295150756836" y="565.7142868041992" type="line"/>
      <point x="72" y="257.14286041259766" type="line"/>
    </contour>
  </outline>
</glyph>
<glyph name="braceleft" format="2">
  <advance width="636.8571428571428"/>
  <unicode hex="007B"/>
  <outline>
    <contour>
      <point x="204.85713958740234" y="51.42857360839844" type="line"/>
      <point x="204.85714285714283" y="-118.87663474285709"/>
      <point x="343.1233652571428" y="-257.1428571428571"/>
      <point x="513.4285714285714" y="-257.1428571428571" type="curve"/>
      <point x="616.2857131958008" y="-257.14286041259766" type="line"/>
      <point x="616.2857131958008" y="0" type="line"/>
      <point x="513.4285736083984" y="0" type="line"/>
      <point x="485.04437039999993" y="6.090366306515144e-15"/>
      <point x="461.99999999999994" y="23.0443704"/>
      <point x="461.99999999999994" y="51.42857142857143" type="curve"/>
      <point x="462" y="385.7142868041992" type="line"/>
      <point x="461.99999999999994" y="452.8703970534528"/>
      <point x="440.5003529833739" y="515.0446203370949"/>
      <point x="404.01441955566406" y="565.7216796875" type="curve"/>
      <point x="440.5003529833739" y="616.3839510914764"/>
      <point x="461.99999999999994" y="678.5581743751185"/>
      <point x="461.99999999999994" y="745.7142857142857" type="curve"/>
      <point x="462" y="1080" type="line"/>
      <point x="461.99999999999994" y="1108.3842010285714"/>
      <point x="485.04437039999993" y="1131.4285714285713"/>
      <point x="513.4285714285714" y="1131.4285714285713" type="curve"/>
      <point x="616.2857131958008" y="1131.4285736083984" type="line"/>
      <point x="616.2857131958008" y="1388.5714263916016" type="line"/>
      <point x="513.4285736083984" y="1388.5714263916016" type="line"/>
      <point x="343.12336525714284" y="1388.5714285714284"/>
      <point x="204.85714285714283" y="1250.3052061714286"/>
      <point x="204.85714285714283" y="1080.0" type="curve"/>
      <point x="204.85713958740234" y="745.7142868041992" type="line"/>
      <point x="204.85714285714283" y="717.3300846857143"/>
      <point x="181.81277245714284" y="694.2857142857142"/>
      <point x="153.42857142857142" y="694.2857142857142" type="curve"/>
      <point x="50.57142639160156" y="694.2857131958008" type="line"/>
      <point x="50.57142639160156" y="437.14286041259766" type="line"/>
      <point x="153.42857360839844" y="437.14286041259766" type="line"/>
      <point x="181.81277245714284" y="437.1428571428571"/>
      <point x="204.85714285714283" y="414.0984867428571"/>
      <point x="204.85714285714283" y="385.71428571428567" type="curve"/>
    </contour>
  </outline>
</glyph>
<glyph name="bar" format="2">
  <advance width="512.5714285714286"/>
  <unicode hex="007C"/>
  <outline>
    <contour>
      <point x="127.71428571428571" y="-257.1428571428571" type="line"/>
      <point x="384.85714285714283" y="-257.1428571428571" type="line"/>
      <point x="384.85714285714283" y="1388.5714285714284" type="line"/>
      <point x="127.71428571428571" y="1388.5714285714284" type="line"/>
    </contour>
  </outline>
</glyph>
<glyph name="braceright" format="2">
  <advance width="636.8571428571428"/>
  <unicode hex="007D"/>
  <outline>
    <contour>
      <point x="123.42857360839844" y="-257.14286041259766" type="line"/>
      <point x="293.7337776" y="-257.1428571428571"/>
      <point x="431.99999999999994" y="-118.87663474285714"/>
      <point x="431.99999999999994" y="51.42857142857142" type="curve"/>
      <point x="432" y="385.7142868041992" type="line"/>
      <point x="431.99999999999994" y="414.0984867428571"/>
      <point x="455.04437039999993" y="437.1428571428571"/>
      <point x="483.4285714285714" y="437.1428571428571" type="curve"/>
      <point x="586.2857131958008" y="437.14286041259766" type="line"/>
      <point x="586.2857131958008" y="694.2857131958008" type="line"/>
      <point x="483.42857360839844" y="694.2857131958008" type="line"/>
      <point x="455.04437039999993" y="694.2857142857142"/>
      <point x="431.99999999999994" y="717.3300846857143"/>
      <point x="431.99999999999994" y="745.7142857142857" type="curve"/>
      <point x="432" y="1080" type="line"/>
      <point x="431.99999999999994" y="1250.3052061714286"/>
      <point x="293.7337776" y="1388.5714285714284"/>
      <point x="123.42857142857142" y="1388.5714285714284" type="curve"/>
      <point x="20.571426391601562" y="1388.5714263916016" type="line"/>
      <point x="20.571426391601562" y="1131.4285736083984" type="line"/>
      <point x="123.42857360839844" y="1131.4285736083984" type="line"/>
      <point x="151.81277245714284" y="1131.4285714285713"/>
      <point x="174.85714285714283" y="1108.3842010285714"/>
      <point x="174.85714285714283" y="1080.0" type="curve"/>
      <point x="174.85713958740234" y="745.7142868041992" type="line"/>
      <point x="174.85714285714283" y="678.5581743751186"/>
      <point x="196.3567898737689" y="616.3839510914765"/>
      <point x="232.84272003173828" y="565.7068862915039" type="curve"/>
      <point x="196.35678987376892" y="515.0446203370949"/>
      <point x="174.85714285714286" y="452.87039705345285"/>
      <point x="174.85714285714286" y="385.71428571428567" type="curve"/>
      <point x="174.85713958740234" y="51.42857360839844" type="line"/>
      <point x="174.85714285714283" y="23.04437040000003"/>
      <point x="151.81277245714284" y="0.0"/>
      <point x="123.42857142857142" y="0.0" type="curve"/>
      <point x="20.571426391601562" y="0" type="line"/>
      <point x="20.571426391601562" y="-257.14286041259766" type="line"/>
    </contour>
  </outline>
</glyph>
<glyph name="tilde" format="2">
  <advance width="1053.2501453949653"/>
  <unicode hex="007E"/>
  <outline>
    <contour>
      <point x="486.2501449584961" y="371.99183654785156" type="line"/>
      <point x="535.1134628445459" y="343.78058501484554"/>
      <point x="590.5419321432245" y="328.9285714285714"/>
      <point x="646.9644311092512" y="328.9285714285714" type="curve"/>
      <point x="824.3656875378226" y="328.9285714285714"/>
      <point x="968.3930025378226" y="472.9558864285714"/>
      <point x="968.3930025378226" y="650.3571428571428" type="curve"/>
      <point x="711.2501449584961" y="650.3571395874023" type="line"/>
      <point x="711.2501453949654" y="614.8768915714286"/>
      <point x="682.4446823949654" y="586.0714285714286"/>
      <point x="646.9644311092512" y="586.0714285714286" type="curve"/>
      <point x="635.6799313160458" y="586.0714285714286"/>
      <point x="624.5942374563101" y="589.0418312886834"/>
      <point x="614.821573966394" y="594.684081185286" type="curve"/>
      <point x="567" y="622.2938766479492" type="line"/>
      <point x="518.1366825504197" y="650.5051292708686"/>
      <point x="462.7082132517411" y="665.3571428571428"/>
      <point x="406.2857142857143" y="665.3571428571428" type="curve"/>
      <point x="228.88445785714282" y="665.3571428571428"/>
      <point x="84.85714285714285" y="521.3298278571428"/>
      <point x="84.85714285714285" y="343.9285714285714" type="curve"/>
      <point x="342" y="343.92857360839844" type="line"/>
      <point x="341.99999999999994" y="379.4088227142857"/>
      <point x="370.805463" y="408.21428571428567"/>
      <point x="406.2857142857142" y="408.21428571428567" type="curve"/>
      <point x="417.5702140789196" y="408.21428571428567"/>
      <point x="428.65590793865533" y="405.2438829970309"/>
      <point x="438.4285714285714" y="399.60163310042816" type="curve"/>
    </contour>
  </outline>
</glyph>
<glyph name="invertedexclam" format="2">
  <advance width="488.5714285714285"/>
  <unicode hex="00A1"/>
  <outline>
    <contour>
      <point x="84.85714285714285" y="678.4285714285714" type="curve" smooth="yes"/>
      <point x="84.85714285714285" y="590.43754824"/>
      <point x="156.2946910971428" y="519.0"/>
      <point x="244.28571428571425" y="519.0" type="curve" smooth="yes"/>
      <point x="332.2767374742857" y="519.0"/>
      <point x="403.71428571428567" y="590.43754824"/>
      <point x="403.71428571428567" y="678.4285714285714" type="curve" smooth="yes"/>
      <point x="403.71428571428567" y="766.4195946171427"/>
      <point x="332.27673747428577" y="837.8571428571428"/>
      <point x="244.28571428571433" y="837.8571428571428" type="curve" smooth="yes"/>
      <point x="156.2946910971429" y="837.8571428571428"/>
      <point x="84.85714285714285" y="766.4195946171427"/>
    </contour>
    <contour>
      <point x="372.8571428571428" y="467.57142857142856" type="line"/>
      <point x="115.71428571428568" y="467.57142857142856" type="line"/>
      <point x="115.71428571428558" y="-272.1428571428571" type="line"/>
      <point x="372.85714285714266" y="-272.1428571428571" type="line"/>
    </contour>
  </outline>
</glyph>
<glyph name="cent" format="2">
  <advance width="961.5713522774832"/>
  <unicode hex="00A2"/>
  <outline>
    <contour>
      <point x="378.42857360839844" y="0" type="line"/>
      <point x="584.1428604125977" y="0" type="line"/>
      <point x="584.1428604125977" y="100.36810302734375" type="line"/>
      <point x="748.6102304589931" y="141.16210458080522"/>
      <point x="875.5228699890334" y="277.5299170585758"/>
      <point x="902.4284951346261" y="447.0198669433594" type="curve"/>
      <point x="636.6571350097656" y="447.0198669433594" type="line"/>
      <point x="625.1002614760492" y="420.3894941175264"/>
      <point x="606.8957571344088" y="397.30346132108565"/>
      <point x="584.1428604125977" y="379.88558197021484" type="curve"/>
      <point x="584.1428604125977" y="648.6822967529297" type="line"/>
      <point x="606.8867667429347" y="631.2651197593553"/>
      <point x="625.0858894851531" y="608.1826250683702"/>
      <point x="636.6434195382254" y="581.5515616280691" type="curve"/>
      <point x="902.4234237670898" y="581.5515594482422" type="line"/>
      <point x="875.5070140325606" y="751.0531885593128"/>
      <point x="748.6000466226471" y="887.4108865569025"/>
      <point x="584.1428604125977" y="928.1963882446289" type="curve"/>
      <point x="584.1428604125977" y="1028.5714263916016" type="line"/>
      <point x="378.42857360839844" y="1028.5714263916016" type="line"/>
      <point x="378.42857360839844" y="928.2042541503906" type="line"/>
      <point x="192.69574501135318" y="882.1345910987178"/>
      <point x="54.85714285714286" y="714.1801005972046"/>
      <point x="54.857142857142804" y="514.2857142857142" type="curve" smooth="yes"/>
      <point x="54.85714285714281" y="314.3913279742238"/>
      <point x="192.6957450113531" y="146.43683747271072"/>
      <point x="378.42857360839844" y="100.37271881103516" type="curve"/>
    </contour>
    <contour>
      <point x="311.99999999999994" y="514.2857142857142" type="curve" smooth="yes"/>
      <point x="311.99999999999994" y="569.0416114428041"/>
      <point x="338.052982503691" y="617.7605237951866"/>
      <point x="378.42857360839844" y="648.6886978149414" type="curve"/>
      <point x="378.42857360839844" y="379.87811279296875" type="line"/>
      <point x="338.052982503691" y="410.81090477624196"/>
      <point x="311.99999999999994" y="459.5298171286245"/>
    </contour>
  </outline>
</glyph>
<glyph name="pound" format="2">
  <advance width="979.7142857142857"/>
  <unicode hex="00A3"/>
  <outline>
    <contour>
      <point x="72" y="0" type="line"/>
      <point x="894.8571395874023" y="0" type="line"/>
      <point x="894.8571395874023" y="257.14286041259766" type="line"/>
      <point x="432" y="257.14286041259766" type="line"/>
      <point x="432" y="406.07142639160156" type="line"/>
      <point x="740.5714263916016" y="406.07142639160156" type="line"/>
      <point x="740.5714263916016" y="611.7857131958008" type="line"/>
      <point x="432" y="611.7857131958008" type="line"/>
      <point x="432" y="735" type="line"/>
      <point x="432.0" y="791.7684"/>
      <point x="478.08874" y="837.85714"/>
      <point x="534.85714" y="837.85714" type="curve" smooth="yes"/>
      <point x="591.62554" y="837.85714"/>
      <point x="637.71429" y="791.7684"/>
      <point x="637.71429" y="735.0" type="curve"/>
      <point x="894.8571395874023" y="735" type="line"/>
      <point x="894.85714" y="933.68941"/>
      <point x="733.54655" y="1095.0"/>
      <point x="534.85714" y="1095.0" type="curve" smooth="yes"/>
      <point x="336.16774" y="1095.0"/>
      <point x="174.85714" y="933.68941"/>
      <point x="174.85714" y="735.0" type="curve"/>
      <point x="174.85713958740234" y="611.7857131958008" type="line"/>
      <point x="72" y="611.7857131958008" type="line"/>
      <point x="72" y="406.07142639160156" type="line"/>
      <point x="174.85713958740234" y="406.07142639160156" type="line"/>
      <point x="174.85713958740234" y="257.14286041259766" type="line"/>
      <point x="72" y="257.14286041259766" type="line"/>
    </contour>
  </outline>
</glyph>
<glyph name="currency" format="2">
  <advance width="1160.8523486071867"/>
  <unicode hex="00A4"/>
  <outline>
    <contour>
      <point x="951.1404599999998" y="540.0" type="curve" smooth="yes"/>
      <point x="951.14046" y="595.32070425918"/>
      <point x="938.9967317570785" y="647.827470154039"/>
      <point x="917.2318267822266" y="694.9781951904297" type="curve"/>
      <point x="1127.4237823486328" y="905.1701431274414" type="line"/>
      <point x="945.596321105957" y="1086.9975967407227" type="line"/>
      <point x="735.4083023071289" y="876.8095932006836" type="line"/>
      <point x="688.2419923363079" y="898.5732556802905"/>
      <point x="635.7407388792899" y="910.71429"/>
      <point x="580.42617" y="910.7142899999999" type="curve" smooth="yes"/>
      <point x="525.1130360436799" y="910.71429"/>
      <point x="472.61307109443686" y="898.5738843899308"/>
      <point x="425.4479751586914" y="876.8056564331055" type="curve"/>
      <point x="215.2560272216797" y="1086.9975967407227" type="line"/>
      <point x="33.42857360839844" y="905.1701431274414" type="line"/>
      <point x="243.61658477783203" y="694.9821319580078" type="line"/>
      <point x="221.85418105685463" y="647.8212558890835"/>
      <point x="209.71189000000004" y="595.3174306147"/>
      <point x="209.7118900000001" y="540.0" type="curve" smooth="yes"/>
      <point x="209.71189" y="484.67929574082"/>
      <point x="221.85561824292145" y="432.17252984596104"/>
      <point x="243.62052154541016" y="385.0218048095703" type="curve"/>
      <point x="33.42857360839844" y="174.8298568725586" type="line"/>
      <point x="215.2560272216797" y="-6.997596740722656" type="line"/>
      <point x="425.4440460205078" y="203.1904067993164" type="line"/>
      <point x="472.6103523398153" y="181.42674431970954"/>
      <point x="525.1116038242199" y="169.28571"/>
      <point x="580.4261699999998" y="169.28571" type="curve" smooth="yes"/>
      <point x="635.7393066597599" y="169.28571"/>
      <point x="688.2392735815843" y="181.42611561006925"/>
      <point x="735.4043731689453" y="203.19434356689453" type="curve"/>
      <point x="945.596321105957" y="-6.997596740722656" type="line"/>
      <point x="1127.4237823486328" y="174.8298568725586" type="line"/>
      <point x="917.2357635498047" y="385.0178680419922" type="line"/>
      <point x="938.9981689431454" y="432.17874411091645"/>
      <point x="951.14046" y="484.6825693853"/>
    </contour>
    <contour>
      <point x="693.9976" y="540.0" type="curve" smooth="yes"/>
      <point x="693.9976" y="477.31822"/>
      <point x="643.10795" y="426.42857"/>
      <point x="580.42617" y="426.42857" type="curve" smooth="yes"/>
      <point x="517.7444" y="426.42857"/>
      <point x="466.85475" y="477.31822"/>
      <point x="466.85475" y="540.0" type="curve" smooth="yes"/>
      <point x="466.85475" y="602.68178"/>
      <point x="517.7444" y="653.57143"/>
      <point x="580.42617" y="653.57143" type="curve" smooth="yes"/>
      <point x="643.10795" y="653.57143"/>
      <point x="693.9976" y="602.68178"/>
    </contour>
  </outline>
</glyph>
<glyph name="yen" format="2">
  <advance width="1031.142857142857"/>
  <unicode hex="00A5"/>
  <outline>
    <contour>
      <point x="104.14286041259766" y="164.57142639160156" type="line"/>
      <point x="387" y="164.57142639160156" type="line"/>
      <point x="387" y="0" type="line"/>
      <point x="644.1428604125977" y="0" type="line"/>
      <point x="644.1428604125977" y="164.57142639160156" type="line"/>
      <point x="927" y="164.57142639160156" type="line"/>
      <point x="927" y="370.2857131958008" type="line"/>
      <point x="644.1428604125977" y="370.2857131958008" type="line"/>
      <point x="644.1428604125977" y="411.42857360839844" type="line"/>
      <point x="927" y="411.42857360839844" type="line"/>
      <point x="927" y="617.1428604125977" type="line"/>
      <point x="756.8901138305664" y="617.1428604125977" type="line"/>
      <point x="1010.5714263916016" y="1080" type="line"/>
      <point x="717.3396835327148" y="1080" type="line"/>
      <point x="515.5714263916016" y="711.8614349365234" type="line"/>
      <point x="313.8031768798828" y="1080" type="line"/>
      <point x="20.571426391601562" y="1080" type="line"/>
      <point x="274.25274658203125" y="617.1428604125977" type="line"/>
      <point x="104.14286041259766" y="617.1428604125977" type="line"/>
      <point x="104.14286041259766" y="411.42857360839844" type="line"/>
      <point x="387" y="411.42857360839844" type="line"/>
      <point x="387" y="370.2857131958008" type="line"/>
      <point x="104.14286041259766" y="370.2857131958008" type="line"/>
    </contour>
  </outline>
</glyph>
<glyph name="brokenbar" format="2">
  <advance width="512.5714285714286"/>
  <unicode hex="00A6"/>
  <outline>
    <contour>
      <point x="127.71428571428571" y="642.8571428571428" type="line"/>
      <point x="384.85714285714283" y="642.8571428571428" type="line"/>
      <point x="384.85714285714283" y="1388.5714285714284" type="line"/>
      <point x="127.71428571428571" y="1388.5714285714284" type="line"/>
    </contour>
    <contour>
      <point x="127.71428571428571" y="-257.1428571428571" type="line"/>
      <point x="384.85714285714283" y="-257.1428571428571" type="line"/>
      <point x="384.85714285714283" y="488.57142857142856" type="line"/>
      <point x="127.71428571428571" y="488.57142857142856" type="line"/>
    </contour>
  </outline>
</glyph>
<glyph name="section" format="2">
  <advance width="802.2857142857142"/>
  <unicode hex="00A7"/>
  <outline>
    <contour>
      <point x="401.14286" y="488.14286" type="curve" smooth="yes"/>
      <point x="384.42537231128" y="488.14286"/>
      <point x="369.03097035620476" y="490.521968763364"/>
      <point x="356.80516052246094" y="494.55321502685547" type="curve"/>
      <point x="351.4074020385742" y="496.50318908691406" type="line"/>
      <point x="350.49596405029297" y="496.85640716552734" type="line"/>
      <point x="346.5991194310461" y="498.44912687063055"/>
      <point x="343.1400408652526" y="500.23842142475763"/>
      <point x="340.20050048828125" y="502.2086868286133" type="curve"/>
      <point x="339.0884246826172" y="502.99976348876953" type="line"/>
      <point x="336.28147888183594" y="505.18677520751953" type="line"/>
      <point x="335.17115020751953" y="506.19242095947266" type="line"/>
      <point x="333.0497131347656" y="508.4927520751953" type="line"/>
      <point x="332.27020263671875" y="509.43689727783203" type="line"/>
      <point x="330.2890396118164" y="512.7981262207031" type="line"/>
      <point x="330.2179412841797" y="513.0279769897461" type="line"/>
      <point x="329.3062438964844" y="516.3715362548828" type="line"/>
      <point x="329.14286041259766" y="518.1428604125977" type="line"/>
      <point x="329.14286" y="534.70031"/>
      <point x="361.40498" y="548.14286"/>
      <point x="401.14286" y="548.14286" type="curve" smooth="yes"/>
      <point x="418.03010791208" y="548.14286"/>
      <point x="433.567262714982" y="545.7151878804054"/>
      <point x="445.8520278930664" y="541.6143035888672" type="curve"/>
      <point x="451.48619079589844" y="539.5469589233398" type="line"/>
      <point x="452.075439453125" y="539.318603515625" type="line"/>
      <point x="457.67457580566406" y="536.6965789794922" type="line"/>
      <point x="458.274169921875" y="536.3522109985352" type="line"/>
      <point x="462.2743606567383" y="533.9424819946289" type="line"/>
      <point x="463.5088653564453" y="533.064323425293" type="line"/>
      <point x="466.20574951171875" y="530.9164352416992" type="line"/>
      <point x="467.3023223876953" y="529.9232482910156" type="line"/>
      <point x="469.53089904785156" y="527.435791015625" type="line"/>
      <point x="470.1498718261719" y="526.6860885620117" type="line"/>
      <point x="472.0497360229492" y="523.316047668457" type="line"/>
      <point x="472.2993621826172" y="522.5090484619141" type="line"/>
      <point x="473.00299072265625" y="519.6592178344727" type="line"/>
      <point x="473.14286041259766" y="518.1428604125977" type="line"/>
      <point x="473.14286" y="501.58541"/>
      <point x="440.88074" y="488.14286"/>
    </contour>
    <contour>
      <point x="78.85713958740234" y="201" type="line"/>
      <point x="78.85714" y="57.65978"/>
      <point x="223.26853" y="-58.71429"/>
      <point x="401.14286" y="-58.71429" type="curve" smooth="yes"/>
      <point x="579.01718" y="-58.71429"/>
      <point x="723.42857" y="57.65978"/>
      <point x="723.42857" y="201.0" type="curve"/>
      <point x="723.42857" y="255.69535347645"/>
      <point x="702.4077508534585" y="306.4820707216714"/>
      <point x="666.5216598510742" y="348.3534622192383" type="curve"/>
      <point x="706.6001742895148" y="395.91170136068945"/>
      <point x="730.2857099999999" y="454.6332510688401"/>
      <point x="730.2857099999999" y="518.14286" type="curve"/>
      <point x="730.28571" y="519.9048234071"/>
      <point x="730.2674795176771" y="521.6631015017454"/>
      <point x="730.2311706542969" y="523.3910751342773" type="curve"/>
      <point x="730.28571" y="520.6306670861301"/>
      <point x="730.2493691197708" y="523.1111400222978"/>
      <point x="730.1771240234375" y="525.1598587036133" type="curve"/>
      <point x="730.1472985320855" y="526.6043805951232"/>
      <point x="730.1113451143419" y="527.6240951216538"/>
      <point x="730.0692977905273" y="528.6165466308594" type="curve"/>
      <point x="730.0369221729682" y="529.4273202919242"/>
      <point x="730.0009385846698" y="530.210664882926"/>
      <point x="729.9613494873047" y="530.7352981567383" type="curve"/>
      <point x="729.9132376353259" y="531.9438025133264"/>
      <point x="729.8597974576619" y="532.8939795497813"/>
      <point x="729.8010635375977" y="533.8173980712891" type="curve"/>
      <point x="729.7508603130075" y="534.6550902185921"/>
      <point x="729.6967796208481" y="535.4655690821082"/>
      <point x="729.6388397216797" y="536.0909118652344" type="curve"/>
      <point x="729.5732822190092" y="537.1902256686834"/>
      <point x="729.5027993470834" y="538.1050294625674"/>
      <point x="729.4274215698242" y="538.993537902832" type="curve"/>
      <point x="729.3591455829543" y="539.8472109269514"/>
      <point x="729.2868327368941" y="540.673826476876"/>
      <point x="729.2105255126953" y="541.3563385009766" type="curve"/>
      <point x="729.1281478938117" y="542.3889179446857"/>
      <point x="729.041107810098" y="543.278753570565"/>
      <point x="728.9494094848633" y="544.1431045532227" type="curve"/>
      <point x="728.8627202469515" y="545.0094328286531"/>
      <point x="728.7718546322466" y="545.8488518928137"/>
      <point x="728.6768569946289" y="546.5707168579102" type="curve"/>
      <point x="728.5783673092044" y="547.5543561859283"/>
      <point x="728.4754337452238" y="548.422225451069"/>
      <point x="728.368049621582" y="549.2652816772461" type="curve"/>
      <point x="728.2626457166713" y="550.142136646561"/>
      <point x="728.1529985532615" y="550.991811549635"/>
      <point x="728.0390853881836" y="551.742431640625" type="curve"/>
      <point x="727.9250631877916" y="552.6876769294536"/>
      <point x="727.8067690653776" y="553.5360831882324"/>
      <point x="727.6842422485352" y="554.3599624633789" type="curve"/>
      <point x="727.559944950267" y="555.2453112783029"/>
      <point x="727.4312602813987" y="556.1038388799232"/>
      <point x="727.2982406616211" y="556.876594543457" type="curve"/>
      <point x="727.1692957718975" y="557.7893715106997"/>
      <point x="727.0362591956807" y="558.619259489192"/>
      <point x="726.8991317749023" y="559.425422668457" type="curve"/>
      <point x="726.7555561324809" y="560.3190557673763"/>
      <point x="726.6075010543544" y="561.1859077282202"/>
      <point x="726.4550170898438" y="561.9772644042969" type="curve"/>
      <point x="726.3117797343052" y="562.8612761566835"/>
      <point x="726.1646577503931" y="563.6729730551135"/>
      <point x="726.0136260986328" y="564.4614334106445" type="curve"/>
      <point x="725.8504820464807" y="565.3627142003004"/>
      <point x="725.6827928909183" y="566.2371148103064"/>
      <point x="725.5105438232422" y="567.0443496704102" type="curve"/>
      <point x="725.3537184792169" y="567.9016992869471"/>
      <point x="725.1931449546013" y="568.6955345224828"/>
      <point x="725.0288543701172" y="569.466552734375" type="curve"/>
      <point x="724.845642974521" y="570.375997483949"/>
      <point x="724.6577504674443" y="571.2587583142179"/>
      <point x="724.465202331543" y="572.0808486938477" type="curve"/>
      <point x="724.2957153596819" y="572.911972204191"/>
      <point x="724.1226291745603" y="573.6867751733269"/>
      <point x="723.9459762573242" y="574.4394302368164" type="curve"/>
      <point x="723.7421092643341" y="575.357755062639"/>
      <point x="723.5334731046971" y="576.2492984128094"/>
      <point x="723.3200836181641" y="577.0854873657227" type="curve"/>
      <point x="723.1387917384687" y="577.8909923438434"/>
      <point x="722.9540493661553" y="578.646217404"/>
      <point x="722.7658996582031" y="579.3799057006836" type="curve"/>
      <point x="722.5409773029555" y="580.3068461183999"/>
      <point x="722.3112089999804" y="581.206852020288"/>
      <point x="722.0766525268555" y="582.0557327270508" type="curve"/>
      <point x="721.8842656437419" y="582.8366278325924"/>
      <point x="721.6886356228416" y="583.57219312806"/>
      <point x="721.4897155761719" y="584.2870178222656" type="curve"/>
      <point x="721.2431129813389" y="585.2231007090992"/>
      <point x="720.9915631836546" y="586.1321987964831"/>
      <point x="720.7350540161133" y="586.9941787719727" type="curve"/>
      <point x="720.532713154509" y="587.7497248929127"/>
      <point x="720.3272567643783" y="588.4645278816537"/>
      <point x="720.118766784668" y="589.1588745117188" type="curve"/>
      <point x="719.849788517163" y="590.1047871490973"/>
      <point x="719.5757275289486" y="591.0237009634499"/>
      <point x="719.2965393066406" y="591.8989028930664" type="curve"/>
      <point x="719.0853044247884" y="592.6287497372787"/>
      <point x="718.8710999257646" y="593.3218660497754"/>
      <point x="718.6539688110352" y="593.9953536987305" type="curve"/>
      <point x="718.3618597504385" y="594.9517368361138"/>
      <point x="718.0645397123964" y="595.8810417284514"/>
      <point x="717.7619934082031" y="596.7693252563477" type="curve"/>
      <point x="717.5429308196201" y="597.4732052093198"/>
      <point x="717.3211541073161" y="598.1435946517754"/>
      <point x="717.0966720581055" y="598.7948379516602" type="curve"/>
      <point x="716.7805742881566" y="599.7624767377324"/>
      <point x="716.4590832665989" y="600.7030724866501"/>
      <point x="716.1322250366211" y="601.6050643920898" type="curve"/>
      <point x="715.906713487226" y="602.2818664332898"/>
      <point x="715.678599135163" y="602.9285228686881"/>
      <point x="715.4479141235352" y="603.5568008422852" type="curve"/>
      <point x="715.1071020169501" y="604.5359038536566"/>
      <point x="714.760719661014" y="605.4879565186685"/>
      <point x="714.4087600708008" y="606.403694152832" type="curve"/>
      <point x="714.177807322444" y="607.0535226319785"/>
      <point x="713.9444857292734" y="607.6759037252614"/>
      <point x="713.7087326049805" y="608.280647277832" type="curve"/>
      <point x="713.3421541865529" y="609.2722010067919"/>
      <point x="712.9699093222616" y="610.2364302856616"/>
      <point x="712.5919647216797" y="611.1661148071289" type="curve"/>
      <point x="712.3570586865649" y="611.7878276209236"/>
      <point x="712.1200281359826" y="612.3845659325991"/>
      <point x="711.8807983398438" y="612.9642105102539" type="curve"/>
      <point x="711.4874844012732" y="613.9687723733174"/>
      <point x="711.088263239261" y="614.9460937917075"/>
      <point x="710.6831359863281" y="615.8905868530273" type="curve"/>
      <point x="710.4456956221688" y="616.4834393599092"/>
      <point x="710.2062375899527" y="617.0539181604037"/>
      <point x="709.9648056030273" y="617.6078720092773" type="curve"/>
      <point x="709.5437634426669" y="618.6259253527502"/>
      <point x="709.1165281977096" y="619.6168694959867"/>
      <point x="708.6832122802734" y="620.5764083862305" type="curve"/>
      <point x="708.4448614081838" y="621.139313247874"/>
      <point x="708.2046032449243" y="621.6822497679101"/>
      <point x="707.9624404907227" y="622.2095947265625" type="curve"/>
      <point x="707.5122961344989" y="623.2423590397065"/>
      <point x="707.0557593432661" y="624.2478724068702"/>
      <point x="706.5929489135742" y="625.2232284545898" type="curve"/>
      <point x="706.3552702606365" y="625.7553856742941"/>
      <point x="706.1159768058648" y="626.2694077115136"/>
      <point x="705.8751068115234" y="626.7682418823242" type="curve"/>
      <point x="705.3944260515177" y="627.8167935705366"/>
      <point x="704.9071781622316" y="628.8378873745052"/>
      <point x="704.413444519043" y="629.8299331665039" type="curve"/>
      <point x="704.1785184318239" y="630.3296494928945"/>
      <point x="703.9420377020977" y="630.8134407233604"/>
      <point x="703.7041091918945" y="631.2829284667969" type="curve"/>
      <point x="703.1914262666079" y="632.348193835218"/>
      <point x="702.6718166780754" y="633.3861596755947"/>
      <point x="702.1454162597656" y="634.3961944580078" type="curve"/>
      <point x="701.9152509521474" y="634.862183209593"/>
      <point x="701.6837169317746" y="635.3140750436482"/>
      <point x="701.4509201049805" y="635.75244140625" type="curve"/>
      <point x="700.904758344586" y="636.83520852093"/>
      <point x="700.3513939019454" y="637.8906186738111"/>
      <point x="699.7909317016602" y="638.919059753418" type="curve"/>
      <point x="699.5672765977315" y="639.3507476166828"/>
      <point x="699.3424188024923" y="639.7700847211545"/>
      <point x="699.1164627075195" y="640.1767349243164" type="curve"/>
      <point x="698.5349851500007" y="641.27825960197"/>
      <point x="697.9459961096284" y="642.3523982605747"/>
      <point x="697.3496551513672" y="643.400260925293" type="curve"/>
      <point x="697.1351650616053" y="643.7955622429079"/>
      <point x="696.9198032208564" y="644.1798649921399"/>
      <point x="696.7034912109375" y="644.5524139404297" type="curve"/>
      <point x="696.0845456199262" y="645.6742800582031"/>
      <point x="695.4578552324701" y="646.7685828867126"/>
      <point x="694.8233489990234" y="647.8375244140625" type="curve"/>
      <point x="694.6206526124882" y="648.1947005754107"/>
      <point x="694.4170588490774" y="648.5427791839949"/>
      <point x="694.2127914428711" y="648.8798522949219" type="curve"/>
      <point x="693.5544024720878" y="650.0230753678338"/>
      <point x="692.8877644704324" y="651.1390064855583"/>
      <point x="692.2130355834961" y="652.2300109863281" type="curve"/>
      <point x="692.0247618288948" y="652.5475932149496"/>
      <point x="691.8359233678764" y="652.8572781432673"/>
      <point x="691.6464385986328" y="653.1572036743164" type="curve"/>
      <point x="690.9460683702649" y="654.3234881847695"/>
      <point x="690.2370663618447" y="655.4625360900651"/>
      <point x="689.5195159912109" y="656.5772323608398" type="curve"/>
      <point x="689.3489964340922" y="656.8528924705357"/>
      <point x="689.1779515687039" y="657.1222447615761"/>
      <point x="689.0065307617188" y="657.3827438354492" type="curve"/>
      <point x="688.261361422445" y="658.5739711335647"/>
      <point x="687.5070663115969" y="659.7381654019911"/>
      <point x="686.7438049316406" y="660.8783493041992" type="curve"/>
      <point x="686.5946497505414" y="661.109665345102"/>
      <point x="686.4452365269534" y="661.3358200091011"/>
      <point x="686.2953720092773" y="661.5546722412109" type="curve"/>
      <point x="685.5022301316061" y="662.7729179222645"/>
      <point x="684.699436868148" y="663.9643879976345"/>
      <point x="683.8870849609375" y="665.1322708129883" type="curve"/>
      <point x="683.7633796157807" y="665.3164876934089"/>
      <point x="683.6393502093579" y="665.497095004533"/>
      <point x="683.5151901245117" y="665.6714477539062" type="curve"/>
      <point x="682.6704085300597" y="666.9191850943629"/>
      <point x="681.8153352449616" y="668.1405561282303"/>
      <point x="680.9501495361328" y="669.3385009765625" type="curve"/>
      <point x="680.8566260316658" y="669.4723490824715"/>
      <point x="680.7629552088539" y="669.6036797695517"/>
      <point x="680.6692123413086" y="669.730354309082" type="curve"/>
      <point x="679.768470823048" y="671.0105495682388"/>
      <point x="678.856871522525" y="672.2647141435083"/>
      <point x="677.9345092773438" y="673.4955368041992" type="curve"/>
      <point x="677.8763117906085" y="673.5756424778943"/>
      <point x="677.8181100487318" y="673.6542704039372"/>
      <point x="677.7598648071289" y="673.7300720214844" type="curve"/>
      <point x="676.7984339540833" y="675.0457778947466"/>
      <point x="675.8253420456803" y="676.3361711215493"/>
      <point x="674.8408050537109" y="677.6031188964844" type="curve"/>
      <point x="674.8244268900007" y="677.6248127828657"/>
      <point x="674.8080529139042" y="677.6461421308082"/>
      <point x="674.7917404174805" y="677.6665954589844" type="curve"/>
      <point x="643.9142144786197" y="717.8972682149615"/>
      <point x="601.7040231167283" y="750.9388497327484"/>
      <point x="552.159912109375" y="773.2998657226562" type="curve"/>
      <point x="552.105733285778" y="773.3253711246247"/>
      <point x="552.051510808159" y="773.3498490945678"/>
      <point x="551.9971542358398" y="773.373893737793" type="curve"/>
      <point x="550.4644694494541" y="774.0751854295689"/>
      <point x="548.9247304738371" y="774.7561364614105"/>
      <point x="547.3779754638672" y="775.4153289794922" type="curve"/>
      <point x="547.2201243291712" y="775.4865454368776"/>
      <point x="547.0622855915981" y="775.5548798266333"/>
      <point x="546.904167175293" y="775.6217803955078" type="curve"/>
      <point x="545.4525480870018" y="776.2587559389991"/>
      <point x="543.9947178612011" y="776.8766398486438"/>
      <point x="542.5308074951172" y="777.473518371582" type="curve"/>
      <point x="542.2713839945053" y="777.5855946460293"/>
      <point x="542.0118369548434" y="777.6932180335451"/>
      <point x="541.7518768310547" y="777.7982559204102" type="curve"/>
      <point x="540.3815038874286" y="778.3742504955919"/>
      <point x="539.0058684623526" y="778.9322732202648"/>
      <point x="537.6253051757812" y="779.4701385498047" type="curve"/>
      <point x="537.2629953913685" y="779.6198300498044"/>
      <point x="536.9003832817251" y="779.7636374971307"/>
      <point x="536.5375518798828" y="779.903434753418" type="curve"/>
      <point x="535.2510347889089" y="780.4207344040352"/>
      <point x="533.9599413947127" y="780.9212452738166"/>
      <point x="532.6643676757812" y="781.4029083251953" type="curve"/>
      <point x="532.1971579841912" y="781.5872589440569"/>
      <point x="531.7295562418166" y="781.7643470731491"/>
      <point x="531.2611770629883" y="781.936164855957" type="curve"/>
      <point x="530.0601876050288" y="782.39745739528"/>
      <point x="528.855564680462" y="782.8430102727493"/>
      <point x="527.6474227905273" y="783.2709579467773" type="curve"/>
      <point x="527.073773480564" y="783.4868318818632"/>
      <point x="526.4991411863194" y="783.6942894862121"/>
      <point x="525.9237518310547" y="783.8948745727539" type="curve"/>
      <point x="524.8119524052031" y="784.3021488638356"/>
      <point x="523.6969796633534" y="784.694907606245"/>
      <point x="522.5791549682617" y="785.0715408325195" type="curve"/>
      <point x="521.8943304421754" y="785.3169057054586"/>
      <point x="521.208273034624" y="785.552570868388"/>
      <point x="520.5212097167969" y="785.7797241210938" type="curve"/>
      <point x="519.5040956075329" y="786.1344558595658"/>
      <point x="518.484535389519" y="786.4758191186554"/>
      <point x="517.4624710083008" y="786.8027572631836" type="curve"/>
      <point x="516.6611646717392" y="787.0756168238613"/>
      <point x="515.8581433856012" y="787.3375191934432"/>
      <point x="515.0534896850586" y="787.5892639160156" type="curve"/>
      <point x="514.1364002462348" y="787.8931881168527"/>
      <point x="513.2172789574884" y="788.1850271590265"/>
      <point x="512.2960739135742" y="788.4641952514648" type="curve"/>
      <point x="511.37230595575716" y="788.762549328741"/>
      <point x="510.4465724313454" y="789.048531631384"/>
      <point x="509.5190963745117" y="789.3224105834961" type="curve"/>
      <point x="508.70889806317757" y="789.5770075816289"/>
      <point x="507.8971189698823" y="789.8208368153536"/>
      <point x="507.0839538574219" y="790.0537414550781" type="curve"/>
      <point x="506.0301240737787" y="790.3758379653348"/>
      <point x="504.973762428446" y="790.6841198458512"/>
      <point x="503.9151382446289" y="790.9783554077148" type="curve"/>
      <point x="502.96853557096273" y="791.2570572010983"/>
      <point x="502.02017015136954" y="791.5246468101981"/>
      <point x="501.0698928833008" y="791.785026550293" type="curve"/>
      <point x="500.6171307020815" y="791.9173371352289"/>
      <point x="500.1641481250981" y="792.0423356488686"/>
      <point x="499.7108917236328" y="792.1631851196289" type="curve"/>
      <point x="343.60269927978516" y="834.894401550293" type="line"/>
      <point x="343.11703" y="835.02734"/>
      <point x="342.85714" y="835.14549"/>
      <point x="342.85714" y="835.28571" type="curve"/>
      <point x="342.85714" y="836.70492"/>
      <point x="368.9741" y="837.85714"/>
      <point x="401.14286" y="837.85714" type="curve" smooth="yes"/>
      <point x="433.31162" y="837.85714"/>
      <point x="459.42857" y="836.70492"/>
      <point x="459.42857" y="835.28571" type="curve"/>
      <point x="716.5714263916016" y="835.2857131958008" type="line"/>
      <point x="716.57143" y="978.62593"/>
      <point x="575.23262" y="1095.0"/>
      <point x="401.14286" y="1095.0" type="curve" smooth="yes"/>
      <point x="227.05309" y="1095.0"/>
      <point x="85.71429" y="978.62593"/>
      <point x="85.71429" y="835.28571" type="curve"/>
      <point x="85.71429" y="782.04516579597"/>
      <point x="105.20759217284174" y="732.5075509944417"/>
      <point x="138.6380615234375" y="691.2978439331055" type="curve"/>
      <point x="96.82024165106537" y="643.151600261732"/>
      <point x="71.99999999999993" y="583.15594997885"/>
      <point x="71.99999999999993" y="518.14286" type="curve"/>
      <point x="72.0" y="516.38168887402"/>
      <point x="72.01821408874223" y="514.6241997477489"/>
      <point x="72.05448913574219" y="512.8960189819336" type="curve"/>
      <point x="72.0" y="515.6625346344"/>
      <point x="72.03612373349907" y="513.1895030118186"/>
      <point x="72.1079330444336" y="511.14705657958984" type="curve"/>
      <point x="72.13784910617204" y="509.69754423084674"/>
      <point x="72.17396032164658" y="508.67184003087687"/>
      <point x="72.21623229980469" y="507.672607421875" type="curve"/>
      <point x="72.2484004734081" y="506.86764764476453"/>
      <point x="72.28413533438199" y="506.0889686100071"/>
      <point x="72.32341766357422" y="505.5688247680664" type="curve"/>
      <point x="72.37169061405746" y="504.3560120198181"/>
      <point x="72.42532385309721" y="503.40159680065017"/>
      <point x="72.48429870605469" y="502.4730911254883" type="curve"/>
      <point x="72.53415602533063" y="501.6418464891138"/>
      <point x="72.58783554378114" y="500.83674273022325"/>
      <point x="72.64531707763672" y="500.21651458740234" type="curve"/>
      <point x="72.71112095099257" y="499.1126392828578"/>
      <point x="72.7819230229747" y="498.1929916169421"/>
      <point x="72.85769653320312" y="497.2986526489258" type="curve"/>
      <point x="72.92543688022587" y="496.45229681897507"/>
      <point x="72.99714551796116" y="495.63198486286984"/>
      <point x="73.07281494140625" y="494.9551696777344" type="curve"/>
      <point x="73.15565016711479" y="493.9164990102697"/>
      <point x="73.24320788468198" y="493.0207557633775"/>
      <point x="73.33549499511719" y="492.1498107910156" type="curve"/>
      <point x="73.42123651827657" y="491.29355872188006"/>
      <point x="73.51102864476232" y="490.46341396523775"/>
      <point x="73.60486602783203" y="489.75048065185547" type="curve"/>
      <point x="73.70426472785762" y="488.7574404292721"/>
      <point x="73.80820390375665" y="487.88044895469994"/>
      <point x="73.91668701171875" y="487.0277404785156" type="curve"/>
      <point x="74.02057704743748" y="486.1640888926982"/>
      <point x="74.12859252378578" y="485.32639612308367"/>
      <point x="74.24073791503906" y="484.58753967285156" type="curve"/>
      <point x="74.35623200233888" y="483.62981413823326"/>
      <point x="74.47610810178622" y="482.7694133579571"/>
      <point x="74.60034942626953" y="481.93299102783203" type="curve"/>
      <point x="74.72250843578409" y="481.0635170644037"/>
      <point x="74.84887582139208" y="480.21978437629286"/>
      <point x="74.97943115234375" y="479.46154022216797" type="curve"/>
      <point x="75.11053075000159" y="478.5331354214485"/>
      <point x="75.24586782636534" y="477.6882616849092"/>
      <point x="75.38541412353516" y="476.866943359375" type="curve"/>
      <point x="75.52610961060398" y="475.99186842909904"/>
      <point x="75.67107172569578" y="475.14246823429164"/>
      <point x="75.82030487060547" y="474.3681335449219" type="curve"/>
      <point x="75.96640565437433" y="473.4660315407394"/>
      <point x="76.11661155035681" y="472.63669744807265"/>
      <point x="76.27090454101562" y="471.83031463623047" type="curve"/>
      <point x="76.43033618636053" y="470.9501757466628"/>
      <point x="76.59414575605196" y="470.09535910833347"/>
      <point x="76.76231384277344" y="469.30736541748047" type="curve"/>
      <point x="76.92287668176616" y="468.429137412418"/>
      <point x="77.08739669658165" y="467.61519965574774"/>
      <point x="77.25585174560547" y="466.82384490966797" type="curve"/>
      <point x="77.43433382026147" y="465.93847911865845"/>
      <point x="77.61724037883995" y="465.07850264619316"/>
      <point x="77.8045425415039" y="464.2789306640625" type="curve"/>
      <point x="77.97894598041273" y="463.4232409165762"/>
      <point x="78.15713936301826" y="462.62500344822007"/>
      <point x="78.33914947509766" y="461.84876251220703" type="curve"/>
      <point x="78.53696591576893" y="460.95830443553047"/>
      <point x="78.73929728968875" y="460.09306180012044"/>
      <point x="78.94608306884766" y="459.2828369140625" type="curve"/>
      <point x="79.13368700007409" y="458.4488297932876"/>
      <point x="79.32497567519127" y="457.66628815840215"/>
      <point x="79.51988220214844" y="456.90550994873047" type="curve"/>
      <point x="79.7373796311246" y="456.00982022477314"/>
      <point x="79.9594504763523" y="455.13933909475134"/>
      <point x="80.18605041503906" y="454.31932830810547" type="curve"/>
      <point x="80.3861621250082" y="453.506547478145"/>
      <point x="80.58977671917177" y="452.74043222812344"/>
      <point x="80.79692840576172" y="451.995361328125" type="curve"/>
      <point x="81.03447136722308" y="451.0942971331268"/>
      <point x="81.27667030835686" y="450.2183728661466"/>
      <point x="81.52342987060547" y="449.3892059326172" type="curve"/>
      <point x="81.73531604011927" y="448.5974807033359"/>
      <point x="81.95061900585057" y="447.84791392916503"/>
      <point x="82.16924285888672" y="447.11917877197266" type="curve"/>
      <point x="82.42731407764306" y="446.2122714051057"/>
      <point x="82.69012484748812" y="445.33047460924297"/>
      <point x="82.95765686035156" y="444.49183654785156" type="curve"/>
      <point x="83.18043506005273" y="443.7215394263485"/>
      <point x="83.40651743260402" y="442.98951172661026"/>
      <point x="83.63578033447266" y="442.27781677246094" type="curve"/>
      <point x="83.9147761119015" y="441.36500108907836"/>
      <point x="84.19856321283855" y="440.47739856768163"/>
      <point x="84.48713684082031" y="439.6301498413086" type="curve"/>
      <point x="84.72010598398028" y="438.88097818345165"/>
      <point x="84.95624248810716" y="438.16672628116737"/>
      <point x="85.19551849365234" y="437.47198486328125" type="curve"/>
      <point x="85.49596722741471" y="436.55289916014766"/>
      <point x="85.80134741952972" y="435.6588593849466"/>
      <point x="86.11163330078125" y="434.80257415771484" type="curve"/>
      <point x="86.35381885854845" y="434.07512860817127"/>
      <point x="86.599023997472" y="433.379598036872"/>
      <point x="86.84719848632812" y="432.70314025878906" type="curve"/>
      <point x="87.1698173795066" y="431.7769764031158"/>
      <point x="87.49736883677551" y="430.8761290417646"/>
      <point x="87.82991027832031" y="430.0108947753906" type="curve"/>
      <point x="88.0804270668792" y="429.3053651798359"/>
      <point x="88.33377022010758" y="428.6291861601516"/>
      <point x="88.58985137939453" y="427.9718017578125" type="curve"/>
      <point x="88.9350598752381" y="427.03870166216774"/>
      <point x="89.2853915774171" y="426.13069764147946"/>
      <point x="89.64080047607422" y="425.2564010620117" type="curve"/>
      <point x="89.89868433145189" y="424.573186699082"/>
      <point x="90.15925623179633" y="423.9168235622312"/>
      <point x="90.42243194580078" y="423.27870178222656" type="curve"/>
      <point x="90.79093989117779" y="422.3381315406639"/>
      <point x="91.16469596739356" y="421.42264574474723"/>
      <point x="91.54364013671875" y="420.5391311645508" type="curve"/>
      <point x="91.80776294567761" y="419.87894290154924"/>
      <point x="92.07445370197763" y="419.2432617381921"/>
      <point x="92.34362030029297" y="418.62523651123047" type="curve"/>
      <point x="92.73621647046525" y="417.67660567782224"/>
      <point x="93.13412026756912" y="416.75322110706725"/>
      <point x="93.53726196289062" y="415.8604278564453" type="curve"/>
      <point x="93.80655995369204" y="415.22369352943207"/>
      <point x="94.07827317059443" y="414.6093890533613"/>
      <point x="94.35242462158203" y="414.01195526123047" type="curve"/>
      <point x="94.7698639112319" y="413.0548741321374"/>
      <point x="95.19267625044483" y="412.12320092951114"/>
      <point x="95.620849609375" y="411.2207260131836" type="curve"/>
      <point x="95.89427374617287" y="410.6077956429552"/>
      <point x="96.16987560078078" y="410.01553399714913"/>
      <point x="96.44762420654297" y="409.4399185180664" type="curve"/>
      <point x="96.89064361287973" y="408.474136227608"/>
      <point x="97.33926811168985" y="407.53358624419536"/>
      <point x="97.79341888427734" y="406.62093353271484" type="curve"/>
      <point x="98.06946848227312" y="406.032992863055"/>
      <point x="98.34751642856978" y="405.46395781221224"/>
      <point x="98.62767791748047" y="404.91075897216797" type="curve"/>
      <point x="99.09750741416677" y="403.93512554075016"/>
      <point x="99.57306465881065" y="402.98481006442904"/>
      <point x="100.05426788330078" y="402.0613250732422" type="curve"/>
      <point x="100.33153709030762" y="401.4992237728113"/>
      <point x="100.61073241273583" y="400.9541469038867"/>
      <point x="100.89171600341797" y="400.4246826171875" type="curve"/>
      <point x="101.38918175198583" y="399.43901831975876"/>
      <point x="101.89262356043778" y="398.4785353681339"/>
      <point x="102.40189361572266" y="397.5438537597656" type="curve"/>
      <point x="102.6788574521208" y="397.0084782373981"/>
      <point x="102.95763867351633" y="396.4884583026309"/>
      <point x="103.2382583618164" y="395.9830780029297" type="curve"/>
      <point x="103.76459904818013" y="394.98653092454407"/>
      <point x="104.29709783046214" y="394.0151831143047"/>
      <point x="104.83560180664062" y="393.0687255859375" type="curve"/>
      <point x="105.11090953629041" y="392.56056189449924"/>
      <point x="105.38772789425072" y="392.06651739153887"/>
      <point x="105.66619110107422" y="391.5865707397461" type="curve"/>
      <point x="106.2226349538483" y="390.5784864991541"/>
      <point x="106.78535710519692" y="389.595728842951"/>
      <point x="107.35438537597656" y="388.63685607910156" type="curve"/>
      <point x="107.62609001521639" y="388.1572986917426"/>
      <point x="107.89918441046991" y="387.69036584526975"/>
      <point x="108.17372131347656" y="387.2369842529297" type="curve"/>
      <point x="108.76177303430929" y="386.2163464390531"/>
      <point x="109.35625370890416" y="385.2211364210648"/>
      <point x="109.95722961425781" y="384.24910736083984" type="curve"/>
      <point x="110.22359288885431" y="383.7990283828951"/>
      <point x="110.49113468430942" y="383.3602893979461"/>
      <point x="110.75999450683594" y="382.9343948364258" type="curve"/>
      <point x="111.38084451909062" y="381.90090064089713"/>
      <point x="112.00843026180478" y="380.89268063193225"/>
      <point x="112.64277648925781" y="379.9069366455078" type="curve"/>
      <point x="112.90174068902446" y="379.4875299894371"/>
      <point x="113.1619152081333" y="379.07788058891913"/>
      <point x="113.42328643798828" y="378.6803436279297" type="curve"/>
      <point x="114.0787406047745" y="377.63282268134645"/>
      <point x="114.74124158537721" y="376.61045044998747"/>
      <point x="115.41075897216797" y="375.60997009277344" type="curve"/>
      <point x="115.65996681866443" y="375.2227425987871"/>
      <point x="115.91014025619238" y="374.8441792131909"/>
      <point x="116.16120910644531" y="374.4772033691406" type="curve"/>
      <point x="116.8535869102135" y="373.41393216346023"/>
      <point x="117.5531765415327" y="372.3759145395081"/>
      <point x="118.25992584228516" y="371.35948944091797" type="curve"/>
      <point x="118.4967190548003" y="371.0061562123018"/>
      <point x="118.73439773711173" y="370.66020243156845"/>
      <point x="118.9727783203125" y="370.32511138916016" type="curve"/>
      <point x="119.70393595369734" y="369.24527333397276"/>
      <point x="120.44260261594383" y="368.1906126692314"/>
      <point x="121.1888198852539" y="367.15699768066406" type="curve"/>
      <point x="121.41048107474089" y="366.8390998722636"/>
      <point x="121.63289583905" y="366.52744779092507"/>
      <point x="121.85608673095703" y="366.22547912597656" type="curve"/>
      <point x="122.62838470360255" y="365.12776182311114"/>
      <point x="123.40864306140045" y="364.0549204496603"/>
      <point x="124.19679260253906" y="363.0027618408203" type="curve"/>
      <point x="124.40015196153733" y="362.7222506923969"/>
      <point x="124.604151486432" y="362.44687206186063"/>
      <point x="124.80872344970703" y="362.18031311035156" type="curve"/>
      <point x="125.62521083801089" y="361.06269790694773"/>
      <point x="126.45006683730884" y="359.9697276351984"/>
      <point x="127.28314208984375" y="358.897216796875" type="curve"/>
      <point x="127.46416529516803" y="358.6568951414776"/>
      <point x="127.64571969544961" y="358.42063382168845"/>
      <point x="127.82770538330078" y="358.19214630126953" type="curve"/>
      <point x="128.69186921857147" y="357.0523415288159"/>
      <point x="129.56477084012468" y="355.93700588450355"/>
      <point x="130.44635772705078" y="354.8418884277344" type="curve"/>
      <point x="130.6011043865154" y="354.6440430980306"/>
      <point x="130.75600883682011" y="354.4495976883075"/>
      <point x="130.9112319946289" y="354.26171875" type="curve"/>
      <point x="131.8265730675032" y="353.09777886895745"/>
      <point x="132.7513611344865" y="351.95767660636477"/>
      <point x="133.6853790283203" y="350.8376159667969" type="curve"/>
      <point x="133.8088403803115" y="350.6855193769843"/>
      <point x="133.9323249473759" y="350.5359175940668"/>
      <point x="134.05592346191406" y="350.39163970947266" type="curve"/>
      <point x="135.02733720215568" y="349.2002516639967"/>
      <point x="136.00858947071634" y="348.03244531994056"/>
      <point x="136.9995574951172" y="346.88475036621094" type="curve"/>
      <point x="137.08526173841577" y="346.7829649892026"/>
      <point x="137.17115459500843" y="346.68248126878325"/>
      <point x="137.25720977783203" y="346.58555603027344" type="curve"/>
      <point x="138.29021110031937" y="345.3631628723628"/>
      <point x="139.3338614256804" y="344.1635368880316"/>
      <point x="140.3878936767578" y="342.98411560058594" type="curve"/>
      <point x="140.42849302480792" y="342.9376085241654"/>
      <point x="140.46912306846906" y="342.8916880229536"/>
      <point x="140.5099105834961" y="342.8473587036133" type="curve"/>
      <point x="167.57701988808518" y="312.2595922308039"/>
      <point x="201.5501718637734" y="286.5726332545052"/>
      <point x="240.38314819335938" y="267.56956481933594" type="curve"/>
      <point x="240.39679139535113" y="267.56257653199253"/>
      <point x="240.41026002467467" y="267.55598206889255"/>
      <point x="240.42385864257812" y="267.5494079589844" type="curve"/>
      <point x="241.9549497694648" y="266.7916542088468"/>
      <point x="243.49349212341718" y="266.0527409884357"/>
      <point x="245.03943634033203" y="265.33445739746094" type="curve"/>
      <point x="245.15464124638777" y="265.2777845429099"/>
      <point x="245.269917075358" y="265.22353174309853"/>
      <point x="245.38520050048828" y="265.1701354980469" type="curve"/>
      <point x="246.84205391455447" y="264.4771628543831"/>
      <point x="248.30534841338823" y="263.80205224291007"/>
      <point x="249.7749786376953" y="263.1474914550781" type="curve"/>
      <point x="249.98409242620644" y="263.048785171624"/>
      <point x="250.1935322584372" y="262.9541425157994"/>
      <point x="250.4029312133789" y="262.86126708984375" type="curve"/>
      <point x="251.79016987532597" y="262.2276907569112"/>
      <point x="253.18315897014574" y="261.611014631742"/>
      <point x="254.58170318603516" y="261.0144729614258" type="curve"/>
      <point x="254.87999483590886" y="260.87951494740025"/>
      <point x="255.17837386774391" y="260.75020793679704"/>
      <point x="255.4771270751953" y="260.6234588623047" type="curve"/>
      <point x="256.7976407835116" y="260.0450132362351"/>
      <point x="258.12324202112984" y="259.4826001624506"/>
      <point x="259.4537887573242" y="258.93968963623047" type="curve"/>
      <point x="259.8379081413638" y="258.77326362050434"/>
      <point x="260.2225297953528" y="258.613618650957"/>
      <point x="260.607666015625" y="258.4575424194336" type="curve"/>
      <point x="261.86313055082456" y="257.93069308993074"/>
      <point x="263.1229093893684" y="257.4191418577701"/>
      <point x="264.3868713378906" y="256.9263916015625" type="curve"/>
      <point x="264.8555498820248" y="256.732176522975"/>
      <point x="265.32495555659307" y="256.54582741872076"/>
      <point x="265.7947463989258" y="256.3642349243164" type="curve"/>
      <point x="266.98513561154135" y="255.8863090797308"/>
      <point x="268.1791191854055" y="255.42295587319407"/>
      <point x="269.3766403198242" y="254.9775390625" type="curve"/>
      <point x="269.92992897879134" y="254.75854503308173"/>
      <point x="270.48379377011935" y="254.54856668872497"/>
      <point x="271.03841400146484" y="254.34441375732422" type="curve"/>
      <point x="272.16326442348793" y="253.91296080828425"/>
      <point x="273.29143101409863" y="253.49522095365884"/>
      <point x="274.42281341552734" y="253.0943374633789" type="curve"/>
      <point x="275.06000826178536" y="252.85378561230877"/>
      <point x="275.6983975547157" y="252.62305075989474"/>
      <point x="276.33773040771484" y="252.39936065673828" type="curve"/>
      <point x="277.3958286895472" y="252.01223631489282"/>
      <point x="278.4567989632634" y="251.6380507586429"/>
      <point x="279.5204772949219" y="251.27963256835938" type="curve"/>
      <point x="280.24392517105514" y="251.0195709269888"/>
      <point x="280.96842778196594" y="250.7703916422439"/>
      <point x="281.69432830810547" y="250.52945709228516" type="curve"/>
      <point x="282.68345062518654" y="250.18487602321545"/>
      <point x="283.67483668582446" y="249.85250565152114"/>
      <point x="284.6686706542969" y="249.53466033935547" type="curve"/>
      <point x="285.4800858931248" y="249.25740501576146"/>
      <point x="286.2932245333242" y="248.99183448366853"/>
      <point x="287.10801696777344" y="248.73587036132812" type="curve"/>
      <point x="288.0249371849245" y="248.43229468818978"/>
      <point x="288.94383425273196" y="248.14008608431064"/>
      <point x="289.8647155761719" y="247.86115264892578" type="curve"/>
      <point x="290.7678281275815" y="247.56844344954763"/>
      <point x="291.67260450695477" y="247.28848497378954"/>
      <point x="292.57933807373047" y="247.01954650878906" type="curve"/>
      <point x="293.4206650997123" y="246.75540264093283"/>
      <point x="294.26363828587967" y="246.50176006340732"/>
      <point x="295.1081237792969" y="246.2600860595703" type="curve"/>
      <point x="296.1063170349848" y="245.95389691455307"/>
      <point x="297.10655236668947" y="245.66143894166058"/>
      <point x="298.1091003417969" y="245.38148498535156" type="curve"/>
      <point x="298.8704985822764" y="245.1553366824465"/>
      <point x="299.63302991463684" y="244.93883890596612"/>
      <point x="300.3968276977539" y="244.73287963867188" type="curve"/>
      <point x="301.49453961148686" y="244.41502023283655"/>
      <point x="302.5947326960249" y="244.11193172975956"/>
      <point x="303.69747161865234" y="243.82294464111328" type="curve"/>
      <point x="304.5682013853116" y="243.5808854981351"/>
      <point x="305.44038303392" y="243.34872429167999"/>
      <point x="306.31409" y="243.11964999999998" type="curve"/>
      <point x="307.39205169677734" y="242.83702087402344" type="line"/>
      <point x="307.47583033954436" y="242.8138735225365"/>
      <point x="307.5595551609908" y="242.79220967720764"/>
      <point x="307.6434326171875" y="242.77111053466797" type="curve"/>
      <point x="465.55787658691406" y="201.36805725097656" type="line"/>
      <point x="466.03327" y="201.24341"/>
      <point x="466.28571" y="201.13094"/>
      <point x="466.28571" y="201.0" type="curve"/>
      <point x="466.28571" y="199.58079"/>
      <point x="437.09618" y="198.42857"/>
      <point x="401.14286" y="198.42857" type="curve" smooth="yes"/>
      <point x="365.18954" y="198.42857"/>
      <point x="336.0" y="199.58079"/>
      <point x="336.0" y="201.0" type="curve"/>
    </contour>
  </outline>
</glyph>
<glyph name="diaeresis" format="2">
  <advance width="893.7551020408164"/>
  <unicode hex="00A8"/>
  <outline>
    <contour>
      <point x="440.44897959183675" y="1060.6530612244899" type="curve" smooth="yes"/>
      <point x="440.44897959183675" y="1158.7812990661223"/>
      <point x="360.7812990661225" y="1238.4489795918366"/>
      <point x="262.6530612244898" y="1238.4489795918366" type="curve" smooth="yes"/>
      <point x="164.5248233828571" y="1238.4489795918366"/>
      <point x="84.85714285714285" y="1158.7812990661223"/>
      <point x="84.85714285714285" y="1060.6530612244899" type="curve" smooth="yes"/>
      <point x="84.85714285714285" y="962.5248233828571"/>
      <point x="164.52482338285708" y="882.8571428571428"/>
      <point x="262.6530612244898" y="882.8571428571428" type="curve" smooth="yes"/>
      <point x="360.7812990661224" y="882.8571428571428"/>
      <point x="440.44897959183675" y="962.5248233828571"/>
    </contour>
    <contour>
      <point x="808.8979591836735" y="1060.6530612244899" type="curve" smooth="yes"/>
      <point x="808.8979591836735" y="1158.7812990661223"/>
      <point x="729.2302786579592" y="1238.4489795918366"/>
      <point x="631.1020408163265" y="1238.4489795918366" type="curve" smooth="yes"/>
      <point x="532.973802974694" y="1238.4489795918366"/>
      <point x="453.3061224489796" y="1158.7812990661223"/>
      <point x="453.3061224489796" y="1060.6530612244899" type="curve" smooth="yes"/>
      <point x="453.3061224489796" y="962.5248233828571"/>
      <point x="532.9738029746939" y="882.8571428571428"/>
      <point x="631.1020408163265" y="882.8571428571428" type="curve" smooth="yes"/>
      <point x="729.2302786579592" y="882.8571428571428"/>
      <point x="808.8979591836735" y="962.5248233828571"/>
    </contour>
  </outline>
</glyph>
<glyph name="copyright" format="2">
  <advance width="1198.2857142857142"/>
  <unicode hex="00A9"/>
  <outline>
    <contour>
      <point x="1139.142857142857" y="540.0000000000001" type="curve" smooth="yes"/>
      <point x="1139.142857142857" y="838.0341108"/>
      <point x="897.1769679428571" y="1080.0"/>
      <point x="599.1428571428571" y="1080.0" type="curve" smooth="yes"/>
      <point x="301.10874634285716" y="1080.0"/>
      <point x="59.14285714285714" y="838.0341108000001"/>
      <point x="59.14285714285714" y="540.0000000000001" type="curve" smooth="yes"/>
      <point x="59.14285714285714" y="241.96588920000013"/>
      <point x="301.1087463428571" y="9.74458609042423e-14"/>
      <point x="599.142857142857" y="9.74458609042423e-14" type="curve" smooth="yes"/>
      <point x="897.176967942857" y="0.0"/>
      <point x="1139.142857142857" y="241.9658892"/>
    </contour>
    <contour>
      <point x="1023.4285714285713" y="540.0000000000001" type="curve" smooth="yes"/>
      <point x="1023.4285714285713" y="305.8303415142857"/>
      <point x="833.3125156285712" y="115.71428571428575"/>
      <point x="599.142857142857" y="115.71428571428581" type="curve" smooth="yes"/>
      <point x="364.9731986571428" y="115.71428571428585"/>
      <point x="174.8571428571428" y="305.83034151428586"/>
      <point x="174.85714285714283" y="540.0000000000001" type="curve" smooth="yes"/>
      <point x="174.85714285714283" y="774.1696584857144"/>
      <point x="364.9731986571429" y="964.2857142857142"/>
      <point x="599.1428571428571" y="964.2857142857142" type="curve" smooth="yes"/>
      <point x="833.3125156285714" y="964.2857142857142"/>
      <point x="1023.4285714285713" y="774.1696584857144"/>
    </contour>
    <contour>
      <point x="599.142857142857" y="398.8839285714285" type="curve" smooth="yes"/>
      <point x="521.2587777580355" y="398.8839285714285"/>
      <point x="458.02678571428555" y="462.1159206151785"/>
      <point x="458.02678571428555" y="539.9999999999999" type="curve" smooth="yes"/>
      <point x="458.02678571428555" y="617.8840793848213"/>
      <point x="521.2587777580355" y="681.1160714285713"/>
      <point x="599.142857142857" y="681.1160714285713" type="curve" smooth="yes"/>
      <point x="656.3277626336537" y="681.1160714285713"/>
      <point x="705.6137987350402" y="647.0280104745685"/>
      <point x="727.772020612444" y="598.0702460152761" type="curve"/>
      <point x="878.9860098702565" y="598.0702460152761" type="line"/>
      <point x="852.1232533314472" y="727.9832149222403"/>
      <point x="736.961326337897" y="825.7589285714284"/>
      <point x="599.1428571428569" y="825.7589285714287" type="curve" smooth="yes"/>
      <point x="441.4282123651784" y="825.7589285714284"/>
      <point x="313.3839285714284" y="697.7146447776785"/>
      <point x="313.3839285714284" y="539.9999999999999" type="curve" smooth="yes"/>
      <point x="313.3839285714284" y="382.2853552223214"/>
      <point x="441.4282123651784" y="254.24107142857136"/>
      <point x="599.1428571428569" y="254.24107142857136" type="curve" smooth="yes"/>
      <point x="736.9588029035805" y="254.2410714285713"/>
      <point x="852.1190361306085" y="352.0132045949146"/>
      <point x="878.9844567435126" y="481.92975616455067" type="curve"/>
      <point x="727.7751301356722" y="481.92975616455067" type="line"/>
      <point x="705.6183632903623" y="432.9751466269625"/>
      <point x="656.3304106923529" y="398.8839285714285"/>
    </contour>
  </outline>
</glyph>
<glyph name="ordinalfeminine" format="2">
  <advance width="602.6785714285713"/>
  <unicode hex="00AA"/>
  <outline>
    <contour>
      <point x="364.82142639160156" y="668.5714263916016" type="line"/>
      <point x="517.8214263916016" y="668.5714263916016" type="line"/>
      <point x="517.8214263916016" y="1104.4285736083984" type="line"/>
      <point x="364.82142639160156" y="1104.4285736083984" type="line"/>
      <point x="364.82142639160156" y="1100.2547073364258" type="line"/>
      <point x="341.9855127358561" y="1108.045995867472"/>
      <point x="317.5086859328933" y="1112.2678571428573"/>
      <point x="292.0535714285714" y="1112.267857142857" type="curve" smooth="yes"/>
      <point x="167.44890003821428" y="1112.267857142857"/>
      <point x="66.28571428571428" y="1011.1046713903572"/>
      <point x="66.28571428571428" y="886.5" type="curve" smooth="yes"/>
      <point x="66.28571428571428" y="761.8953286096428"/>
      <point x="167.44890003821422" y="660.7321428571428"/>
      <point x="292.05357142857133" y="660.7321428571428" type="curve" smooth="yes"/>
      <point x="317.50868593289323" y="660.7321428571428"/>
      <point x="341.9855127358561" y="664.9540041325281"/>
      <point x="364.82142639160156" y="672.7500457763672" type="curve"/>
    </contour>
    <contour>
      <point x="364.8214285714285" y="886.5" type="curve" smooth="yes"/>
      <point x="364.8214285714285" y="846.3383266696428"/>
      <point x="332.2152447589285" y="813.7321428571428"/>
      <point x="292.0535714285714" y="813.7321428571428" type="curve" smooth="yes"/>
      <point x="251.89189809821426" y="813.7321428571428"/>
      <point x="219.28571428571428" y="846.3383266696428"/>
      <point x="219.28571428571428" y="886.5" type="curve" smooth="yes"/>
      <point x="219.28571428571428" y="926.6616733303572"/>
      <point x="251.89189809821426" y="959.267857142857"/>
      <point x="292.0535714285714" y="959.267857142857" type="curve" smooth="yes"/>
      <point x="332.2152447589285" y="959.267857142857"/>
      <point x="364.8214285714285" y="926.6616733303572"/>
    </contour>
    <contour>
      <point x="66.28571428571428" y="419.2627551020408" type="line"/>
      <point x="517.8214285714284" y="419.2627551020408" type="line"/>
      <point x="517.8214285714284" y="578.4464285714286" type="line"/>
      <point x="66.28571428571428" y="578.4464285714286" type="line"/>
    </contour>
  </outline>
</glyph>
<glyph name="logicalnot" format="2">
  <advance width="992.5714285714286"/>
  <unicode hex="00AC"/>
  <outline>
    <contour>
      <point x="84.85713958740234" y="368.57142639160156" type="line"/>
      <point x="650.5714263916016" y="368.57142639160156" type="line"/>
      <point x="650.5714263916016" y="0" type="line"/>
      <point x="907.7142868041992" y="0" type="line"/>
      <point x="907.7142868041992" y="625.7142868041992" type="line"/>
      <point x="84.85713958740234" y="625.7142868041992" type="line"/>
    </contour>
  </outline>
</glyph>
<glyph name="registered" format="2">
  <advance width="1198.2857142857142"/>
  <unicode hex="00AE"/>
  <outline>
    <contour>
      <point x="1139.14286" y="540.0" type="curve" smooth="yes"/>
      <point x="1139.14286" y="838.03411"/>
      <point x="897.17697" y="1080.0"/>
      <point x="599.14286" y="1080.0" type="curve" smooth="yes"/>
      <point x="301.10875" y="1080.0"/>
      <point x="59.14286" y="838.03411"/>
      <point x="59.14286" y="540.0" type="curve" smooth="yes"/>
      <point x="59.14286" y="241.96589"/>
      <point x="301.10875" y="0.0"/>
      <point x="599.14286" y="0.0" type="curve" smooth="yes"/>
      <point x="897.17697" y="0.0"/>
      <point x="1139.14286" y="241.96589"/>
    </contour>
    <contour>
      <point x="1023.42857" y="540.0" type="curve" smooth="yes"/>
      <point x="1023.42857" y="305.83034"/>
      <point x="833.31252" y="115.71429"/>
      <point x="599.14286" y="115.71429" type="curve" smooth="yes"/>
      <point x="364.9732" y="115.71429"/>
      <point x="174.85714" y="305.83034"/>
      <point x="174.85714" y="540.0" type="curve" smooth="yes"/>
      <point x="174.85714" y="774.16966"/>
      <point x="364.9732" y="964.28571"/>
      <point x="599.14286" y="964.28571" type="curve" smooth="yes"/>
      <point x="833.31252" y="964.28571"/>
      <point x="1023.42857" y="774.16966"/>
    </contour>
    <contour>
      <point x="401.6670684814453" y="261.9642868041992" type="line"/>
      <point x="546.309928894043" y="261.9642868041992" type="line"/>
      <point x="546.309928894043" y="427.2704086303711" type="line"/>
      <point x="598.4576873779297" y="427.2704086303711" type="line"/>
      <point x="693.8949127197266" y="261.9642868041992" type="line"/>
      <point x="860.9130935668945" y="261.9642868041992" type="line"/>
      <point x="747.089714050293" y="459.11693572998047" type="line"/>
      <point x="800.3718729033852" y="494.0160964826691"/>
      <point x="835.5956399999999" y="554.253560534"/>
      <point x="835.5956399999999" y="622.65306" type="curve" smooth="yes"/>
      <point x="835.59564" y="730.48768"/>
      <point x="748.04761" y="818.03571"/>
      <point x="640.21299" y="818.03571" type="curve"/>
      <point x="401.6670684814453" y="818.0357131958008" type="line"/>
    </contour>
    <contour>
      <point x="640.2129898071289" y="673.3928604125977" type="line"/>
      <point x="668.21704" y="673.39286"/>
      <point x="690.95279" y="650.65712"/>
      <point x="690.95279" y="622.65306" type="curve" smooth="yes"/>
      <point x="690.95279" y="594.64901"/>
      <point x="668.21704" y="571.91327"/>
      <point x="640.21299" y="571.91327" type="curve"/>
      <point x="546.309928894043" y="571.9132690429688" type="line"/>
      <point x="546.309928894043" y="673.3928604125977" type="line"/>
    </contour>
  </outline>
</glyph>
<glyph name="macron" format="2">
  <advance width="795.4285714285714"/>
  <unicode hex="00AF"/>
  <outline>
    <contour>
      <point x="84.85714285714285" y="907.142857142857" type="line"/>
      <point x="710.5714285714284" y="907.142857142857" type="line"/>
      <point x="710.5714285714284" y="1087.142857142857" type="line"/>
      <point x="84.85714285714285" y="1087.142857142857" type="line"/>
    </contour>
  </outline>
</glyph>
<glyph name="degree" format="2">
  <advance width="709.7142857142857"/>
  <unicode hex="00B0"/>
  <outline>
    <contour>
      <point x="650.5714285714286" y="799.2857142857142" type="curve" smooth="yes"/>
      <point x="650.5714285714286" y="962.4948702"/>
      <point x="518.0662987714285" y="1095.0"/>
      <point x="354.8571428571429" y="1095.0" type="curve" smooth="yes"/>
      <point x="191.64798694285713" y="1095.0"/>
      <point x="59.14285714285714" y="962.4948702"/>
      <point x="59.14285714285714" y="799.2857142857142" type="curve" smooth="yes"/>
      <point x="59.14285714285714" y="636.0765583714285"/>
      <point x="191.6479869428571" y="503.57142857142856"/>
      <point x="354.8571428571428" y="503.57142857142856" type="curve" smooth="yes"/>
      <point x="518.0662987714285" y="503.57142857142856"/>
      <point x="650.5714285714286" y="636.0765583714284"/>
    </contour>
    <contour>
      <point x="393.42857142857144" y="799.2857142857142" type="curve" smooth="yes"/>
      <point x="393.42857142857144" y="777.9975635142856"/>
      <point x="376.1452936285714" y="760.7142857142857"/>
      <point x="354.8571428571429" y="760.7142857142857" type="curve" smooth="yes"/>
      <point x="333.5689920857143" y="760.7142857142857"/>
      <point x="316.2857142857142" y="777.9975635142857"/>
      <point x="316.2857142857142" y="799.2857142857142" type="curve" smooth="yes"/>
      <point x="316.2857142857142" y="820.5738650571428"/>
      <point x="333.5689920857143" y="837.8571428571428"/>
      <point x="354.8571428571429" y="837.8571428571428" type="curve" smooth="yes"/>
      <point x="376.1452936285714" y="837.8571428571428"/>
      <point x="393.42857142857144" y="820.5738650571427"/>
    </contour>
  </outline>
</glyph>
<glyph name="plusminus" format="2">
  <advance width="915.4285714285714"/>
  <unicode hex="00B1"/>
  <outline>
    <contour>
      <point x="84.85713958740234" y="-4.285713195800781" type="line"/>
      <point x="830.5714263916016" y="-4.285713195800781" type="line"/>
      <point x="830.5714263916016" y="252.85713958740234" type="line"/>
      <point x="586.2857131958008" y="252.85713958740234" type="line"/>
      <point x="586.2857131958008" y="497.14286041259766" type="line"/>
      <point x="830.5714263916016" y="497.14286041259766" type="line"/>
      <point x="830.5714263916016" y="754.2857131958008" type="line"/>
      <point x="586.2857131958008" y="754.2857131958008" type="line"/>
      <point x="586.2857131958008" y="998.5714263916016" type="line"/>
      <point x="329.14286041259766" y="998.5714263916016" type="line"/>
      <point x="329.14286041259766" y="754.2857131958008" type="line"/>
      <point x="84.85713958740234" y="754.2857131958008" type="line"/>
      <point x="84.85713958740234" y="497.14286041259766" type="line"/>
      <point x="329.14286041259766" y="497.14286041259766" type="line"/>
      <point x="329.14286041259766" y="252.85713958740234" type="line"/>
      <point x="84.85713958740234" y="252.85713958740234" type="line"/>
    </contour>
  </outline>
</glyph>
<glyph name="sup_two" format="2">
  <advance width="657.9489795918367"/>
  <unicode hex="00B2"/>
  <outline>
    <contour>
      <point x="102.55612182617188" y="380.39286041259766" type="line"/>
      <point x="578.3979568481445" y="380.39286041259766" type="line"/>
      <point x="578.3979568481445" y="566.1785736083984" type="line"/>
      <point x="392.72618103027344" y="566.1785736083984" type="line"/>
      <point x="489.14879608154297" y="646.5478820800781" type="line"/>
      <point x="545.7011232666557" y="693.6848707726209"/>
      <point x="578.3979591836734" y="763.5035046005551"/>
      <point x="578.3979591836734" y="837.1245748299318" type="curve"/>
      <point x="578.3979591836734" y="974.0530017561564"/>
      <point x="467.2294473343877" y="1085.2215136054422"/>
      <point x="330.30102040816325" y="1085.2215136054422" type="curve" smooth="yes"/>
      <point x="193.3725934819388" y="1085.2215136054422"/>
      <point x="82.20408163265306" y="974.0530017561564"/>
      <point x="82.20408163265306" y="837.1245748299318" type="curve"/>
      <point x="267.9897994995117" y="837.1245727539062" type="line"/>
      <point x="267.98979591836735" y="871.5150755404422"/>
      <point x="295.91051969765306" y="899.4357993197278"/>
      <point x="330.30102040816325" y="899.4357993197278" type="curve" smooth="yes"/>
      <point x="364.69152111867345" y="899.4357993197278"/>
      <point x="392.6122448979592" y="871.5150755404422"/>
      <point x="392.6122448979592" y="837.1245748299318" type="curve"/>
      <point x="392.6122448979592" y="818.6341450129295"/>
      <point x="384.40021337114206" y="801.0987228207202"/>
      <point x="370.1967128876573" y="789.259948862529" type="curve"/>
      <point x="102.55612182617188" y="566.1785736083984" type="line"/>
    </contour>
  </outline>
</glyph>
<glyph name="sup_three" format="2">
  <advance width="663.2551020408164"/>
  <unicode hex="00B3"/>
  <outline>
    <contour>
      <point x="76.89795684814453" y="600.2479019165039" type="line"/>
      <point x="76.89795918367344" y="473.5777572808206"/>
      <point x="191.632861690102" y="370.7376700680272"/>
      <point x="332.954081632653" y="370.7376700680271" type="curve" smooth="yes"/>
      <point x="474.275301575204" y="370.7376700680271"/>
      <point x="589.0102040816327" y="473.5777572808205"/>
      <point x="589.0102040816327" y="600.2479009460927" type="curve"/>
      <point x="589.0102040816327" y="652.971814843889"/>
      <point x="569.1326790530602" y="701.5672331120322"/>
      <point x="535.7341995239258" y="740.3318710327148" type="curve"/>
      <point x="562.6507582887511" y="775.725626130397"/>
      <point x="578.3979591836735" y="818.521319305545"/>
      <point x="578.3979591836735" y="864.596965571943" type="curve"/>
      <point x="578.3979591836735" y="986.3629674123426"/>
      <point x="468.4182442201021" y="1085.221513605442"/>
      <point x="332.954081632653" y="1085.221513605442" type="curve" smooth="yes"/>
      <point x="197.4899190452041" y="1085.221513605442"/>
      <point x="87.51020408163265" y="986.3629674123426"/>
      <point x="87.51020408163265" y="864.5969655719431" type="curve"/>
      <point x="273.2959213256836" y="864.5969619750977" type="line"/>
      <point x="273.2959183673469" y="883.8250411966284"/>
      <point x="300.0278452609184" y="899.4357993197278"/>
      <point x="332.954081632653" y="899.4357993197278" type="curve" smooth="yes"/>
      <point x="365.88031800438773" y="899.4357993197278"/>
      <point x="392.61224489795916" y="883.8250411966284"/>
      <point x="392.61224489795916" y="864.5969655719431" type="curve"/>
      <point x="392.61224489795916" y="845.3688899472577"/>
      <point x="365.88031800438773" y="829.7581318241581"/>
      <point x="332.954081632653" y="829.7581318241581" type="curve"/>
      <point x="240.06122589111328" y="829.7581329345703" type="line"/>
      <point x="240.06122589111328" y="643.9724197387695" type="line"/>
      <point x="332.9540786743164" y="643.9724197387695" type="line"/>
      <point x="371.73737535948976" y="643.9724175384439"/>
      <point x="403.2244897959183" y="624.3801183956506"/>
      <point x="403.2244897959183" y="600.2479009460927" type="curve"/>
      <point x="403.2244897959183" y="576.1156834965348"/>
      <point x="371.73737535948976" y="556.5233843537416"/>
      <point x="332.954081632653" y="556.5233843537416" type="curve" smooth="yes"/>
      <point x="294.17078790581627" y="556.5233843537416"/>
      <point x="262.6836734693877" y="576.1156834965348"/>
      <point x="262.6836734693877" y="600.2479009460927" type="curve"/>
    </contour>
  </outline>
</glyph>
<glyph name="acute" format="2">
  <advance width="546.2581166558718"/>
  <unicode hex="00B4"/>
  <outline>
    <contour>
      <point x="84.85714285714283" y="882.8571428571428" type="line"/>
      <point x="291.6691403423979" y="882.8571428571428" type="line"/>
      <point x="461.40097379872896" y="1182.857142857143" type="line"/>
      <point x="254.58897631347384" y="1182.857142857143" type="line"/>
    </contour>
  </outline>
</glyph>
<glyph name="mu" format="2">
  <advance width="966.8571428571428"/>
  <unicode hex="00B5"/>
  <outline>
    <contour>
      <point x="84.85713958740234" y="-185.71428680419922" type="line"/>
      <point x="342" y="-185.71428680419922" type="line"/>
      <point x="342" y="5.7359619140625" type="line"/>
      <point x="380.9502438951128" y="-7.7052058116816"/>
      <point x="422.74872891134305" y="-14.999999999999929"/>
      <point x="466.23756019261623" y="-14.999999999999943" type="curve" smooth="yes"/>
      <point x="561.2872876839435" y="-15.000000000000021"/>
      <point x="648.2623977007314" y="19.84651272008181"/>
      <point x="715.0737457275391" y="77.45079803466797" type="curve"/>
      <point x="780.1096995551909" y="19.929623209899695"/>
      <point x="865.5793404500246" y="-15.0"/>
      <point x="959.142857142857" y="-15.000000000000014" type="curve"/>
      <point x="959.1428604125977" y="242.14286041259766" type="line"/>
      <point x="897.5906009797752" y="242.14285714285714"/>
      <point x="847.6179775280899" y="292.11548059454253"/>
      <point x="847.6179775280899" y="353.66773675762437" type="curve"/>
      <point x="847.6179809570312" y="822.8571395874023" type="line"/>
      <point x="590.4751205444336" y="822.8571395874023" type="line"/>
      <point x="590.4751205444336" y="366.3804168701172" type="line"/>
      <point x="590.4751203852327" y="297.8118418170144"/>
      <point x="534.8061357110754" y="242.14285714285714"/>
      <point x="466.23756019261634" y="242.14285714285714" type="curve" smooth="yes"/>
      <point x="397.66898467415723" y="242.14285714285714"/>
      <point x="341.99999999999994" y="297.81184181701445"/>
      <point x="341.99999999999994" y="366.3804173354735" type="curve"/>
      <point x="342" y="822.8571395874023" type="line"/>
      <point x="84.85713958740234" y="822.8571395874023" type="line"/>
    </contour>
  </outline>
</glyph>
<glyph name="pilcrow" format="2">
  <advance width="1262.5714285714287"/>
  <unicode hex="00B6"/>
  <outline>
    <contour>
      <point x="393.42857360839844" y="-185.71428680419922" type="line"/>
      <point x="650.5714263916016" y="-185.71428680419922" type="line"/>
      <point x="650.5714263916016" y="822.8571395874023" type="line"/>
      <point x="753.4285736083984" y="822.8571395874023" type="line"/>
      <point x="753.4285736083984" y="-185.71428680419922" type="line"/>
      <point x="1010.5714263916016" y="-185.71428680419922" type="line"/>
      <point x="1010.5714263916016" y="822.8571395874023" type="line"/>
      <point x="1190.5714263916016" y="822.8571395874023" type="line"/>
      <point x="1190.5714263916016" y="1080" type="line"/>
      <point x="393.42857360839844" y="1080" type="line"/>
      <point x="213.6619649142857" y="1080.0"/>
      <point x="67.71428571428571" y="934.0523208"/>
      <point x="67.71428571428571" y="754.2857142857142" type="curve" smooth="yes"/>
      <point x="67.71428571428571" y="574.5191077714286"/>
      <point x="213.66196491428565" y="428.57142857142856"/>
      <point x="393.4285714285714" y="428.57142857142856" type="curve"/>
    </contour>
  </outline>
</glyph>
<glyph name="interpunct" format="2">
  <advance width="462.85714285714283"/>
  <unicode hex="00B7"/>
  <outline>
    <contour>
      <point x="390.85714285714283" y="489.6428571428571" type="curve" smooth="yes"/>
      <point x="390.85714285714283" y="577.6338803314286"/>
      <point x="319.4195946171429" y="649.0714285714286"/>
      <point x="231.42857142857142" y="649.0714285714286" type="curve" smooth="yes"/>
      <point x="143.43754824" y="649.0714285714286"/>
      <point x="72.0" y="577.6338803314286"/>
      <point x="72.0" y="489.6428571428571" type="curve" smooth="yes"/>
      <point x="72.0" y="401.65183395428573"/>
      <point x="143.43754823999996" y="330.2142857142857"/>
      <point x="231.4285714285714" y="330.2142857142857" type="curve" smooth="yes"/>
      <point x="319.4195946171428" y="330.2142857142857"/>
      <point x="390.85714285714283" y="401.6518339542857"/>
    </contour>
  </outline>
</glyph>
<glyph name="cedilla" format="2">
  <advance width="458.57142857142856"/>
  <unicode hex="00B8"/>
  <outline>
    <contour>
      <point x="101.14286041259766" y="-128.57142639160156" type="line"/>
      <point x="191.14286041259766" y="-128.57142639160156" type="line"/>
      <point x="192.56206719428565" y="-128.57142857142856"/>
      <point x="193.71428571428572" y="-129.72364709142857"/>
      <point x="193.71428571428572" y="-131.14285714285714" type="curve" smooth="yes"/>
      <point x="193.71428571428572" y="-132.5620671942857"/>
      <point x="192.56206719428565" y="-133.7142857142857"/>
      <point x="191.1428571428571" y="-133.7142857142857" type="curve"/>
      <point x="84.85713958740234" y="-133.71428680419922" type="line"/>
      <point x="84.85713958740234" y="-313.7142868041992" type="line"/>
      <point x="191.14286041259766" y="-313.7142868041992" type="line"/>
      <point x="291.9067707942857" y="-313.7142857142857"/>
      <point x="373.7142857142857" y="-231.9067707942857"/>
      <point x="373.7142857142857" y="-131.14285714285714" type="curve" smooth="yes"/>
      <point x="373.7142857142857" y="-63.094164864465185"/>
      <point x="336.40450356007443" y="-3.6908776908438554"/>
      <point x="281.14286041259766" y="27.68761444091797" type="curve"/>
      <point x="281.14286041259766" y="128.57142639160156" type="line"/>
      <point x="101.14286041259766" y="128.57142639160156" type="line"/>
    </contour>
  </outline>
</glyph>
<glyph name="sup_one" format="2">
  <advance width="541.25"/>
  <unicode hex="00B9"/>
  <outline>
    <contour>
      <point x="238.7704086303711" y="380.39286041259766" type="line"/>
      <point x="424.5561218261719" y="380.39286041259766" type="line"/>
      <point x="424.5561218261719" y="1075.5663299560547" type="line"/>
      <point x="238.7704086303711" y="1075.5663299560547" type="line"/>
      <point x="82.2040786743164" y="985.1727142333984" type="line"/>
      <point x="82.2040786743164" y="770.6458511352539" type="line"/>
      <point x="238.7704086303711" y="861.0394592285156" type="line"/>
    </contour>
  </outline>
</glyph>
<glyph name="ordinalmasculine" format="2">
  <advance width="584.1071428571427"/>
  <unicode hex="00BA"/>
  <outline>
    <contour>
      <point x="517.82143" y="869.23214" type="curve" smooth="yes"/>
      <point x="517.82143" y="993.83681"/>
      <point x="416.65824" y="1095.0"/>
      <point x="292.05357" y="1095.0" type="curve" smooth="yes"/>
      <point x="167.4489" y="1095.0"/>
      <point x="66.28571" y="993.83681"/>
      <point x="66.28571" y="869.23214" type="curve" smooth="yes"/>
      <point x="66.28571" y="744.62747"/>
      <point x="167.4489" y="643.46429"/>
      <point x="292.05357" y="643.46429" type="curve" smooth="yes"/>
      <point x="416.65824" y="643.46429"/>
      <point x="517.82143" y="744.62747"/>
    </contour>
    <contour>
      <point x="364.82143" y="869.23214" type="curve" smooth="yes"/>
      <point x="364.82143" y="829.07047"/>
      <point x="332.21524" y="796.46429"/>
      <point x="292.05357" y="796.46429" type="curve" smooth="yes"/>
      <point x="251.8919" y="796.46429"/>
      <point x="219.28571" y="829.07047"/>
      <point x="219.28571" y="869.23214" type="curve" smooth="yes"/>
      <point x="219.28571" y="909.39382"/>
      <point x="251.8919" y="942.0"/>
      <point x="292.05357" y="942.0" type="curve" smooth="yes"/>
      <point x="332.21524" y="942.0"/>
      <point x="364.82143" y="909.39382"/>
    </contour>
    <contour>
      <point x="66.28571" y="401.9949" type="line"/>
      <point x="517.82143" y="401.9949" type="line"/>
      <point x="517.82143" y="561.17857" type="line"/>
      <point x="66.28571" y="561.17857" type="line"/>
    </contour>
  </outline>
</glyph>
<glyph name="angledblright" format="2">
  <advance width="1095.4285714285156"/>
  <unicode hex="00BB"/>
  <outline>
    <contour>
      <point x="522" y="222.85713958740234" type="line"/>
      <point x="829.9101181030273" y="222.85713958740234" type="line"/>
      <point x="1010.5714263916016" y="497.14286041259766" type="line"/>
      <point x="829.9101181030273" y="771.4285736083984" type="line"/>
      <point x="522" y="771.4285736083984" type="line"/>
      <point x="702.6613159179688" y="497.14286041259766" type="line"/>
    </contour>
    <contour>
      <point x="84.85713958740234" y="222.85713958740234" type="line"/>
      <point x="392.7672576904297" y="222.85713958740234" type="line"/>
      <point x="573.4285736083984" y="497.14286041259766" type="line"/>
      <point x="392.7672576904297" y="771.4285736083984" type="line"/>
      <point x="84.85713958740234" y="771.4285736083984" type="line"/>
      <point x="265.5184555053711" y="497.14286041259766" type="line"/>
    </contour>
  </outline>
</glyph>
<glyph name="one_over_four" format="2">
  <advance width="1506.9562809317272"/>
  <unicode hex="00BC"/>
  <outline>
    <contour>
      <point x="239.98469387755102" y="0.0" type="line"/>
      <point x="497.566886412546" y="0.0" type="line"/>
      <point x="1311.405260523564" y="1080.0" type="line"/>
      <point x="1053.823067988569" y="1080.0" type="line"/>
    </contour>
    <contour>
      <point x="237.13775634765625" y="380.39286041259766" type="line"/>
      <point x="422.92346954345703" y="380.39286041259766" type="line"/>
      <point x="422.92346954345703" y="1075.5663299560547" type="line"/>
      <point x="237.13775634765625" y="1075.5663299560547" type="line"/>
      <point x="80.57142639160156" y="985.1727142333984" type="line"/>
      <point x="80.57142639160156" y="770.6458511352539" type="line"/>
      <point x="237.13775634765625" y="861.0394592285156" type="line"/>
    </contour>
    <contour>
      <point x="1096.2151260375977" y="256.6246337890625" type="line"/>
      <point x="1183.7849960327148" y="377.8685760498047" type="line"/>
      <point x="1183.7849960327148" y="256.6246337890625" type="line"/>
    </contour>
    <contour>
      <point x="867.0379104614258" y="70.83892059326172" type="line"/>
      <point x="1183.7849960327148" y="70.83892059326172" type="line"/>
      <point x="1183.7849960327148" y="0" type="line"/>
      <point x="1369.5707092285156" y="0" type="line"/>
      <point x="1369.5707092285156" y="70.83892059326172" type="line"/>
      <point x="1464.956283569336" y="70.83892059326172" type="line"/>
      <point x="1464.956283569336" y="256.6246337890625" type="line"/>
      <point x="1369.5707092285156" y="256.6246337890625" type="line"/>
      <point x="1369.5707092285156" y="695.173469543457" type="line"/>
      <point x="1183.7849960327148" y="695.173469543457" type="line"/>
      <point x="867.0379104614258" y="256.6246337890625" type="line"/>
    </contour>
  </outline>
</glyph>
<glyph name="one_over_two" format="2">
  <advance width="1555.2317911358089"/>
  <unicode hex="00BD"/>
  <outline>
    <contour>
      <point x="239.98469387755102" y="0.0" type="line"/>
      <point x="497.566886412546" y="0.0" type="line"/>
      <point x="1311.405260523564" y="1080.0" type="line"/>
      <point x="1053.823067988569" y="1080.0" type="line"/>
    </contour>
    <contour>
      <point x="237.13775634765625" y="380.39286041259766" type="line"/>
      <point x="422.92346954345703" y="380.39286041259766" type="line"/>
      <point x="422.92346954345703" y="1075.5663299560547" type="line"/>
      <point x="237.13775634765625" y="1075.5663299560547" type="line"/>
      <point x="80.57142639160156" y="985.1727142333984" type="line"/>
      <point x="80.57142639160156" y="770.6458511352539" type="line"/>
      <point x="237.13775634765625" y="861.0394592285156" type="line"/>
    </contour>
    <contour>
      <point x="1003.1042404174805" y="0" type="line"/>
      <point x="1478.9460754394531" y="0" type="line"/>
      <point x="1478.9460754394531" y="185.78571319580078" type="line"/>
      <point x="1293.274299621582" y="185.78571319580078" type="line"/>
      <point x="1389.696907043457" y="266.15502166748047" type="line"/>
      <point x="1446.2492409330766" y="313.29201362976374"/>
      <point x="1478.9460768500944" y="383.11064745769784"/>
      <point x="1478.9460768500944" y="456.7317176870749" type="curve"/>
      <point x="1478.9460768500944" y="593.6601446132993"/>
      <point x="1367.7775650008086" y="704.828656462585"/>
      <point x="1230.849138074584" y="704.828656462585" type="curve" smooth="yes"/>
      <point x="1093.9207111483597" y="704.828656462585"/>
      <point x="982.7521992990739" y="593.6601446132993"/>
      <point x="982.7521992990739" y="456.7317176870749" type="curve"/>
      <point x="1168.5379104614258" y="456.7317199707031" type="line"/>
      <point x="1168.5379135847884" y="491.12221839758513"/>
      <point x="1196.458637364074" y="519.0429421768707"/>
      <point x="1230.849138074584" y="519.0429421768707" type="curve" smooth="yes"/>
      <point x="1265.2396387850945" y="519.0429421768707"/>
      <point x="1293.1603625643802" y="491.12221839758513"/>
      <point x="1293.1603625643802" y="456.7317176870749" type="curve"/>
      <point x="1293.1603625643802" y="438.2412878700723"/>
      <point x="1284.948331037563" y="420.7058656778631"/>
      <point x="1270.7448305540784" y="408.86709171967186" type="curve"/>
      <point x="1003.1042404174805" y="185.78571319580078" type="line"/>
    </contour>
  </outline>
</glyph>
<glyph name="three_over_four" format="2">
  <advance width="1496.7164850133597"/>
  <unicode hex="00BE"/>
  <outline>
    <contour>
      <point x="72" y="600.2479019165039" type="line"/>
      <point x="72.0" y="473.57776"/>
      <point x="186.7349" y="370.73767"/>
      <point x="328.05612" y="370.73767" type="curve" smooth="yes"/>
      <point x="469.37734" y="370.73767"/>
      <point x="584.11224" y="473.57776"/>
      <point x="584.11224" y="600.2479" type="curve"/>
      <point x="584.11224" y="652.9718123722"/>
      <point x="564.2347154056598" y="701.5672302326224"/>
      <point x="530.8362426757812" y="740.3318634033203" type="curve"/>
      <point x="557.7527998157755" y="775.7256264384094"/>
      <point x="573.4999999999999" y="818.5213206460501"/>
      <point x="573.5" y="864.5969700000002" type="curve"/>
      <point x="573.5" y="986.36297"/>
      <point x="463.52029" y="1085.22151"/>
      <point x="328.05612" y="1085.22151" type="curve" smooth="yes"/>
      <point x="192.59196" y="1085.22151"/>
      <point x="82.61224" y="986.36297"/>
      <point x="82.61224" y="864.59697" type="curve"/>
      <point x="268.39795684814453" y="864.5969696044922" type="line"/>
      <point x="268.39796" y="883.82504"/>
      <point x="295.12989" y="899.4358"/>
      <point x="328.05612" y="899.4358" type="curve" smooth="yes"/>
      <point x="360.98236" y="899.4358"/>
      <point x="387.71429" y="883.82504"/>
      <point x="387.71429" y="864.59697" type="curve"/>
      <point x="387.71429" y="845.36889"/>
      <point x="360.98236" y="829.75813"/>
      <point x="328.05612" y="829.75813" type="curve"/>
      <point x="235.16326904296875" y="829.7581329345703" type="line"/>
      <point x="235.16326904296875" y="643.9724197387695" type="line"/>
      <point x="328.0561218261719" y="643.9724197387695" type="line"/>
      <point x="366.83942" y="643.97242"/>
      <point x="398.32653" y="624.38012"/>
      <point x="398.32653" y="600.2479" type="curve"/>
      <point x="398.32653" y="576.11568"/>
      <point x="366.83942" y="556.52338"/>
      <point x="328.05612" y="556.52338" type="curve" smooth="yes"/>
      <point x="289.27283" y="556.52338"/>
      <point x="257.78571" y="576.11568"/>
      <point x="257.78571" y="600.2479" type="curve"/>
    </contour>
    <contour>
      <point x="229.7449" y="0.0" type="line"/>
      <point x="487.32709" y="0.0" type="line"/>
      <point x="1301.16546" y="1080.0" type="line"/>
      <point x="1043.58327" y="1080.0" type="line"/>
    </contour>
    <contour>
      <point x="1085.975326538086" y="256.62464141845703" type="line"/>
      <point x="1173.5451965332031" y="377.8685836791992" type="line"/>
      <point x="1173.5451965332031" y="256.62464141845703" type="line"/>
    </contour>
    <contour>
      <point x="856.7981185913086" y="70.83892059326172" type="line"/>
      <point x="1173.5451965332031" y="70.83892059326172" type="line"/>
      <point x="1173.5451965332031" y="0" type="line"/>
      <point x="1359.3309173583984" y="0" type="line"/>
      <point x="1359.3309173583984" y="70.83892059326172" type="line"/>
      <point x="1454.7164916992188" y="70.83892059326172" type="line"/>
      <point x="1454.7164916992188" y="256.62464141845703" type="line"/>
      <point x="1359.3309173583984" y="256.62464141845703" type="line"/>
      <point x="1359.3309173583984" y="695.173469543457" type="line"/>
      <point x="1173.5451965332031" y="695.173469543457" type="line"/>
      <point x="856.7981185913086" y="256.62464141845703" type="line"/>
    </contour>
  </outline>
</glyph>
<glyph name="invertedquestion" format="2">
  <advance width="838.2857142857142"/>
  <unicode hex="00BF"/>
  <outline>
    <contour>
      <point x="259.7142857142858" y="678.4285714285714" type="curve" smooth="yes"/>
      <point x="259.7142857142858" y="590.43754824"/>
      <point x="331.1518339542856" y="519.0"/>
      <point x="419.1428571428572" y="519.0" type="curve" smooth="yes"/>
      <point x="507.1338803314286" y="519.0"/>
      <point x="578.5714285714286" y="590.43754824"/>
      <point x="578.5714285714286" y="678.4285714285714" type="curve" smooth="yes"/>
      <point x="578.5714285714286" y="766.4195946171427"/>
      <point x="507.1338803314287" y="837.8571428571428"/>
      <point x="419.1428571428572" y="837.8571428571428" type="curve" smooth="yes"/>
      <point x="331.15183395428585" y="837.8571428571428"/>
      <point x="259.7142857142858" y="766.4195946171427"/>
    </contour>
    <contour>
      <point x="547.7142868041992" y="467.57142639160156" type="line"/>
      <point x="290.57142639160156" y="467.57142639160156" type="line"/>
      <point x="290.57142639160156" y="424.1736145019531" type="line"/>
      <point x="155.29757929480297" y="372.37849037977054"/>
      <point x="59.14285714285717" y="241.25828002701084"/>
      <point x="59.14285714285715" y="87.85714285714289" type="curve"/>
      <point x="59.14285714285709" y="-110.83226434285716"/>
      <point x="220.453449942857" y="-272.1428571428571"/>
      <point x="419.1428571428571" y="-272.1428571428571" type="curve" smooth="yes"/>
      <point x="617.832264342857" y="-272.1428571428571"/>
      <point x="779.1428571428571" y="-110.83226434285726"/>
      <point x="779.1428571428571" y="87.8571428571428" type="curve"/>
      <point x="522" y="87.85713958740234" type="line"/>
      <point x="522.0" y="31.088740799999965"/>
      <point x="475.9112591999999" y="-15.0"/>
      <point x="419.1428571428571" y="-15.0" type="curve" smooth="yes"/>
      <point x="362.3744550857142" y="-15.0"/>
      <point x="316.2857142857142" y="31.088740799999965"/>
      <point x="316.2857142857142" y="87.85714285714285" type="curve"/>
      <point x="316.2857142857142" y="144.62554491428574"/>
      <point x="362.3744550857142" y="190.7142857142857"/>
      <point x="419.1428571428571" y="190.7142857142857" type="curve"/>
      <point x="547.7142868041992" y="190.71428680419922" type="line"/>
    </contour>
  </outline>
</glyph>
<glyph name="A_with_acute" format="2">
  <advance width="1121.1428571428721"/>
  <unicode hex="00C1"/>
  <outline>
    <contour>
      <point x="457.1654298288085" y="1182.857142857143" type="line"/>
      <point x="663.9774273140636" y="1182.857142857143" type="line"/>
      <point x="833.7092607703946" y="1482.8571428571427" type="line"/>
      <point x="626.8972632851395" y="1482.8571428571427" type="line"/>
    </contour>
    <contour>
      <point x="7.714286804199219" y="0" type="line"/>
      <point x="283.19786071777344" y="0" type="line"/>
      <point x="342.5000534057617" y="154.28571319580078" type="line"/>
      <point x="778.6428070068359" y="154.28571319580078" type="line"/>
      <point x="837.9449996948242" y="0" type="line"/>
      <point x="1113.4285736083984" y="0" type="line"/>
      <point x="698.3132171630859" y="1080" type="line"/>
      <point x="422.8296432495117" y="1080" type="line"/>
    </contour>
    <contour>
      <point x="441.33704376220703" y="411.42857360839844" type="line"/>
      <point x="560.5714340209961" y="721.6390609741211" type="line"/>
      <point x="679.8058166503906" y="411.42857360839844" type="line"/>
    </contour>
  </outline>
</glyph>
<glyph name="A_with_smalltilde" format="2">
  <advance width="1121.1428571428721"/>
  <unicode hex="00C3"/>
  <outline>
    <contour>
      <point x="612.19331" y="1372.08014" type="curve"/>
      <point x="573.36103" y="1399.27079"/>
      <point x="527.10339" y="1413.85577"/>
      <point x="479.69794" y="1413.85577" type="curve"/>
      <point x="352.20633" y="1413.85577"/>
      <point x="248.69931" y="1310.34875"/>
      <point x="248.69931" y="1182.85714" type="curve"/>
      <point x="428.6993103027344" y="1182.8571395874023" type="line"/>
      <point x="428.69931" y="1211.00405"/>
      <point x="451.55103" y="1233.85577"/>
      <point x="479.69794" y="1233.85577" type="curve"/>
      <point x="490.16386" y="1233.85577"/>
      <point x="500.37637" y="1230.63578"/>
      <point x="508.94955" y="1224.63277" type="curve"/>
      <point x="547.78182" y="1197.44212"/>
      <point x="594.03947" y="1182.85714"/>
      <point x="641.44492" y="1182.85714" type="curve"/>
      <point x="768.93653" y="1182.85714"/>
      <point x="872.44355" y="1286.36416"/>
      <point x="872.44355" y="1413.85577" type="curve"/>
      <point x="692.4435501098633" y="1413.8557662963867" type="line"/>
      <point x="692.44355" y="1385.70886"/>
      <point x="669.59183" y="1362.85714"/>
      <point x="641.44492" y="1362.85714" type="curve"/>
      <point x="630.979" y="1362.85714"/>
      <point x="620.76649" y="1366.07714"/>
    </contour>
    <contour>
      <point x="7.714286804199219" y="0" type="line"/>
      <point x="283.19786071777344" y="0" type="line"/>
      <point x="342.5000534057617" y="154.28571319580078" type="line"/>
      <point x="778.6428070068359" y="154.28571319580078" type="line"/>
      <point x="837.9449996948242" y="0" type="line"/>
      <point x="1113.4285736083984" y="0" type="line"/>
      <point x="698.3132171630859" y="1080" type="line"/>
      <point x="422.8296432495117" y="1080" type="line"/>
    </contour>
    <contour>
      <point x="441.33704376220703" y="411.42857360839844" type="line"/>
      <point x="560.5714340209961" y="721.6390609741211" type="line"/>
      <point x="679.8058166503906" y="411.42857360839844" type="line"/>
    </contour>
  </outline>
</glyph>
<glyph name="A_with_diaeresis" format="2">
  <advance width="1121.1428571428721"/>
  <unicode hex="00C4"/>
  <outline>
    <contour>
      <point x="554.1428571428646" y="1360.6530612244899" type="curve" smooth="yes"/>
      <point x="554.1428571428646" y="1458.7812990661223"/>
      <point x="474.4751766171504" y="1538.4489795918366"/>
      <point x="376.3469387755177" y="1538.4489795918366" type="curve" smooth="yes"/>
      <point x="278.21870093388503" y="1538.4489795918366"/>
      <point x="198.55102040817073" y="1458.7812990661223"/>
      <point x="198.55102040817073" y="1360.6530612244899" type="curve" smooth="yes"/>
      <point x="198.55102040817073" y="1262.5248233828572"/>
      <point x="278.218700933885" y="1182.857142857143"/>
      <point x="376.3469387755177" y="1182.857142857143" type="curve" smooth="yes"/>
      <point x="474.4751766171503" y="1182.857142857143"/>
      <point x="554.1428571428646" y="1262.5248233828572"/>
    </contour>
    <contour>
      <point x="922.5918367347014" y="1360.6530612244899" type="curve" smooth="yes"/>
      <point x="922.5918367347014" y="1458.7812990661223"/>
      <point x="842.924156208987" y="1538.4489795918366"/>
      <point x="744.7959183673544" y="1538.4489795918366" type="curve" smooth="yes"/>
      <point x="646.6676805257217" y="1538.4489795918366"/>
      <point x="567.0000000000074" y="1458.7812990661223"/>
      <point x="567.0000000000074" y="1360.6530612244899" type="curve" smooth="yes"/>
      <point x="567.0000000000074" y="1262.5248233828572"/>
      <point x="646.6676805257216" y="1182.857142857143"/>
      <point x="744.7959183673544" y="1182.857142857143" type="curve" smooth="yes"/>
      <point x="842.924156208987" y="1182.857142857143"/>
      <point x="922.5918367347014" y="1262.5248233828572"/>
    </contour>
    <contour>
      <point x="7.714286804199219" y="0" type="line"/>
      <point x="283.19786071777344" y="0" type="line"/>
      <point x="342.5000534057617" y="154.28571319580078" type="line"/>
      <point x="778.6428070068359" y="154.28571319580078" type="line"/>
      <point x="837.9449996948242" y="0" type="line"/>
      <point x="1113.4285736083984" y="0" type="line"/>
      <point x="698.3132171630859" y="1080" type="line"/>
      <point x="422.8296432495117" y="1080" type="line"/>
    </contour>
    <contour>
      <point x="441.33704376220703" y="411.42857360839844" type="line"/>
      <point x="560.5714340209961" y="721.6390609741211" type="line"/>
      <point x="679.8058166503906" y="411.42857360839844" type="line"/>
    </contour>
  </outline>
</glyph>
